<?xml version="1.0" encoding="utf-8"?>
<!-- Generator: Adobe Illustrator 16.0.0, SVG Export Plug-In . SVG Version: 6.00 Build 0)  -->
<!DOCTYPE svg PUBLIC "-//W3C//DTD SVG 1.1//EN" "http://www.w3.org/Graphics/SVG/1.1/DTD/svg11.dtd">
<svg version="1.1" xmlns="http://www.w3.org/2000/svg" xmlns:xlink="http://www.w3.org/1999/xlink" x="0px" y="0px"
	 width="1125.713px" height="294.9px" viewBox="0 0 1125.713 294.9" enable-background="new 0 0 1125.713 294.9"
	 xml:space="preserve">
<g id="Layer_1">
</g>
<g id="SomenteLogo">
	<rect x="-21.385" y="-342.1" fill="#33B9D7" width="1168.482" height="322"/>
	<rect x="-50.821" y="339.434" fill="#33B9D7" width="1168.482" height="322"/>
	<g>
		<g>
			<linearGradient id="SVGID_1_" gradientUnits="userSpaceOnUse" x1="-383.0684" y1="-239.501" x2="-331.6572" y2="-239.501">
				<stop  offset="0" style="stop-color:#F58131"/>
				<stop  offset="1" style="stop-color:#F05123"/>
			</linearGradient>
			<path fill="url(#SVGID_1_)" d="M-331.657-256.641v58.273c-11.357,0-20.567-9.213-20.567-20.57v-31.018
				c0-5.586-4.521-10.111-10.107-10.111h-10.452c-5.684,0-10.284-4.604-10.284-10.287c0-5.676,4.601-10.281,10.284-10.281h17.135
				C-342.394-280.635-331.657-269.893-331.657-256.641"/>
			<g>
				<defs>
					<path id="SVGID_2_" d="M-331.652-280.629L-331.652-280.629c0,11.354,9.206,20.563,20.564,20.563
						c5.681,0,10.279-4.604,10.279-10.287c0-5.682-4.599-10.275-10.279-10.275H-331.652z"/>
				</defs>
				<clipPath id="SVGID_3_">
					<use xlink:href="#SVGID_2_"  overflow="visible"/>
				</clipPath>
				
					<linearGradient id="SVGID_4_" gradientUnits="userSpaceOnUse" x1="-662.0972" y1="-324.7637" x2="-658.2715" y2="-324.7637" gradientTransform="matrix(9.4911 10.2971 -10.2971 9.4911 2605.4482 9609.9043)">
					<stop  offset="0" style="stop-color:#6CCDE5"/>
					<stop  offset="1" style="stop-color:#10B0D0"/>
				</linearGradient>
				<polygon clip-path="url(#SVGID_3_)" fill="url(#SVGID_4_)" points="-341.898,-271.182 -317.486,-244.695 -290.556,-269.508 
					-314.976,-295.998 				"/>
			</g>
		</g>
		<g id="text">
			<path fill="#FFFFFF" d="M-131.298-231.908c-0.532-0.508-1.205-0.77-1.942-0.77h-0.222c-0.747,0-1.417,0.262-1.948,0.77
				c-0.547,0.516-0.84,1.174-0.84,1.906v0.135c0,0.74,0.293,1.396,0.84,1.912c0.531,0.5,1.201,0.764,1.948,0.764h0.222
				c0.737,0,1.41-0.264,1.942-0.764c0.55-0.516,0.832-1.172,0.832-1.912v-0.135C-130.466-230.734-130.748-231.393-131.298-231.908"
				/>
			<path fill="#FFFFFF" d="M-102.655-231.908c-0.53-0.508-1.199-0.77-1.944-0.77h-0.217c-0.748,0-1.419,0.262-1.947,0.77
				c-0.553,0.516-0.833,1.174-0.833,1.906v0.135c0,0.74,0.28,1.396,0.833,1.912c0.528,0.5,1.199,0.764,1.947,0.764h0.217
				c0.745,0,1.414-0.264,1.944-0.764c0.55-0.516,0.842-1.172,0.842-1.912v-0.135C-101.813-230.734-102.105-231.393-102.655-231.908"
				/>
			<g>
				<path fill="#33B9D7" d="M-263.218-229.523c0-0.66-0.254-1.25-0.748-1.713c-0.47-0.441-1.074-0.682-1.734-0.682h-18.251
					c-0.669,0-1.276,0.24-1.74,0.697c-0.461,0.455-0.71,1.047-0.71,1.697c0,0.674,0.251,1.256,0.726,1.707
					c0.456,0.438,1.056,0.666,1.725,0.666h6.559v18.875c0,0.68,0.271,1.299,0.763,1.766c0.485,0.465,1.107,0.691,1.803,0.691
					c0.683,0,1.312-0.227,1.801-0.68c0.525-0.471,0.796-1.09,0.796-1.777v-18.875h6.53c0.653,0,1.254-0.229,1.724-0.654
					C-263.478-228.254-263.218-228.842-263.218-229.523"/>
				<path fill="#33B9D7" d="M-246.585-214.398c0.479-0.465,0.729-1.076,0.729-1.756c0-1.707-0.376-3.307-1.125-4.75
					c-0.764-1.471-1.888-2.666-3.347-3.543c-1.454-0.881-3.189-1.32-5.156-1.32c-2.103,0-3.913,0.475-5.372,1.418
					c-1.46,0.951-2.557,2.205-3.266,3.736c-0.688,1.496-1.04,3.141-1.04,4.906c0,3.146,0.945,5.646,2.796,7.416
					c1.835,1.758,4.396,2.648,7.613,2.648c1.553,0,2.814-0.129,3.826-0.402c0.994-0.279,2.002-0.682,3.018-1.23
					c1.184-0.641,1.429-1.479,1.429-2.076c0-0.658-0.256-1.234-0.749-1.654c-0.463-0.402-1.024-0.611-1.624-0.611
					c-0.381,0-0.73,0.082-1.052,0.23c-0.67,0.316-1.376,0.57-2.076,0.725c-0.695,0.176-1.532,0.254-2.481,0.254
					c-1.697,0-3.021-0.379-3.916-1.137c-0.665-0.553-1.116-1.254-1.376-2.143h11.304
					C-247.691-213.688-247.063-213.928-246.585-214.398 M-259.814-218.068c0.118-0.537,0.329-1.002,0.606-1.393
					c0.439-0.629,0.979-1.078,1.641-1.367c1.365-0.607,2.791-0.607,4.167,0c0.662,0.289,1.203,0.748,1.66,1.375
					c0.283,0.389,0.486,0.852,0.615,1.385H-259.814z"/>
				<path fill="#33B9D7" d="M-240.726-233.193c-0.701,0-1.32,0.246-1.807,0.723c-0.498,0.479-0.757,1.1-0.757,1.771v22.424
					c0,0.68,0.271,1.299,0.765,1.766c0.484,0.465,1.105,0.691,1.799,0.691c0.687,0,1.311-0.227,1.807-0.68
					c0.521-0.471,0.793-1.09,0.793-1.777v-22.424c0-0.701-0.267-1.322-0.768-1.803
					C-239.371-232.955-240.009-233.193-240.726-233.193"/>
				<path fill="#33B9D7" d="M-216.733-214.398c0.479-0.465,0.732-1.076,0.732-1.756c0-1.707-0.378-3.307-1.123-4.75
					c-0.759-1.471-1.887-2.666-3.35-3.543c-1.454-0.881-3.188-1.32-5.159-1.32c-2.097,0-3.906,0.475-5.368,1.418
					c-1.462,0.951-2.558,2.205-3.265,3.736c-0.688,1.496-1.039,3.141-1.039,4.906c0,3.146,0.947,5.646,2.792,7.416
					c1.842,1.758,4.403,2.648,7.618,2.648c1.555,0,2.811-0.129,3.826-0.402c0.988-0.279,2-0.682,3.015-1.23
					c1.181-0.641,1.435-1.479,1.435-2.076c0-0.658-0.262-1.234-0.753-1.654c-0.467-0.402-1.025-0.611-1.634-0.611
					c-0.372,0-0.728,0.082-1.047,0.23c-0.671,0.316-1.37,0.57-2.072,0.725c-0.692,0.176-1.533,0.254-2.484,0.254
					c-1.7,0-3.017-0.379-3.921-1.137c-0.657-0.553-1.114-1.254-1.371-2.143h11.305
					C-217.839-213.688-217.209-213.928-216.733-214.398 M-229.965-218.068c0.127-0.537,0.329-1.002,0.61-1.393
					c0.441-0.629,0.98-1.078,1.639-1.367c1.369-0.607,2.797-0.607,4.168,0c0.661,0.289,1.21,0.748,1.664,1.375
					c0.284,0.389,0.486,0.852,0.613,1.385H-229.965z"/>
				<path fill="#33B9D7" d="M-186.662-224.633c-1.065-0.756-2.393-1.135-3.947-1.135c-2.773,0-4.992,0.938-6.64,2.807
					c-0.449-0.594-0.997-1.133-1.661-1.605c-1.13-0.793-2.493-1.201-4.053-1.201c-1.695,0-3.122,0.35-4.229,1.037
					c-0.426,0.252-0.82,0.551-1.204,0.865c-0.117-0.371-0.348-0.717-0.659-1.016c-0.49-0.471-1.123-0.717-1.812-0.717
					c-0.705,0-1.332,0.254-1.813,0.725c-0.494,0.486-0.751,1.098-0.751,1.777v14.813c0,0.688,0.257,1.299,0.764,1.773
					c0.489,0.455,1.102,0.691,1.8,0.691c0.681,0,1.312-0.227,1.802-0.68c0.522-0.479,0.792-1.09,0.792-1.785v-10.086
					c0.536-0.791,1.148-1.443,1.813-1.936c0.665-0.502,1.5-0.744,2.552-0.744c1.064,0,1.803,0.242,2.176,0.715
					c0.424,0.531,0.641,1.471,0.641,2.729v9.322c0,0.688,0.271,1.299,0.771,1.773c0.481,0.449,1.105,0.691,1.792,0.691
					c0.688,0,1.311-0.227,1.811-0.68c0.52-0.479,0.793-1.09,0.793-1.785v-10.086c0.537-0.791,1.148-1.443,1.813-1.936
					c0.662-0.502,1.493-0.744,2.55-0.744c1.073,0,1.799,0.242,2.179,0.715c0.416,0.531,0.643,1.471,0.643,2.729v9.322
					c0,0.688,0.259,1.299,0.764,1.773c0.479,0.455,1.107,0.691,1.804,0.691c0.682,0,1.308-0.227,1.799-0.68
					c0.518-0.479,0.798-1.09,0.798-1.785v-9.945c0-1.225-0.25-2.42-0.736-3.543C-184.822-222.932-185.615-223.893-186.662-224.633"
					/>
				<path fill="#33B9D7" d="M-162.37-214.398c0.479-0.465,0.732-1.076,0.732-1.756c0-1.707-0.378-3.307-1.124-4.75
					c-0.759-1.471-1.889-2.666-3.352-3.543c-1.45-0.881-3.188-1.32-5.158-1.32c-2.097,0-3.904,0.475-5.368,1.418
					c-1.456,0.951-2.553,2.205-3.263,3.736c-0.688,1.496-1.039,3.141-1.039,4.906c0,3.146,0.945,5.646,2.796,7.416
					c1.838,1.758,4.396,2.648,7.611,2.648c1.554,0,2.813-0.129,3.827-0.402c0.987-0.279,2.003-0.682,3.021-1.23
					c1.178-0.641,1.429-1.479,1.429-2.076c0-0.658-0.263-1.234-0.756-1.654c-0.465-0.402-1.021-0.611-1.621-0.611
					c-0.384,0-0.735,0.082-1.057,0.23c-0.673,0.316-1.371,0.57-2.073,0.725c-0.691,0.176-1.531,0.254-2.477,0.254
					c-1.706,0-3.021-0.379-3.925-1.137c-0.659-0.553-1.116-1.254-1.37-2.143h11.299C-163.479-213.688-162.85-213.928-162.37-214.398
					 M-175.604-218.068c0.126-0.537,0.332-1.002,0.614-1.393c0.439-0.629,0.979-1.078,1.636-1.367c1.367-0.607,2.799-0.607,4.17,0
					c0.665,0.289,1.207,0.748,1.662,1.375c0.284,0.389,0.487,0.852,0.616,1.385H-175.604z"/>
				<path fill="#33B9D7" d="M-142.472-233.193c-0.697,0-1.31,0.229-1.809,0.686c-0.521,0.473-0.797,1.102-0.797,1.809v6.545
					c-1.592-1.076-3.387-1.623-5.346-1.623c-1.665,0-3.255,0.412-4.742,1.203c-1.495,0.799-2.72,1.98-3.642,3.506
					c-0.929,1.533-1.398,3.334-1.398,5.361c0,2.025,0.47,3.828,1.398,5.359c0.922,1.525,2.146,2.715,3.642,3.516
					c1.487,0.793,3.077,1.189,4.742,1.189c2.032,0,3.88-0.576,5.521-1.729c0.133,0.32,0.341,0.621,0.621,0.873
					c0.499,0.459,1.111,0.68,1.809,0.68c0.685,0,1.313-0.227,1.79-0.691c0.501-0.475,0.768-1.086,0.768-1.766v-22.424
					c0-0.672-0.261-1.293-0.753-1.777C-141.15-232.947-141.78-233.193-142.472-233.193 M-147.179-211.029
					c-0.86,0.416-1.786,0.621-2.774,0.621c-1.569,0-2.781-0.441-3.715-1.35c-0.923-0.92-1.374-2.207-1.374-3.949
					c0-1.74,0.451-3.027,1.374-3.939c0.934-0.914,2.146-1.352,3.715-1.352c0.981,0,1.914,0.191,2.774,0.609
					c0.778,0.365,1.484,0.854,2.102,1.436v6.49C-145.694-211.879-146.4-211.395-147.179-211.029"/>
				<path fill="#33B9D7" d="M-133.392-225.598c-0.703,0-1.324,0.254-1.809,0.725c-0.497,0.486-0.757,1.098-0.757,1.777v14.813
					c0,0.688,0.263,1.299,0.765,1.773c0.486,0.455,1.105,0.691,1.801,0.691c0.684,0,1.311-0.227,1.806-0.68
					c0.517-0.479,0.793-1.09,0.793-1.785v-14.813c0-0.709-0.266-1.328-0.767-1.801
					C-132.039-225.359-132.679-225.598-133.392-225.598"/>
				<path fill="#33B9D7" d="M-116.98-221.008c0.762,0,1.391,0.074,1.877,0.225c0.523,0.156,1.174,0.416,1.928,0.783
					c0.393,0.197,0.801,0.307,1.216,0.307c0.609,0,1.171-0.254,1.625-0.717c0.443-0.455,0.682-0.994,0.682-1.578
					c0-0.572-0.203-1.396-1.182-1.99c-0.856-0.516-1.799-0.947-2.805-1.273c-1.026-0.346-2.25-0.516-3.632-0.516
					c-1.896,0-3.674,0.402-5.279,1.193c-1.638,0.816-2.96,1.996-3.936,3.506c-0.984,1.525-1.484,3.328-1.484,5.361
					c0,2.035,0.5,3.842,1.484,5.367c0.976,1.518,2.298,2.693,3.936,3.5c1.605,0.795,3.383,1.203,5.279,1.203
					c1.382,0,2.605-0.172,3.632-0.516c1.006-0.33,1.948-0.756,2.813-1.279c0.971-0.59,1.174-1.406,1.174-1.984
					c0-0.586-0.238-1.133-0.688-1.598c-0.448-0.461-1.01-0.701-1.619-0.701c-0.415,0-0.823,0.098-1.216,0.307
					c-0.75,0.367-1.404,0.629-1.928,0.785c-0.486,0.145-1.115,0.215-1.877,0.215c-1.873,0-3.286-0.477-4.316-1.451
					c-1.021-0.967-1.51-2.229-1.51-3.848c0-1.623,0.489-2.871,1.51-3.842C-120.267-220.539-118.854-221.008-116.98-221.008"/>
				<path fill="#33B9D7" d="M-104.747-225.598c-0.702,0-1.324,0.254-1.812,0.725c-0.493,0.486-0.746,1.098-0.746,1.777v14.813
					c0,0.688,0.256,1.299,0.761,1.773c0.487,0.455,1.107,0.691,1.797,0.691c0.687,0,1.308-0.227,1.807-0.68
					c0.516-0.479,0.793-1.09,0.793-1.785v-14.813c0-0.709-0.263-1.328-0.766-1.801C-103.391-225.359-104.03-225.598-104.747-225.598
					"/>
				<path fill="#33B9D7" d="M-83.159-224.738c-1.126-0.688-2.456-1.029-3.968-1.029c-1.607,0-3.035,0.328-4.243,0.969
					c-0.593,0.313-1.17,0.695-1.723,1.121c-0.114-0.455-0.352-0.859-0.715-1.203c-0.497-0.463-1.124-0.717-1.82-0.717
					c-0.691,0-1.325,0.254-1.806,0.732c-0.49,0.479-0.752,1.09-0.752,1.77v14.82c0,0.68,0.267,1.299,0.761,1.766
					c0.487,0.465,1.11,0.691,1.797,0.691c0.688,0,1.309-0.227,1.807-0.68c0.528-0.471,0.794-1.09,0.794-1.777v-10.027
					c0.728-0.814,1.495-1.479,2.298-1.979c0.829-0.516,1.744-0.756,2.798-0.756c2.179,0,3.116,0.977,3.116,3.287v9.475
					c0,0.68,0.264,1.299,0.764,1.766c0.485,0.455,1.104,0.691,1.8,0.691c0.679,0,1.306-0.227,1.801-0.68
					c0.52-0.471,0.794-1.09,0.794-1.777v-9.816c0-1.377-0.295-2.668-0.879-3.828C-81.147-223.102-82.021-224.051-83.159-224.738"/>
				<path fill="#33B9D7" d="M-59.998-221.813c-0.632-1.184-1.616-2.15-2.928-2.873c-1.294-0.719-2.88-1.082-4.709-1.082
					c-2.261,0-4.503,0.439-6.68,1.305c-0.984,0.398-1.533,1.166-1.533,2.17c0,0.611,0.246,1.164,0.7,1.59
					c0.431,0.406,0.976,0.629,1.574,0.629c0.2,0,0.419-0.027,0.69-0.096l0.058-0.023c0.846-0.262,1.624-0.465,2.303-0.59
					c0.66-0.121,1.432-0.188,2.296-0.188c1.459,0,2.511,0.264,3.134,0.777c0.469,0.406,0.746,1.057,0.836,1.951h-3.491
					c-2.938,0-5.233,0.566-6.811,1.689c-1.676,1.189-2.527,2.805-2.527,4.816c0,1.225,0.325,2.32,0.964,3.258
					c0.627,0.936,1.493,1.652,2.563,2.139c1.027,0.465,2.156,0.697,3.361,0.697c2.345,0,4.402-0.584,6.129-1.748
					c0.129,0.324,0.329,0.625,0.604,0.881c0.483,0.465,1.107,0.691,1.797,0.691c0.687,0,1.313-0.227,1.808-0.68
					c0.52-0.479,0.792-1.09,0.792-1.777v-9.779C-59.068-219.4-59.378-220.664-59.998-221.813 M-66.247-210.879
					c-0.872,0.428-1.786,0.643-2.712,0.643c-1.443,0-2.101-0.289-2.394-0.535c-0.395-0.336-0.571-0.748-0.571-1.311
					c0-0.395,0.104-0.844,0.87-1.223c0.792-0.393,2.051-0.584,3.748-0.584h3.07v1.615C-64.79-211.736-65.468-211.266-66.247-210.879
					"/>
			</g>
			<g>
				<linearGradient id="SVGID_5_" gradientUnits="userSpaceOnUse" x1="-286.4014" y1="-260.3125" x2="-263.2178" y2="-260.3125">
					<stop  offset="0" style="stop-color:#F58131"/>
					<stop  offset="1" style="stop-color:#F05123"/>
				</linearGradient>
				<path fill="url(#SVGID_5_)" d="M-283.951-268.604h6.559v18.879c0,0.689,0.271,1.303,0.763,1.771
					c0.485,0.457,1.107,0.693,1.803,0.693c0.687,0,1.312-0.229,1.801-0.686c0.525-0.473,0.8-1.082,0.8-1.779v-18.879h6.526
					c0.653,0,1.254-0.223,1.724-0.652c0.499-0.447,0.759-1.037,0.759-1.711c0-0.666-0.254-1.252-0.748-1.719
					c-0.47-0.449-1.074-0.68-1.734-0.68h-18.251c-0.669,0-1.276,0.238-1.74,0.693c-0.461,0.465-0.71,1.045-0.71,1.705
					c0,0.666,0.251,1.248,0.726,1.697C-285.22-268.832-284.62-268.604-283.951-268.604"/>
				<linearGradient id="SVGID_6_" gradientUnits="userSpaceOnUse" x1="-265.1611" y1="-257.1543" x2="-245.8535" y2="-257.1543">
					<stop  offset="0" style="stop-color:#F58131"/>
					<stop  offset="1" style="stop-color:#F05123"/>
				</linearGradient>
				<path fill="url(#SVGID_6_)" d="M-250.327-265.896c-1.459-0.873-3.194-1.324-5.156-1.324c-2.102,0-3.91,0.479-5.372,1.43
					c-1.462,0.941-2.557,2.205-3.266,3.729c-0.686,1.504-1.04,3.148-1.04,4.912c0,3.148,0.942,5.637,2.796,7.418
					c1.839,1.756,4.401,2.645,7.613,2.645c1.553,0,2.812-0.133,3.83-0.4c0.99-0.277,1.998-0.689,3.017-1.227
					c1.178-0.645,1.43-1.48,1.43-2.078c0-0.658-0.26-1.236-0.753-1.66c-0.463-0.398-1.021-0.607-1.624-0.607
					c-0.385,0-0.735,0.078-1.054,0.225c-0.668,0.324-1.372,0.568-2.074,0.732c-0.695,0.172-1.532,0.254-2.481,0.254
					c-1.697,0-3.016-0.381-3.916-1.133c-0.663-0.555-1.12-1.26-1.376-2.148h11.304c0.759,0,1.387-0.236,1.867-0.709
					c0.479-0.473,0.729-1.078,0.729-1.756c0-1.707-0.38-3.307-1.127-4.756C-247.742-263.824-248.864-265.016-250.327-265.896
					 M-251.121-259.521h-8.693c0.123-0.529,0.329-0.992,0.606-1.381c0.441-0.627,0.981-1.078,1.634-1.369
					c1.375-0.611,2.803-0.611,4.174,0c0.659,0.291,1.203,0.742,1.66,1.379C-251.457-260.506-251.25-260.043-251.121-259.521"/>
				<linearGradient id="SVGID_7_" gradientUnits="userSpaceOnUse" x1="-243.2891" y1="-257.2363" x2="-230.5771" y2="-257.2363">
					<stop  offset="0" style="stop-color:#F58131"/>
					<stop  offset="1" style="stop-color:#F05123"/>
				</linearGradient>
				<path fill="url(#SVGID_7_)" d="M-233.181-262.352c0.718,0,1.324-0.219,1.817-0.637c0.508-0.459,0.786-1.053,0.786-1.766
					c0-0.678-0.255-1.285-0.733-1.758c-0.479-0.461-1.092-0.701-1.793-0.701h-0.185c-1.78,0-3.437,0.658-4.939,1.967
					c-0.119-0.404-0.352-0.777-0.681-1.084c-0.492-0.471-1.127-0.717-1.817-0.717c-0.699,0-1.32,0.254-1.811,0.73
					c-0.489,0.477-0.753,1.094-0.753,1.781v14.811c0,0.689,0.266,1.303,0.771,1.771c0.483,0.457,1.105,0.693,1.793,0.693
					c0.69,0,1.311-0.236,1.805-0.678c0.522-0.471,0.799-1.09,0.799-1.787v-10.205c0.549-0.719,1.213-1.295,1.982-1.719
					c0.835-0.463,1.767-0.703,2.781-0.703H-233.181z"/>
				<linearGradient id="SVGID_8_" gradientUnits="userSpaceOnUse" x1="-230.4648" y1="-257.1543" x2="-212.4463" y2="-257.1543">
					<stop  offset="0" style="stop-color:#F58131"/>
					<stop  offset="1" style="stop-color:#F05123"/>
				</linearGradient>
				<path fill="url(#SVGID_8_)" d="M-212.446-249.725v-9.771c0-1.346-0.315-2.615-0.933-3.77c-0.634-1.174-1.616-2.145-2.927-2.871
					c-1.295-0.719-2.879-1.084-4.711-1.084c-2.257,0-4.498,0.451-6.674,1.309c-0.986,0.398-1.526,1.158-1.526,2.172
					c0,0.617,0.234,1.16,0.687,1.588c0.435,0.412,0.985,0.637,1.578,0.637c0.199,0,0.427-0.037,0.686-0.096l0.07-0.023
					c0.837-0.264,1.612-0.465,2.294-0.594c0.658-0.123,1.432-0.193,2.303-0.193c1.45,0,2.506,0.27,3.125,0.787
					c0.471,0.395,0.748,1.045,0.841,1.941h-3.493c-2.941,0-5.227,0.576-6.812,1.697c-1.675,1.182-2.526,2.803-2.526,4.818
					c0,1.219,0.32,2.309,0.963,3.258c0.628,0.928,1.494,1.65,2.562,2.139c1.028,0.465,2.155,0.693,3.36,0.693
					c2.349,0,4.403-0.59,6.138-1.75c0.128,0.33,0.329,0.623,0.603,0.885c0.482,0.457,1.101,0.693,1.797,0.693
					c0.681,0,1.309-0.229,1.802-0.678C-212.72-248.418-212.446-249.027-212.446-249.725 M-219.627-252.328
					c-0.869,0.436-1.777,0.65-2.711,0.65c-1.443,0-2.103-0.291-2.396-0.545c-0.392-0.328-0.567-0.74-0.567-1.299
					c0-0.4,0.101-0.852,0.867-1.229c0.792-0.389,2.057-0.59,3.747-0.59h3.079v1.621
					C-218.167-253.178-218.848-252.709-219.627-252.328"/>
			</g>
			<g>
				<linearGradient id="SVGID_9_" gradientUnits="userSpaceOnUse" x1="-136.25" y1="-229.9346" x2="-130.4658" y2="-229.9346">
					<stop  offset="0" style="stop-color:#F58131"/>
					<stop  offset="1" style="stop-color:#F05123"/>
				</linearGradient>
				<path fill="url(#SVGID_9_)" d="M-131.298-231.908c-0.532-0.508-1.205-0.77-1.942-0.77h-0.222c-0.747,0-1.417,0.262-1.948,0.77
					c-0.547,0.516-0.84,1.174-0.84,1.906v0.135c0,0.74,0.293,1.396,0.84,1.912c0.531,0.5,1.201,0.764,1.948,0.764h0.222
					c0.737,0,1.41-0.264,1.942-0.764c0.55-0.516,0.832-1.172,0.832-1.912v-0.135C-130.466-230.734-130.748-231.393-131.298-231.908"
					/>
				<linearGradient id="SVGID_10_" gradientUnits="userSpaceOnUse" x1="-107.5967" y1="-229.9346" x2="-101.8135" y2="-229.9346">
					<stop  offset="0" style="stop-color:#F58131"/>
					<stop  offset="1" style="stop-color:#F05123"/>
				</linearGradient>
				<path fill="url(#SVGID_10_)" d="M-102.655-231.908c-0.53-0.508-1.199-0.77-1.944-0.77h-0.217c-0.748,0-1.419,0.262-1.947,0.77
					c-0.553,0.516-0.833,1.174-0.833,1.906v0.135c0,0.74,0.28,1.396,0.833,1.912c0.528,0.5,1.199,0.764,1.947,0.764h0.217
					c0.745,0,1.414-0.264,1.944-0.764c0.55-0.516,0.842-1.172,0.842-1.912v-0.135C-101.813-230.734-102.105-231.393-102.655-231.908
					"/>
			</g>
		</g>
	</g>
	<g>
		<g>
			<g>
				<path opacity="0.6" fill="#FFFFFF" d="M165.988-225.303v174.455c-33.998,0-61.57-27.58-61.57-61.584v-92.857
					c0-16.721-13.539-30.27-30.258-30.27H42.865c-17.012,0-30.785-13.781-30.785-30.797c0-16.992,13.773-30.779,30.785-30.779
					h51.299C133.85-297.135,165.988-264.975,165.988-225.303"/>
				<g opacity="0.4">
					<defs>
						<path id="SVGID_11_" opacity="0.4" d="M165.988-297.135L165.988-297.135c0,33.99,27.559,61.561,61.563,61.561
							c17.006,0,30.775-13.783,30.775-30.799c0-17.01-13.77-30.762-30.775-30.762H165.988z"/>
					</defs>
					<linearGradient id="SVGID_12_" gradientUnits="userSpaceOnUse" x1="165.9883" y1="-266.3545" x2="258.3262" y2="-266.3545">
						<stop  offset="0" style="stop-color:#F58131"/>
						<stop  offset="1" style="stop-color:#F05123"/>
					</linearGradient>
					<use xlink:href="#SVGID_11_"  overflow="visible" fill="url(#SVGID_12_)"/>
					<clipPath id="SVGID_13_">
						<use xlink:href="#SVGID_11_"  overflow="visible"/>
					</clipPath>
					<linearGradient id="SVGID_14_" gradientUnits="userSpaceOnUse" x1="135.3125" y1="-266.3516" x2="289.0195" y2="-266.3516">
						<stop  offset="0" style="stop-color:#F58131"/>
						<stop  offset="1" style="stop-color:#F05123"/>
					</linearGradient>
					<polygon clip-path="url(#SVGID_13_)" fill="url(#SVGID_14_)" points="135.313,-268.85 208.398,-189.559 289.02,-263.84 
						215.912,-343.145 					"/>
				</g>
			</g>
			<linearGradient id="SVGID_15_" gradientUnits="userSpaceOnUse" x1="15.3691" y1="-179.208" x2="169.2773" y2="-179.208">
				<stop  offset="0" style="stop-color:#F58131"/>
				<stop  offset="1" style="stop-color:#F05123"/>
			</linearGradient>
			<path fill="url(#SVGID_15_)" d="M169.277-230.52v174.455c-33.998,0-61.57-27.582-61.57-61.584v-92.857
				c0-16.723-13.539-30.27-30.258-30.27H46.154c-17.012,0-30.785-13.781-30.785-30.799c0-16.99,13.773-30.777,30.785-30.777h51.299
				C137.139-302.352,169.277-270.193,169.277-230.52"/>
			<g>
				<defs>
					<path id="SVGID_16_" d="M169.295-302.336L169.295-302.336c0,33.99,27.559,61.561,61.561,61.561
						c17.008,0,30.777-13.781,30.777-30.799c0-17.008-13.77-30.762-30.777-30.762H169.295z"/>
				</defs>
				<clipPath id="SVGID_17_">
					<use xlink:href="#SVGID_16_"  overflow="visible"/>
				</clipPath>
				<linearGradient id="SVGID_18_" gradientUnits="userSpaceOnUse" x1="138.4404" y1="-271.5518" x2="292.5029" y2="-271.5518">
					<stop  offset="0" style="stop-color:#F58131"/>
					<stop  offset="1" style="stop-color:#F05123"/>
				</linearGradient>
				
					<polygon clip-path="url(#SVGID_17_)" fill="#FFFFFF" stroke="url(#SVGID_18_)" stroke-width="0.25" stroke-miterlimit="10" points="
					138.617,-274.053 211.703,-194.758 292.326,-269.041 219.219,-348.346 				"/>
				<linearGradient id="SVGID_19_" gradientUnits="userSpaceOnUse" x1="169.1699" y1="-271.5557" x2="261.7578" y2="-271.5557">
					<stop  offset="0" style="stop-color:#F58131"/>
					<stop  offset="1" style="stop-color:#F05123"/>
				</linearGradient>
				
					<use xlink:href="#SVGID_16_"  overflow="visible" fill="none" stroke="url(#SVGID_19_)" stroke-width="0.25" stroke-miterlimit="10"/>
			</g>
		</g>
	</g>
	<g>
		<g>
			<g>
				<path opacity="0.6" fill="#FFFFFF" d="M472.421-229.803v174.455c-33.998,0-61.57-27.58-61.57-61.584v-92.857
					c0-16.721-13.539-30.27-30.258-30.27h-31.295c-17.012,0-30.785-13.781-30.785-30.797c0-16.992,13.773-30.779,30.785-30.779
					h51.299C440.282-301.635,472.421-269.475,472.421-229.803"/>
				<g opacity="0.4">
					<defs>
						<path id="SVGID_20_" opacity="0.4" d="M472.421-301.635L472.421-301.635c0,33.99,27.559,61.561,61.563,61.561
							c17.006,0,30.775-13.783,30.775-30.799c0-17.01-13.77-30.762-30.775-30.762H472.421z"/>
					</defs>
					<linearGradient id="SVGID_21_" gradientUnits="userSpaceOnUse" x1="472.4209" y1="-270.8545" x2="564.7588" y2="-270.8545">
						<stop  offset="0" style="stop-color:#F58131"/>
						<stop  offset="1" style="stop-color:#F05123"/>
					</linearGradient>
					<use xlink:href="#SVGID_20_"  overflow="visible" fill="url(#SVGID_21_)"/>
					<clipPath id="SVGID_22_">
						<use xlink:href="#SVGID_20_"  overflow="visible"/>
					</clipPath>
					<linearGradient id="SVGID_23_" gradientUnits="userSpaceOnUse" x1="441.7451" y1="-270.8516" x2="595.4521" y2="-270.8516">
						<stop  offset="0" style="stop-color:#F58131"/>
						<stop  offset="1" style="stop-color:#F05123"/>
					</linearGradient>
					<polygon clip-path="url(#SVGID_22_)" fill="url(#SVGID_23_)" points="441.745,-273.35 514.831,-194.059 595.452,-268.34 
						522.345,-347.645 					"/>
				</g>
			</g>
			<path fill="#F36C21" d="M475.71-235.02v174.455c-33.998,0-61.57-27.582-61.57-61.584v-92.857c0-16.723-13.539-30.27-30.258-30.27
				h-31.295c-17.012,0-30.785-13.781-30.785-30.799c0-16.99,13.773-30.777,30.785-30.777h51.299
				C443.571-306.852,475.71-274.693,475.71-235.02"/>
			<g>
				<defs>
					<path id="SVGID_24_" d="M475.728-306.836L475.728-306.836c0,33.99,27.559,61.561,61.561,61.561
						c17.008,0,30.777-13.781,30.777-30.799c0-17.008-13.77-30.762-30.777-30.762H475.728z"/>
				</defs>
				<clipPath id="SVGID_25_">
					<use xlink:href="#SVGID_24_"  overflow="visible"/>
				</clipPath>
				<linearGradient id="SVGID_26_" gradientUnits="userSpaceOnUse" x1="444.873" y1="-276.0518" x2="598.9355" y2="-276.0518">
					<stop  offset="0" style="stop-color:#F58131"/>
					<stop  offset="1" style="stop-color:#F05123"/>
				</linearGradient>
				
					<polygon clip-path="url(#SVGID_25_)" fill="#FFFFFF" stroke="url(#SVGID_26_)" stroke-width="0.25" stroke-miterlimit="10" points="
					445.05,-278.553 518.136,-199.258 598.759,-273.541 525.651,-352.846 				"/>
				<linearGradient id="SVGID_27_" gradientUnits="userSpaceOnUse" x1="475.6025" y1="-276.0557" x2="568.1904" y2="-276.0557">
					<stop  offset="0" style="stop-color:#F58131"/>
					<stop  offset="1" style="stop-color:#F05123"/>
				</linearGradient>
				
					<use xlink:href="#SVGID_24_"  overflow="visible" fill="none" stroke="url(#SVGID_27_)" stroke-width="0.25" stroke-miterlimit="10"/>
			</g>
		</g>
	</g>
	<rect x="-391.315" y="-144.137" fill="#282323" width="340.494" height="117.273"/>
	<g>
		<g>
			<path fill="#FFFFFF" d="M-331.654-102.643v58.275c-11.356,0-20.571-9.215-20.571-20.57v-31.021
				c0-5.582-4.521-10.105-10.107-10.105h-10.45c-5.682,0-10.285-4.604-10.285-10.287c0-5.674,4.604-10.281,10.285-10.281h17.134
				C-342.391-126.633-331.654-115.889-331.654-102.643"/>
			<g>
				<defs>
					<path id="SVGID_28_" d="M-331.649-126.623L-331.649-126.623c0,11.348,9.206,20.559,20.562,20.559
						c5.683,0,10.281-4.604,10.281-10.287c0-5.682-4.599-10.271-10.281-10.271H-331.649z"/>
				</defs>
				<clipPath id="SVGID_29_">
					<use xlink:href="#SVGID_28_"  overflow="visible"/>
				</clipPath>
				
					<linearGradient id="SVGID_30_" gradientUnits="userSpaceOnUse" x1="-654.0112" y1="-317.3105" x2="-650.1848" y2="-317.3105" gradientTransform="matrix(9.4911 10.2971 -10.2971 9.4911 2605.4482 9609.9043)">
					<stop  offset="0" style="stop-color:#6CCDE5"/>
					<stop  offset="1" style="stop-color:#10B0D0"/>
				</linearGradient>
				<polygon clip-path="url(#SVGID_29_)" fill="url(#SVGID_30_)" points="-341.896,-117.184 -317.485,-90.693 -290.557,-115.506 
					-314.976,-141.998 				"/>
			</g>
		</g>
		<g id="text_2_">
			<path fill="#FFFFFF" d="M-263.216-75.521c0-0.66-0.26-1.25-0.749-1.713c-0.469-0.441-1.075-0.68-1.738-0.68h-18.243
				c-0.677,0-1.279,0.238-1.743,0.693c-0.463,0.453-0.71,1.047-0.71,1.699c0,0.67,0.251,1.252,0.724,1.703
				c0.455,0.441,1.053,0.662,1.729,0.662h6.553v18.881c0,0.682,0.273,1.301,0.764,1.766c0.485,0.461,1.109,0.691,1.803,0.691
				c0.685,0,1.313-0.23,1.803-0.68c0.524-0.469,0.794-1.088,0.794-1.777v-18.881h6.527c0.654,0,1.257-0.221,1.729-0.648
				C-263.476-74.252-263.216-74.842-263.216-75.521"/>
			<path fill="#FFFFFF" d="M-246.584-60.4c0.477-0.463,0.728-1.074,0.728-1.754c0-1.703-0.372-3.307-1.123-4.746
				c-0.762-1.475-1.89-2.67-3.346-3.547c-1.456-0.885-3.19-1.32-5.162-1.32c-2.098,0-3.91,0.477-5.366,1.416
				c-1.461,0.949-2.557,2.205-3.269,3.74c-0.688,1.494-1.04,3.139-1.04,4.902c0,3.152,0.95,5.646,2.8,7.42
				c1.835,1.756,4.396,2.645,7.612,2.645c1.552,0,2.813-0.125,3.826-0.404c0.993-0.275,2.003-0.678,3.018-1.227
				c1.184-0.641,1.426-1.477,1.426-2.074c0-0.658-0.252-1.236-0.746-1.658c-0.463-0.402-1.027-0.609-1.625-0.609
				c-0.382,0-0.732,0.082-1.053,0.229c-0.668,0.318-1.375,0.568-2.076,0.729c-0.694,0.17-1.531,0.252-2.479,0.252
				c-1.699,0-3.021-0.381-3.919-1.135c-0.667-0.553-1.113-1.256-1.374-2.146h11.305C-247.689-59.689-247.062-59.928-246.584-60.4
				 M-259.813-64.07c0.117-0.537,0.33-1.002,0.603-1.391c0.442-0.627,0.98-1.076,1.644-1.367c1.365-0.607,2.791-0.607,4.169,0
				c0.659,0.291,1.201,0.744,1.66,1.375c0.281,0.391,0.486,0.854,0.615,1.383H-259.813z"/>
			<path fill="#FFFFFF" d="M-240.725-79.193c-0.702,0-1.321,0.246-1.807,0.723c-0.5,0.477-0.755,1.102-0.755,1.773v22.422
				c0,0.682,0.269,1.301,0.763,1.766c0.485,0.461,1.105,0.691,1.799,0.691c0.685,0,1.309-0.23,1.807-0.68
				c0.521-0.469,0.794-1.088,0.794-1.777v-22.422c0-0.701-0.265-1.322-0.767-1.803C-239.368-78.955-240.01-79.193-240.725-79.193"/>
			<path fill="#FFFFFF" d="M-216.729-60.4c0.477-0.463,0.729-1.074,0.729-1.754c0-1.703-0.378-3.307-1.123-4.746
				c-0.758-1.475-1.886-2.67-3.351-3.547c-1.452-0.885-3.186-1.32-5.157-1.32c-2.099,0-3.906,0.477-5.366,1.416
				c-1.465,0.949-2.558,2.205-3.265,3.74c-0.688,1.494-1.04,3.139-1.04,4.902c0,3.152,0.945,5.646,2.787,7.42
				c1.848,1.756,4.404,2.645,7.62,2.645c1.557,0,2.813-0.125,3.827-0.404c0.988-0.275,2.003-0.678,3.013-1.227
				c1.183-0.641,1.438-1.477,1.438-2.074c0-0.658-0.265-1.236-0.759-1.658c-0.464-0.402-1.022-0.609-1.629-0.609
				c-0.373,0-0.729,0.082-1.045,0.229c-0.672,0.318-1.374,0.568-2.076,0.729c-0.689,0.17-1.53,0.252-2.483,0.252
				c-1.699,0-3.017-0.381-3.918-1.135c-0.659-0.553-1.115-1.256-1.375-2.146h11.305C-217.84-59.689-217.211-59.928-216.729-60.4
				 M-229.963-64.07c0.126-0.537,0.326-1.002,0.611-1.391c0.438-0.627,0.979-1.076,1.639-1.367c1.365-0.607,2.795-0.607,4.165,0
				c0.663,0.291,1.209,0.744,1.665,1.375c0.285,0.391,0.485,0.854,0.615,1.383H-229.963z"/>
			<path fill="#FFFFFF" d="M-186.662-70.633c-1.063-0.754-2.394-1.135-3.944-1.135c-2.774,0-4.998,0.939-6.641,2.809
				c-0.45-0.6-0.996-1.137-1.664-1.609c-1.127-0.793-2.492-1.199-4.048-1.199c-1.699,0-3.126,0.35-4.23,1.035
				c-0.43,0.254-0.824,0.555-1.205,0.865c-0.122-0.371-0.348-0.715-0.664-1.014c-0.489-0.473-1.117-0.719-1.807-0.719
				c-0.706,0-1.336,0.256-1.813,0.729c-0.494,0.484-0.754,1.096-0.754,1.777v14.811c0,0.689,0.26,1.301,0.768,1.773
				c0.485,0.453,1.101,0.691,1.799,0.691c0.681,0,1.309-0.23,1.799-0.68c0.524-0.477,0.793-1.088,0.793-1.785v-10.086
				c0.537-0.795,1.148-1.443,1.815-1.934c0.664-0.502,1.5-0.74,2.549-0.74c1.066,0,1.808,0.238,2.176,0.709
				c0.425,0.529,0.643,1.471,0.643,2.727v9.324c0,0.689,0.268,1.301,0.771,1.773c0.481,0.449,1.106,0.691,1.795,0.691
				s1.31-0.23,1.808-0.68c0.521-0.477,0.793-1.088,0.793-1.785v-10.086c0.537-0.795,1.148-1.443,1.816-1.934
				c0.658-0.502,1.491-0.74,2.548-0.74c1.071,0,1.8,0.238,2.181,0.709c0.412,0.529,0.642,1.471,0.642,2.727v9.324
				c0,0.689,0.256,1.301,0.763,1.773c0.477,0.453,1.104,0.691,1.803,0.691c0.681,0,1.306-0.23,1.799-0.68
				c0.516-0.477,0.798-1.088,0.798-1.785v-9.943c0-1.227-0.251-2.424-0.736-3.545C-184.82-68.93-185.614-69.893-186.662-70.633"/>
			<path fill="#FFFFFF" d="M-162.368-60.4c0.477-0.463,0.732-1.074,0.732-1.754c0-1.703-0.377-3.307-1.128-4.746
				c-0.758-1.475-1.885-2.67-3.35-3.547c-1.448-0.885-3.186-1.32-5.158-1.32c-2.098,0-3.904,0.477-5.366,1.416
				c-1.46,0.949-2.553,2.205-3.263,3.74c-0.689,1.494-1.041,3.139-1.041,4.902c0,3.152,0.945,5.646,2.797,7.42
				c1.837,1.756,4.394,2.645,7.61,2.645c1.556,0,2.817-0.125,3.827-0.404c0.988-0.275,2.006-0.678,3.021-1.227
				c1.18-0.641,1.431-1.477,1.431-2.074c0-0.658-0.265-1.236-0.759-1.658c-0.463-0.402-1.019-0.609-1.62-0.609
				c-0.382,0-0.733,0.082-1.054,0.229c-0.672,0.318-1.375,0.568-2.076,0.729c-0.689,0.17-1.529,0.252-2.479,0.252
				c-1.703,0-3.017-0.381-3.923-1.135c-0.658-0.553-1.113-1.256-1.369-2.146h11.3C-163.478-59.689-162.85-59.928-162.368-60.4
				 M-175.602-64.07c0.126-0.537,0.33-1.002,0.612-1.391c0.441-0.627,0.979-1.076,1.638-1.367c1.365-0.607,2.796-0.607,4.165,0
				c0.667,0.291,1.209,0.744,1.665,1.375c0.286,0.391,0.485,0.854,0.619,1.383H-175.602z"/>
			<path fill="#FFFFFF" d="M-142.47-79.193c-0.702,0-1.309,0.229-1.813,0.686c-0.52,0.473-0.793,1.1-0.793,1.811v6.541
				c-1.595-1.074-3.39-1.623-5.348-1.623c-1.664,0-3.256,0.414-4.737,1.205c-1.496,0.799-2.723,1.982-3.646,3.508
				c-0.928,1.531-1.399,3.334-1.399,5.357c0,2.027,0.472,3.832,1.399,5.361c0.923,1.525,2.149,2.713,3.646,3.516
				c1.481,0.793,3.073,1.188,4.737,1.188c2.033,0,3.879-0.576,5.521-1.727c0.134,0.322,0.343,0.623,0.619,0.873
				c0.504,0.459,1.11,0.68,1.813,0.68c0.686,0,1.31-0.23,1.79-0.691c0.498-0.473,0.768-1.084,0.768-1.766v-22.422
				c0-0.672-0.261-1.297-0.755-1.781C-141.152-78.947-141.78-79.193-142.47-79.193 M-147.177-57.027
				c-0.863,0.412-1.786,0.619-2.773,0.619c-1.569,0-2.787-0.438-3.715-1.352c-0.924-0.918-1.378-2.207-1.378-3.949
				s0.454-3.025,1.378-3.939c0.928-0.91,2.146-1.352,3.715-1.352c0.979,0,1.91,0.195,2.773,0.615
				c0.775,0.363,1.482,0.85,2.102,1.434v6.488C-145.694-57.877-146.401-57.393-147.177-57.027"/>
			<path fill="#FFFFFF" d="M-131.296-77.91c-0.533-0.508-1.205-0.768-1.945-0.768h-0.222c-0.741,0-1.417,0.26-1.946,0.768
				c-0.546,0.516-0.837,1.176-0.837,1.908v0.133c0,0.742,0.291,1.4,0.837,1.916c0.529,0.498,1.205,0.764,1.946,0.764h0.222
				c0.74,0,1.412-0.266,1.945-0.764c0.547-0.516,0.833-1.174,0.833-1.916v-0.133C-130.463-76.734-130.749-77.395-131.296-77.91"/>
			<path fill="#FFFFFF" d="M-133.39-71.6c-0.706,0-1.326,0.256-1.812,0.729c-0.498,0.484-0.754,1.096-0.754,1.777v14.811
				c0,0.689,0.26,1.301,0.764,1.773c0.484,0.453,1.104,0.691,1.802,0.691c0.681,0,1.306-0.23,1.804-0.68
				c0.516-0.477,0.793-1.088,0.793-1.785v-14.811c0-0.711-0.264-1.33-0.768-1.803C-132.036-71.361-132.679-71.6-133.39-71.6"/>
			<path fill="#FFFFFF" d="M-116.979-67.01c0.764,0,1.392,0.076,1.877,0.227c0.524,0.154,1.174,0.42,1.929,0.783
				c0.39,0.195,0.798,0.309,1.214,0.309c0.611,0,1.17-0.256,1.625-0.721c0.446-0.455,0.681-0.992,0.681-1.576
				c0-0.572-0.199-1.396-1.179-1.986c-0.859-0.516-1.799-0.947-2.805-1.277c-1.027-0.348-2.25-0.516-3.633-0.516
				c-1.897,0-3.67,0.402-5.278,1.193c-1.639,0.816-2.961,1.996-3.936,3.508c-0.984,1.521-1.486,3.324-1.486,5.357
				c0,2.037,0.502,3.844,1.486,5.371c0.975,1.516,2.297,2.691,3.936,3.498c1.608,0.791,3.381,1.205,5.278,1.205
				c1.383,0,2.605-0.176,3.633-0.518c1.006-0.328,1.945-0.754,2.81-1.277c0.975-0.59,1.174-1.406,1.174-1.988
				s-0.234-1.129-0.685-1.594c-0.451-0.461-1.01-0.705-1.621-0.705c-0.416,0-0.824,0.1-1.214,0.307
				c-0.749,0.369-1.404,0.629-1.929,0.787c-0.485,0.143-1.113,0.215-1.877,0.215c-1.872,0-3.285-0.477-4.313-1.447
				c-1.023-0.977-1.513-2.229-1.513-3.854c0-1.621,0.489-2.869,1.513-3.84C-120.265-66.537-118.852-67.01-116.979-67.01"/>
			<path fill="#FFFFFF" d="M-102.654-77.91c-0.533-0.508-1.2-0.768-1.946-0.768h-0.217c-0.745,0-1.418,0.26-1.945,0.768
				c-0.551,0.516-0.833,1.176-0.833,1.908v0.133c0,0.742,0.282,1.4,0.833,1.916c0.527,0.498,1.2,0.764,1.945,0.764h0.217
				c0.746,0,1.413-0.266,1.946-0.764c0.551-0.516,0.84-1.174,0.84-1.916v-0.133C-101.814-76.734-102.104-77.395-102.654-77.91"/>
			<path fill="#FFFFFF" d="M-104.748-71.6c-0.697,0-1.322,0.256-1.812,0.729c-0.49,0.484-0.745,1.096-0.745,1.777v14.811
				c0,0.689,0.255,1.301,0.762,1.773c0.485,0.453,1.106,0.691,1.795,0.691s1.313-0.23,1.808-0.68
				c0.516-0.477,0.793-1.088,0.793-1.785v-14.811c0-0.711-0.26-1.33-0.768-1.803C-103.392-71.361-104.032-71.6-104.748-71.6"/>
			<path fill="#FFFFFF" d="M-83.159-70.738c-1.126-0.689-2.457-1.029-3.965-1.029c-1.608,0-3.039,0.328-4.244,0.971
				c-0.594,0.311-1.17,0.691-1.726,1.121c-0.111-0.459-0.35-0.861-0.714-1.205c-0.495-0.463-1.123-0.719-1.82-0.719
				c-0.689,0-1.322,0.256-1.804,0.732c-0.489,0.48-0.754,1.092-0.754,1.773v14.818c0,0.682,0.269,1.301,0.759,1.766
				c0.489,0.461,1.113,0.691,1.799,0.691c0.688,0,1.309-0.23,1.807-0.68c0.524-0.469,0.798-1.088,0.798-1.777v-10.025
				c0.724-0.816,1.495-1.482,2.292-1.98c0.833-0.516,1.747-0.758,2.801-0.758c2.181,0,3.116,0.979,3.116,3.289v9.475
				c0,0.682,0.265,1.301,0.764,1.766c0.485,0.453,1.104,0.691,1.798,0.691c0.682,0,1.31-0.23,1.803-0.68
				c0.521-0.469,0.794-1.088,0.794-1.777v-9.816c0-1.375-0.295-2.67-0.88-3.828C-81.147-69.102-82.019-70.053-83.159-70.738"/>
			<path fill="#FFFFFF" d="M-60-67.816c-0.629-1.18-1.612-2.146-2.926-2.867c-1.292-0.721-2.878-1.084-4.711-1.084
				c-2.255,0-4.5,0.436-6.676,1.303c-0.988,0.4-1.534,1.172-1.534,2.172c0,0.611,0.247,1.166,0.698,1.59
				c0.434,0.404,0.979,0.631,1.578,0.631c0.199,0,0.416-0.031,0.688-0.096l0.057-0.025c0.845-0.262,1.625-0.465,2.306-0.59
				c0.654-0.117,1.431-0.188,2.293-0.188c1.461,0,2.514,0.26,3.134,0.777c0.472,0.406,0.745,1.055,0.836,1.953h-3.488
				c-2.939,0-5.237,0.566-6.814,1.688c-1.673,1.189-2.526,2.803-2.526,4.813c0,1.227,0.325,2.322,0.967,3.26
				c0.628,0.938,1.49,1.656,2.557,2.143c1.032,0.465,2.158,0.693,3.363,0.693c2.345,0,4.404-0.58,6.129-1.748
				c0.131,0.326,0.33,0.625,0.606,0.883c0.481,0.461,1.106,0.691,1.795,0.691s1.317-0.23,1.808-0.68
				c0.52-0.477,0.793-1.088,0.793-1.777v-9.779C-59.068-65.402-59.376-66.662-60-67.816 M-66.245-56.877
				c-0.877,0.426-1.787,0.643-2.714,0.643c-1.443,0-2.103-0.291-2.394-0.539c-0.394-0.336-0.571-0.748-0.571-1.307
				c0-0.396,0.104-0.846,0.871-1.229c0.793-0.389,2.05-0.578,3.745-0.578h3.073v1.611C-64.785-57.74-65.466-57.268-66.245-56.877"/>
			<path fill="#FFFFFF" d="M-283.946-114.605h6.553v18.881c0,0.689,0.273,1.301,0.764,1.771c0.485,0.455,1.109,0.693,1.803,0.693
				c0.689,0,1.313-0.229,1.803-0.688c0.524-0.467,0.798-1.084,0.798-1.777v-18.881h6.523c0.654,0,1.257-0.221,1.729-0.648
				c0.498-0.447,0.758-1.037,0.758-1.713c0-0.664-0.26-1.254-0.749-1.717c-0.469-0.449-1.075-0.68-1.738-0.68h-18.243
				c-0.677,0-1.279,0.238-1.743,0.691c-0.463,0.465-0.71,1.051-0.71,1.705c0,0.666,0.251,1.248,0.724,1.699
				C-285.221-114.836-284.623-114.605-283.946-114.605"/>
			<path fill="#FFFFFF" d="M-250.325-111.896c-1.461-0.875-3.194-1.322-5.162-1.322c-2.094,0-3.905,0.477-5.366,1.426
				c-1.465,0.941-2.557,2.207-3.269,3.732c-0.685,1.5-1.04,3.146-1.04,4.912c0,3.146,0.945,5.639,2.8,7.416
				c1.839,1.758,4.4,2.648,7.612,2.648c1.552,0,2.808-0.135,3.831-0.404c0.988-0.277,1.998-0.688,3.017-1.227
				c1.174-0.645,1.427-1.482,1.427-2.08c0-0.658-0.257-1.23-0.751-1.66c-0.463-0.395-1.022-0.604-1.625-0.604
				c-0.382,0-0.737,0.074-1.058,0.221c-0.663,0.322-1.365,0.568-2.071,0.732c-0.694,0.176-1.531,0.256-2.479,0.256
				c-1.699,0-3.017-0.381-3.919-1.135c-0.663-0.555-1.117-1.256-1.374-2.146h11.305c0.759,0,1.387-0.238,1.868-0.711
				c0.477-0.473,0.729-1.072,0.729-1.754c0-1.707-0.382-3.307-1.128-4.758C-247.737-109.826-248.864-111.016-250.325-111.896
				 M-251.118-105.52h-8.695c0.121-0.529,0.33-0.992,0.603-1.383c0.447-0.629,0.984-1.074,1.639-1.371
				c1.374-0.611,2.801-0.611,4.174,0c0.659,0.297,1.201,0.742,1.66,1.379C-251.457-106.504-251.248-106.045-251.118-105.52"/>
			<path fill="#FFFFFF" d="M-233.179-108.354c0.716,0,1.322-0.217,1.816-0.635c0.507-0.453,0.784-1.053,0.784-1.764
				c0-0.682-0.255-1.287-0.732-1.76c-0.477-0.465-1.092-0.701-1.79-0.701h-0.187c-1.781,0-3.437,0.658-4.937,1.967
				c-0.121-0.404-0.355-0.775-0.68-1.084c-0.495-0.473-1.132-0.719-1.821-0.719c-0.698,0-1.321,0.256-1.812,0.732
				c-0.489,0.48-0.75,1.092-0.75,1.781v14.811c0,0.689,0.265,1.301,0.768,1.771c0.485,0.455,1.109,0.693,1.794,0.693
				c0.689,0,1.309-0.238,1.803-0.678c0.525-0.473,0.803-1.094,0.803-1.787v-10.207c0.546-0.715,1.209-1.291,1.984-1.717
				c0.832-0.463,1.764-0.705,2.774-0.705H-233.179z"/>
			<path fill="#FFFFFF" d="M-212.447-95.725v-9.773c0-1.344-0.313-2.613-0.932-3.768c-0.628-1.176-1.617-2.146-2.926-2.869
				c-1.292-0.721-2.878-1.084-4.712-1.084c-2.258,0-4.498,0.447-6.67,1.305c-0.989,0.4-1.531,1.162-1.531,2.172
				c0,0.619,0.234,1.166,0.69,1.59c0.433,0.414,0.983,0.639,1.577,0.639c0.195,0,0.425-0.039,0.685-0.1l0.069-0.021
				c0.837-0.262,1.617-0.465,2.293-0.59c0.659-0.129,1.436-0.195,2.306-0.195c1.448,0,2.506,0.268,3.126,0.785
				c0.468,0.395,0.745,1.049,0.841,1.945h-3.498c-2.934,0-5.223,0.572-6.809,1.695c-1.674,1.182-2.527,2.805-2.527,4.814
				c0,1.217,0.32,2.311,0.967,3.26c0.623,0.928,1.495,1.652,2.557,2.137c1.027,0.465,2.159,0.699,3.364,0.699
				c2.344,0,4.402-0.59,6.137-1.752c0.126,0.33,0.329,0.619,0.603,0.883c0.481,0.455,1.101,0.693,1.799,0.693
				c0.681,0,1.305-0.229,1.798-0.678C-212.721-94.414-212.447-95.031-212.447-95.725 M-219.625-98.326
				c-0.872,0.434-1.777,0.652-2.714,0.652c-1.443,0-2.102-0.297-2.392-0.549c-0.395-0.326-0.568-0.74-0.568-1.299
				c0-0.398,0.096-0.855,0.866-1.227c0.794-0.391,2.055-0.594,3.745-0.594h3.082v1.625
				C-218.164-99.18-218.845-98.707-219.625-98.326"/>
			<path fill="#FFFFFF" d="M-131.296-77.91c-0.533-0.508-1.205-0.768-1.945-0.768h-0.222c-0.741,0-1.417,0.26-1.946,0.768
				c-0.546,0.516-0.837,1.176-0.837,1.908v0.133c0,0.742,0.291,1.4,0.837,1.916c0.529,0.498,1.205,0.764,1.946,0.764h0.222
				c0.74,0,1.412-0.266,1.945-0.764c0.547-0.516,0.833-1.174,0.833-1.916v-0.133C-130.463-76.734-130.749-77.395-131.296-77.91"/>
			<path fill="#FFFFFF" d="M-102.654-77.91c-0.533-0.508-1.2-0.768-1.946-0.768h-0.217c-0.745,0-1.418,0.26-1.945,0.768
				c-0.551,0.516-0.833,1.176-0.833,1.908v0.133c0,0.742,0.282,1.4,0.833,1.916c0.527,0.498,1.2,0.764,1.945,0.764h0.217
				c0.746,0,1.413-0.266,1.946-0.764c0.551-0.516,0.84-1.174,0.84-1.916v-0.133C-101.814-76.734-102.104-77.395-102.654-77.91"/>
		</g>
	</g>
	<rect x="-391.315" y="11.863" fill="#282323" width="340.494" height="117.273"/>
	<g>
		<g>
			<path fill="#FFFFFF" d="M-331.654,53.357v58.275c-11.356,0-20.571-9.215-20.571-20.57V60.041c0-5.582-4.521-10.105-10.107-10.105
				h-10.45c-5.682,0-10.285-4.604-10.285-10.287c0-5.674,4.604-10.281,10.285-10.281h17.134
				C-342.391,29.367-331.654,40.111-331.654,53.357"/>
			<g>
				<defs>
					<path id="SVGID_31_" d="M-331.649,29.377L-331.649,29.377c0,11.348,9.206,20.559,20.562,20.559
						c5.683,0,10.281-4.604,10.281-10.287c0-5.682-4.599-10.271-10.281-10.271H-331.649z"/>
				</defs>
				<clipPath id="SVGID_32_">
					<use xlink:href="#SVGID_31_"  overflow="visible"/>
				</clipPath>
				
					<linearGradient id="SVGID_33_" gradientUnits="userSpaceOnUse" x1="-645.8203" y1="-309.7598" x2="-641.9939" y2="-309.7598" gradientTransform="matrix(9.4911 10.2971 -10.2971 9.4911 2605.4482 9609.9043)">
					<stop  offset="0" style="stop-color:#F58131"/>
					<stop  offset="1" style="stop-color:#F05123"/>
				</linearGradient>
				<polygon clip-path="url(#SVGID_32_)" fill="url(#SVGID_33_)" points="-341.896,38.816 -317.485,65.307 -290.557,40.494 
					-314.976,14.002 				"/>
			</g>
		</g>
		<g id="text_1_">
			<path fill="#FFFFFF" d="M-263.216,80.479c0-0.66-0.26-1.25-0.749-1.713c-0.469-0.441-1.075-0.68-1.738-0.68h-18.243
				c-0.677,0-1.279,0.238-1.743,0.693c-0.463,0.453-0.71,1.047-0.71,1.699c0,0.67,0.251,1.252,0.724,1.703
				c0.455,0.441,1.053,0.662,1.729,0.662h6.553v18.881c0,0.682,0.273,1.301,0.764,1.766c0.485,0.461,1.109,0.691,1.803,0.691
				c0.685,0,1.313-0.23,1.803-0.68c0.524-0.469,0.794-1.088,0.794-1.777V82.844h6.527c0.654,0,1.257-0.221,1.729-0.648
				C-263.476,81.748-263.216,81.158-263.216,80.479"/>
			<path fill="#FFFFFF" d="M-246.584,95.6c0.477-0.463,0.728-1.074,0.728-1.754c0-1.703-0.372-3.307-1.123-4.746
				c-0.762-1.475-1.89-2.67-3.346-3.547c-1.456-0.885-3.19-1.32-5.162-1.32c-2.098,0-3.91,0.477-5.366,1.416
				c-1.461,0.949-2.557,2.205-3.269,3.74c-0.688,1.494-1.04,3.139-1.04,4.902c0,3.152,0.95,5.646,2.8,7.42
				c1.835,1.756,4.396,2.645,7.612,2.645c1.552,0,2.813-0.125,3.826-0.404c0.993-0.275,2.003-0.678,3.018-1.227
				c1.184-0.641,1.426-1.477,1.426-2.074c0-0.658-0.252-1.236-0.746-1.658c-0.463-0.402-1.027-0.609-1.625-0.609
				c-0.382,0-0.732,0.082-1.053,0.229c-0.668,0.318-1.375,0.568-2.076,0.729c-0.694,0.17-1.531,0.252-2.479,0.252
				c-1.699,0-3.021-0.381-3.919-1.135c-0.667-0.553-1.113-1.256-1.374-2.146h11.305C-247.689,96.311-247.062,96.072-246.584,95.6
				 M-259.813,91.93c0.117-0.537,0.33-1.002,0.603-1.391c0.442-0.627,0.98-1.076,1.644-1.367c1.365-0.607,2.791-0.607,4.169,0
				c0.659,0.291,1.201,0.744,1.66,1.375c0.281,0.391,0.486,0.854,0.615,1.383H-259.813z"/>
			<path fill="#FFFFFF" d="M-240.725,76.807c-0.702,0-1.321,0.246-1.807,0.723c-0.5,0.477-0.755,1.102-0.755,1.773v22.422
				c0,0.682,0.269,1.301,0.763,1.766c0.485,0.461,1.105,0.691,1.799,0.691c0.685,0,1.309-0.23,1.807-0.68
				c0.521-0.469,0.794-1.088,0.794-1.777V79.303c0-0.701-0.265-1.322-0.767-1.803C-239.368,77.045-240.01,76.807-240.725,76.807"/>
			<path fill="#FFFFFF" d="M-216.729,95.6c0.477-0.463,0.729-1.074,0.729-1.754c0-1.703-0.378-3.307-1.123-4.746
				c-0.758-1.475-1.886-2.67-3.351-3.547c-1.452-0.885-3.186-1.32-5.157-1.32c-2.099,0-3.906,0.477-5.366,1.416
				c-1.465,0.949-2.558,2.205-3.265,3.74c-0.688,1.494-1.04,3.139-1.04,4.902c0,3.152,0.945,5.646,2.787,7.42
				c1.848,1.756,4.404,2.645,7.62,2.645c1.557,0,2.813-0.125,3.827-0.404c0.988-0.275,2.003-0.678,3.013-1.227
				c1.183-0.641,1.438-1.477,1.438-2.074c0-0.658-0.265-1.236-0.759-1.658c-0.464-0.402-1.022-0.609-1.629-0.609
				c-0.373,0-0.729,0.082-1.045,0.229c-0.672,0.318-1.374,0.568-2.076,0.729c-0.689,0.17-1.53,0.252-2.483,0.252
				c-1.699,0-3.017-0.381-3.918-1.135c-0.659-0.553-1.115-1.256-1.375-2.146h11.305C-217.84,96.311-217.211,96.072-216.729,95.6
				 M-229.963,91.93c0.126-0.537,0.326-1.002,0.611-1.391c0.438-0.627,0.979-1.076,1.639-1.367c1.365-0.607,2.795-0.607,4.165,0
				c0.663,0.291,1.209,0.744,1.665,1.375c0.285,0.391,0.485,0.854,0.615,1.383H-229.963z"/>
			<path fill="#FFFFFF" d="M-186.662,85.367c-1.063-0.754-2.394-1.135-3.944-1.135c-2.774,0-4.998,0.939-6.641,2.809
				c-0.45-0.6-0.996-1.137-1.664-1.609c-1.127-0.793-2.492-1.199-4.048-1.199c-1.699,0-3.126,0.35-4.23,1.035
				c-0.43,0.254-0.824,0.555-1.205,0.865c-0.122-0.371-0.348-0.715-0.664-1.014c-0.489-0.473-1.117-0.719-1.807-0.719
				c-0.706,0-1.336,0.256-1.813,0.729c-0.494,0.484-0.754,1.096-0.754,1.777v14.811c0,0.689,0.26,1.301,0.768,1.773
				c0.485,0.453,1.101,0.691,1.799,0.691c0.681,0,1.309-0.23,1.799-0.68c0.524-0.477,0.793-1.088,0.793-1.785V91.631
				c0.537-0.795,1.148-1.443,1.815-1.934c0.664-0.502,1.5-0.74,2.549-0.74c1.066,0,1.808,0.238,2.176,0.709
				c0.425,0.529,0.643,1.471,0.643,2.727v9.324c0,0.689,0.268,1.301,0.771,1.773c0.481,0.449,1.106,0.691,1.795,0.691
				s1.31-0.23,1.808-0.68c0.521-0.477,0.793-1.088,0.793-1.785V91.631c0.537-0.795,1.148-1.443,1.816-1.934
				c0.658-0.502,1.491-0.74,2.548-0.74c1.071,0,1.8,0.238,2.181,0.709c0.412,0.529,0.642,1.471,0.642,2.727v9.324
				c0,0.689,0.256,1.301,0.763,1.773c0.477,0.453,1.104,0.691,1.803,0.691c0.681,0,1.306-0.23,1.799-0.68
				c0.516-0.477,0.798-1.088,0.798-1.785v-9.943c0-1.227-0.251-2.424-0.736-3.545C-184.82,87.07-185.614,86.107-186.662,85.367"/>
			<path fill="#FFFFFF" d="M-162.368,95.6c0.477-0.463,0.732-1.074,0.732-1.754c0-1.703-0.377-3.307-1.128-4.746
				c-0.758-1.475-1.885-2.67-3.35-3.547c-1.448-0.885-3.186-1.32-5.158-1.32c-2.098,0-3.904,0.477-5.366,1.416
				c-1.46,0.949-2.553,2.205-3.263,3.74c-0.689,1.494-1.041,3.139-1.041,4.902c0,3.152,0.945,5.646,2.797,7.42
				c1.837,1.756,4.394,2.645,7.61,2.645c1.556,0,2.817-0.125,3.827-0.404c0.988-0.275,2.006-0.678,3.021-1.227
				c1.18-0.641,1.431-1.477,1.431-2.074c0-0.658-0.265-1.236-0.759-1.658c-0.463-0.402-1.019-0.609-1.62-0.609
				c-0.382,0-0.733,0.082-1.054,0.229c-0.672,0.318-1.375,0.568-2.076,0.729c-0.689,0.17-1.529,0.252-2.479,0.252
				c-1.703,0-3.017-0.381-3.923-1.135c-0.658-0.553-1.113-1.256-1.369-2.146h11.3C-163.478,96.311-162.85,96.072-162.368,95.6
				 M-175.602,91.93c0.126-0.537,0.33-1.002,0.612-1.391c0.441-0.627,0.979-1.076,1.638-1.367c1.365-0.607,2.796-0.607,4.165,0
				c0.667,0.291,1.209,0.744,1.665,1.375c0.286,0.391,0.485,0.854,0.619,1.383H-175.602z"/>
			<path fill="#FFFFFF" d="M-142.47,76.807c-0.702,0-1.309,0.229-1.813,0.686c-0.52,0.473-0.793,1.1-0.793,1.811v6.541
				c-1.595-1.074-3.39-1.623-5.348-1.623c-1.664,0-3.256,0.414-4.737,1.205c-1.496,0.799-2.723,1.982-3.646,3.508
				c-0.928,1.531-1.399,3.334-1.399,5.357c0,2.027,0.472,3.832,1.399,5.361c0.923,1.525,2.149,2.713,3.646,3.516
				c1.481,0.793,3.073,1.188,4.737,1.188c2.033,0,3.879-0.576,5.521-1.727c0.134,0.322,0.343,0.623,0.619,0.873
				c0.504,0.459,1.11,0.68,1.813,0.68c0.686,0,1.31-0.23,1.79-0.691c0.498-0.473,0.768-1.084,0.768-1.766V79.303
				c0-0.672-0.261-1.297-0.755-1.781C-141.152,77.053-141.78,76.807-142.47,76.807 M-147.177,98.973
				c-0.863,0.412-1.786,0.619-2.773,0.619c-1.569,0-2.787-0.438-3.715-1.352c-0.924-0.918-1.378-2.207-1.378-3.949
				s0.454-3.025,1.378-3.939c0.928-0.91,2.146-1.352,3.715-1.352c0.979,0,1.91,0.195,2.773,0.615
				c0.775,0.363,1.482,0.85,2.102,1.434v6.488C-145.694,98.123-146.401,98.607-147.177,98.973"/>
			<path fill="#FFFFFF" d="M-131.296,78.09c-0.533-0.508-1.205-0.768-1.945-0.768h-0.222c-0.741,0-1.417,0.26-1.946,0.768
				c-0.546,0.516-0.837,1.176-0.837,1.908v0.133c0,0.742,0.291,1.4,0.837,1.916c0.529,0.498,1.205,0.764,1.946,0.764h0.222
				c0.74,0,1.412-0.266,1.945-0.764c0.547-0.516,0.833-1.174,0.833-1.916v-0.133C-130.463,79.266-130.749,78.605-131.296,78.09"/>
			<path fill="#FFFFFF" d="M-133.39,84.4c-0.706,0-1.326,0.256-1.812,0.729c-0.498,0.484-0.754,1.096-0.754,1.777v14.811
				c0,0.689,0.26,1.301,0.764,1.773c0.484,0.453,1.104,0.691,1.802,0.691c0.681,0,1.306-0.23,1.804-0.68
				c0.516-0.477,0.793-1.088,0.793-1.785V86.906c0-0.711-0.264-1.33-0.768-1.803C-132.036,84.639-132.679,84.4-133.39,84.4"/>
			<path fill="#FFFFFF" d="M-116.979,88.99c0.764,0,1.392,0.076,1.877,0.227c0.524,0.154,1.174,0.42,1.929,0.783
				c0.39,0.195,0.798,0.309,1.214,0.309c0.611,0,1.17-0.256,1.625-0.721c0.446-0.455,0.681-0.992,0.681-1.576
				c0-0.572-0.199-1.396-1.179-1.986c-0.859-0.516-1.799-0.947-2.805-1.277c-1.027-0.348-2.25-0.516-3.633-0.516
				c-1.897,0-3.67,0.402-5.278,1.193c-1.639,0.816-2.961,1.996-3.936,3.508c-0.984,1.521-1.486,3.324-1.486,5.357
				c0,2.037,0.502,3.844,1.486,5.371c0.975,1.516,2.297,2.691,3.936,3.498c1.608,0.791,3.381,1.205,5.278,1.205
				c1.383,0,2.605-0.176,3.633-0.518c1.006-0.328,1.945-0.754,2.81-1.277c0.975-0.59,1.174-1.406,1.174-1.988
				s-0.234-1.129-0.685-1.594c-0.451-0.461-1.01-0.705-1.621-0.705c-0.416,0-0.824,0.1-1.214,0.307
				c-0.749,0.369-1.404,0.629-1.929,0.787c-0.485,0.143-1.113,0.215-1.877,0.215c-1.872,0-3.285-0.477-4.313-1.447
				c-1.023-0.977-1.513-2.229-1.513-3.854c0-1.621,0.489-2.869,1.513-3.84C-120.265,89.463-118.852,88.99-116.979,88.99"/>
			<path fill="#FFFFFF" d="M-102.654,78.09c-0.533-0.508-1.2-0.768-1.946-0.768h-0.217c-0.745,0-1.418,0.26-1.945,0.768
				c-0.551,0.516-0.833,1.176-0.833,1.908v0.133c0,0.742,0.282,1.4,0.833,1.916c0.527,0.498,1.2,0.764,1.945,0.764h0.217
				c0.746,0,1.413-0.266,1.946-0.764c0.551-0.516,0.84-1.174,0.84-1.916v-0.133C-101.814,79.266-102.104,78.605-102.654,78.09"/>
			<path fill="#FFFFFF" d="M-104.748,84.4c-0.697,0-1.322,0.256-1.812,0.729c-0.49,0.484-0.745,1.096-0.745,1.777v14.811
				c0,0.689,0.255,1.301,0.762,1.773c0.485,0.453,1.106,0.691,1.795,0.691s1.313-0.23,1.808-0.68
				c0.516-0.477,0.793-1.088,0.793-1.785V86.906c0-0.711-0.26-1.33-0.768-1.803C-103.392,84.639-104.032,84.4-104.748,84.4"/>
			<path fill="#FFFFFF" d="M-83.159,85.262c-1.126-0.689-2.457-1.029-3.965-1.029c-1.608,0-3.039,0.328-4.244,0.971
				c-0.594,0.311-1.17,0.691-1.726,1.121c-0.111-0.459-0.35-0.861-0.714-1.205c-0.495-0.463-1.123-0.719-1.82-0.719
				c-0.689,0-1.322,0.256-1.804,0.732c-0.489,0.48-0.754,1.092-0.754,1.773v14.818c0,0.682,0.269,1.301,0.759,1.766
				c0.489,0.461,1.113,0.691,1.799,0.691c0.688,0,1.309-0.23,1.807-0.68c0.524-0.469,0.798-1.088,0.798-1.777V91.699
				c0.724-0.816,1.495-1.482,2.292-1.98c0.833-0.516,1.747-0.758,2.801-0.758c2.181,0,3.116,0.979,3.116,3.289v9.475
				c0,0.682,0.265,1.301,0.764,1.766c0.485,0.453,1.104,0.691,1.798,0.691c0.682,0,1.31-0.23,1.803-0.68
				c0.521-0.469,0.794-1.088,0.794-1.777v-9.816c0-1.375-0.295-2.67-0.88-3.828C-81.147,86.898-82.019,85.947-83.159,85.262"/>
			<path fill="#FFFFFF" d="M-60,88.184c-0.629-1.18-1.612-2.146-2.926-2.867c-1.292-0.721-2.878-1.084-4.711-1.084
				c-2.255,0-4.5,0.436-6.676,1.303c-0.988,0.4-1.534,1.172-1.534,2.172c0,0.611,0.247,1.166,0.698,1.59
				c0.434,0.404,0.979,0.631,1.578,0.631c0.199,0,0.416-0.031,0.688-0.096l0.057-0.025c0.845-0.262,1.625-0.465,2.306-0.59
				c0.654-0.117,1.431-0.188,2.293-0.188c1.461,0,2.514,0.26,3.134,0.777c0.472,0.406,0.745,1.055,0.836,1.953h-3.488
				c-2.939,0-5.237,0.566-6.814,1.688c-1.673,1.189-2.526,2.803-2.526,4.813c0,1.227,0.325,2.322,0.967,3.26
				c0.628,0.938,1.49,1.656,2.557,2.143c1.032,0.465,2.158,0.693,3.363,0.693c2.345,0,4.404-0.58,6.129-1.748
				c0.131,0.326,0.33,0.625,0.606,0.883c0.481,0.461,1.106,0.691,1.795,0.691s1.317-0.23,1.808-0.68
				c0.52-0.477,0.793-1.088,0.793-1.777v-9.779C-59.068,90.598-59.376,89.338-60,88.184 M-66.245,99.123
				c-0.877,0.426-1.787,0.643-2.714,0.643c-1.443,0-2.103-0.291-2.394-0.539c-0.394-0.336-0.571-0.748-0.571-1.307
				c0-0.396,0.104-0.846,0.871-1.229c0.793-0.389,2.05-0.578,3.745-0.578h3.073v1.611C-64.785,98.26-65.466,98.732-66.245,99.123"/>
			<path fill="#FFFFFF" d="M-283.946,41.395h6.553v18.881c0,0.689,0.273,1.301,0.764,1.771c0.485,0.455,1.109,0.693,1.803,0.693
				c0.689,0,1.313-0.229,1.803-0.688c0.524-0.467,0.798-1.084,0.798-1.777V41.395h6.523c0.654,0,1.257-0.221,1.729-0.648
				c0.498-0.447,0.758-1.037,0.758-1.713c0-0.664-0.26-1.254-0.749-1.717c-0.469-0.449-1.075-0.68-1.738-0.68h-18.243
				c-0.677,0-1.279,0.238-1.743,0.691c-0.463,0.465-0.71,1.051-0.71,1.705c0,0.666,0.251,1.248,0.724,1.699
				C-285.221,41.164-284.623,41.395-283.946,41.395"/>
			<path fill="#FFFFFF" d="M-250.325,44.104c-1.461-0.875-3.194-1.322-5.162-1.322c-2.094,0-3.905,0.477-5.366,1.426
				c-1.465,0.941-2.557,2.207-3.269,3.732c-0.685,1.5-1.04,3.146-1.04,4.912c0,3.146,0.945,5.639,2.8,7.416
				c1.839,1.758,4.4,2.648,7.612,2.648c1.552,0,2.808-0.135,3.831-0.404c0.988-0.277,1.998-0.688,3.017-1.227
				c1.174-0.645,1.427-1.482,1.427-2.08c0-0.658-0.257-1.23-0.751-1.66c-0.463-0.395-1.022-0.604-1.625-0.604
				c-0.382,0-0.737,0.074-1.058,0.221c-0.663,0.322-1.365,0.568-2.071,0.732c-0.694,0.176-1.531,0.256-2.479,0.256
				c-1.699,0-3.017-0.381-3.919-1.135c-0.663-0.555-1.117-1.256-1.374-2.146h11.305c0.759,0,1.387-0.238,1.868-0.711
				c0.477-0.473,0.729-1.072,0.729-1.754c0-1.707-0.382-3.307-1.128-4.758C-247.737,46.174-248.864,44.984-250.325,44.104
				 M-251.118,50.48h-8.695c0.121-0.529,0.33-0.992,0.603-1.383c0.447-0.629,0.984-1.074,1.639-1.371
				c1.374-0.611,2.801-0.611,4.174,0c0.659,0.297,1.201,0.742,1.66,1.379C-251.457,49.496-251.248,49.955-251.118,50.48"/>
			<path fill="#FFFFFF" d="M-233.179,47.646c0.716,0,1.322-0.217,1.816-0.635c0.507-0.453,0.784-1.053,0.784-1.764
				c0-0.682-0.255-1.287-0.732-1.76c-0.477-0.465-1.092-0.701-1.79-0.701h-0.187c-1.781,0-3.437,0.658-4.937,1.967
				c-0.121-0.404-0.355-0.775-0.68-1.084c-0.495-0.473-1.132-0.719-1.821-0.719c-0.698,0-1.321,0.256-1.812,0.732
				c-0.489,0.48-0.75,1.092-0.75,1.781v14.811c0,0.689,0.265,1.301,0.768,1.771c0.485,0.455,1.109,0.693,1.794,0.693
				c0.689,0,1.309-0.238,1.803-0.678c0.525-0.473,0.803-1.094,0.803-1.787V50.068c0.546-0.715,1.209-1.291,1.984-1.717
				c0.832-0.463,1.764-0.705,2.774-0.705H-233.179z"/>
			<path fill="#FFFFFF" d="M-212.447,60.275v-9.773c0-1.344-0.313-2.613-0.932-3.768c-0.628-1.176-1.617-2.146-2.926-2.869
				c-1.292-0.721-2.878-1.084-4.712-1.084c-2.258,0-4.498,0.447-6.67,1.305c-0.989,0.4-1.531,1.162-1.531,2.172
				c0,0.619,0.234,1.166,0.69,1.59c0.433,0.414,0.983,0.639,1.577,0.639c0.195,0,0.425-0.039,0.685-0.1l0.069-0.021
				c0.837-0.262,1.617-0.465,2.293-0.59c0.659-0.129,1.436-0.195,2.306-0.195c1.448,0,2.506,0.268,3.126,0.785
				c0.468,0.395,0.745,1.049,0.841,1.945h-3.498c-2.934,0-5.223,0.572-6.809,1.695c-1.674,1.182-2.527,2.805-2.527,4.814
				c0,1.217,0.32,2.311,0.967,3.26c0.623,0.928,1.495,1.652,2.557,2.137c1.027,0.465,2.159,0.699,3.364,0.699
				c2.344,0,4.402-0.59,6.137-1.752c0.126,0.33,0.329,0.619,0.603,0.883c0.481,0.455,1.101,0.693,1.799,0.693
				c0.681,0,1.305-0.229,1.798-0.678C-212.721,61.586-212.447,60.969-212.447,60.275 M-219.625,57.674
				c-0.872,0.434-1.777,0.652-2.714,0.652c-1.443,0-2.102-0.297-2.392-0.549c-0.395-0.326-0.568-0.74-0.568-1.299
				c0-0.398,0.096-0.855,0.866-1.227c0.794-0.391,2.055-0.594,3.745-0.594h3.082v1.625
				C-218.164,56.82-218.845,57.293-219.625,57.674"/>
			<path fill="#FFFFFF" d="M-131.296,78.09c-0.533-0.508-1.205-0.768-1.945-0.768h-0.222c-0.741,0-1.417,0.26-1.946,0.768
				c-0.546,0.516-0.837,1.176-0.837,1.908v0.133c0,0.742,0.291,1.4,0.837,1.916c0.529,0.498,1.205,0.764,1.946,0.764h0.222
				c0.74,0,1.412-0.266,1.945-0.764c0.547-0.516,0.833-1.174,0.833-1.916v-0.133C-130.463,79.266-130.749,78.605-131.296,78.09"/>
			<path fill="#FFFFFF" d="M-102.654,78.09c-0.533-0.508-1.2-0.768-1.946-0.768h-0.217c-0.745,0-1.418,0.26-1.945,0.768
				c-0.551,0.516-0.833,1.176-0.833,1.908v0.133c0,0.742,0.282,1.4,0.833,1.916c0.527,0.498,1.2,0.764,1.945,0.764h0.217
				c0.746,0,1.413-0.266,1.946-0.764c0.551-0.516,0.84-1.174,0.84-1.916v-0.133C-101.814,79.266-102.104,78.605-102.654,78.09"/>
		</g>
	</g>
	<g>
		<g>
			<g>
				<g>
					<path opacity="0.4" fill="#FFFFFF" d="M182.283,97.049v174.455c-34,0-61.57-27.58-61.57-61.584v-92.857
						c0-16.721-13.539-30.27-30.26-30.27H59.16c-17.012,0-30.785-13.781-30.785-30.797c0-16.992,13.773-30.779,30.785-30.779h51.299
						C150.145,25.217,182.283,57.377,182.283,97.049"/>
					<g opacity="0.4">
						<defs>
							<path id="SVGID_34_" opacity="0.4" d="M182.283,25.217L182.283,25.217c0,33.99,27.559,61.561,61.561,61.561
								c17.008,0,30.777-13.783,30.777-30.799c0-17.01-13.77-30.762-30.777-30.762H182.283z"/>
						</defs>
						<use xlink:href="#SVGID_34_"  overflow="visible" fill="#FFFFFF"/>
						<clipPath id="SVGID_35_">
							<use xlink:href="#SVGID_34_"  overflow="visible"/>
						</clipPath>
						<polygon clip-path="url(#SVGID_35_)" fill="#FFFFFF" points="151.605,53.502 224.693,132.793 305.314,58.512 232.205,-20.794 
													"/>
					</g>
				</g>
				<linearGradient id="SVGID_36_" gradientUnits="userSpaceOnUse" x1="31.6641" y1="143.1436" x2="185.5723" y2="143.1436">
					<stop  offset="0" style="stop-color:#F58131"/>
					<stop  offset="1" style="stop-color:#F05123"/>
				</linearGradient>
				<path fill="url(#SVGID_36_)" d="M185.572,91.832v174.455c-34,0-61.57-27.582-61.57-61.584v-92.857
					c0-16.723-13.539-30.27-30.26-30.27H62.447c-17.012,0-30.783-13.781-30.783-30.799C31.664,33.787,45.436,20,62.447,20h51.299
					C153.434,20,185.572,52.158,185.572,91.832"/>
				<g>
					<defs>
						<path id="SVGID_37_" d="M185.588,20.016L185.588,20.016c0,33.99,27.559,61.561,61.563,61.561
							c17.006,0,30.775-13.781,30.775-30.799c0-17.008-13.77-30.762-30.775-30.762H185.588z"/>
					</defs>
					<clipPath id="SVGID_38_">
						<use xlink:href="#SVGID_37_"  overflow="visible"/>
					</clipPath>
					<linearGradient id="SVGID_39_" gradientUnits="userSpaceOnUse" x1="154.7354" y1="50.7988" x2="308.7959" y2="50.7988">
						<stop  offset="0" style="stop-color:#F58131"/>
						<stop  offset="1" style="stop-color:#F05123"/>
					</linearGradient>
					
						<polygon clip-path="url(#SVGID_38_)" fill="#FFFFFF" stroke="url(#SVGID_39_)" stroke-width="0.25" stroke-miterlimit="10" points="
						154.912,48.299 227.998,127.594 308.619,53.311 235.512,-25.995 					"/>
					<linearGradient id="SVGID_40_" gradientUnits="userSpaceOnUse" x1="185.4629" y1="50.7959" x2="278.0508" y2="50.7959">
						<stop  offset="0" style="stop-color:#F58131"/>
						<stop  offset="1" style="stop-color:#F05123"/>
					</linearGradient>
					
						<use xlink:href="#SVGID_37_"  overflow="visible" fill="none" stroke="url(#SVGID_40_)" stroke-width="0.25" stroke-miterlimit="10"/>
				</g>
			</g>
		</g>
		<g id="text_3_">
			<path fill="#FFFFFF" d="M374.008,172.404c0-2.295-0.902-4.346-2.604-5.953c-1.629-1.535-3.738-2.363-6.043-2.363h-63.418
				c-2.352,0-4.447,0.828-6.059,2.41c-1.609,1.574-2.469,3.639-2.469,5.906c0,2.33,0.873,4.354,2.516,5.922
				c1.582,1.533,3.66,2.301,6.012,2.301h22.779v65.635c0,2.369,0.951,4.521,2.654,6.137c1.688,1.604,3.857,2.404,6.268,2.404
				c2.379,0,4.566-0.801,6.266-2.363c1.824-1.629,2.762-3.781,2.762-6.178v-65.635h22.689c2.275,0,4.369-0.768,6.012-2.254
				C373.105,176.818,374.008,174.768,374.008,172.404"/>
			<path fill="#FFFFFF" d="M431.824,224.969c1.656-1.609,2.529-3.734,2.529-6.096c0-5.922-1.293-11.496-3.904-16.5
				c-2.648-5.125-6.568-9.281-11.631-12.328c-5.061-3.076-11.09-4.59-17.943-4.59c-7.293,0-13.594,1.656-18.654,4.922
				c-5.08,3.299-8.889,7.666-11.363,13.002c-2.393,5.193-3.615,10.91-3.615,17.041c0,10.959,3.303,19.629,9.732,25.793
				c6.379,6.105,15.281,9.193,26.463,9.193c5.395,0,9.777-0.434,13.301-1.404c3.451-0.957,6.963-2.357,10.49-4.264
				c4.113-2.229,4.955-5.133,4.955-7.211c0-2.289-0.875-4.299-2.594-5.764c-1.609-1.4-3.57-2.119-5.648-2.119
				c-1.328,0-2.545,0.285-3.66,0.795c-2.32,1.105-4.779,1.975-7.217,2.531c-2.414,0.592-5.322,0.877-8.619,0.877
				c-5.906,0-10.504-1.324-13.623-3.945c-2.318-1.922-3.869-4.365-4.777-7.461h39.299
				C427.98,227.441,430.164,226.613,431.824,224.969 M385.836,212.211c0.406-1.867,1.146-3.482,2.094-4.834
				c1.539-2.18,3.408-3.74,5.713-4.752c4.746-2.111,9.703-2.111,14.492,0c2.293,1.012,4.176,2.586,5.771,4.779
				c0.979,1.359,1.691,2.967,2.139,4.807H385.836z"/>
			<path fill="#FFFFFF" d="M452.193,159.641c-2.441,0-4.594,0.855-6.281,2.512c-1.738,1.656-2.623,3.83-2.623,6.166v77.943
				c0,2.369,0.934,4.521,2.65,6.137c1.688,1.604,3.844,2.404,6.254,2.404c2.379,0,4.549-0.801,6.279-2.363
				c1.813-1.629,2.76-3.781,2.76-6.178v-77.943c0-2.438-0.92-4.598-2.664-6.268C456.908,160.469,454.678,159.641,452.193,159.641"/>
			<path fill="#FFFFFF" d="M535.605,224.969c1.656-1.609,2.533-3.734,2.533-6.096c0-5.922-1.314-11.496-3.904-16.5
				c-2.635-5.125-6.557-9.281-11.648-12.328c-5.047-3.076-11.072-4.59-17.928-4.59c-7.295,0-13.578,1.656-18.654,4.922
				c-5.092,3.299-8.891,7.666-11.348,13.002c-2.395,5.193-3.615,10.91-3.615,17.041c0,10.959,3.285,19.629,9.688,25.793
				c6.424,6.105,15.311,9.193,26.49,9.193c5.41,0,9.777-0.434,13.305-1.404c3.434-0.957,6.961-2.357,10.473-4.264
				c4.109-2.229,5-5.133,5-7.211c0-2.289-0.92-4.299-2.639-5.764c-1.611-1.4-3.553-2.119-5.662-2.119
				c-1.297,0-2.531,0.285-3.633,0.795c-2.334,1.105-4.775,1.975-7.217,2.531c-2.396,0.592-5.318,0.877-8.633,0.877
				c-5.906,0-10.486-1.324-13.619-3.945c-2.291-1.922-3.877-4.365-4.779-7.461h39.297
				C531.746,227.441,533.932,226.613,535.605,224.969 M489.604,212.211c0.438-1.867,1.133-3.482,2.125-4.834
				c1.52-2.18,3.404-3.74,5.695-4.752c4.746-2.111,9.717-2.111,14.479,0c2.307,1.012,4.203,2.586,5.789,4.779
				c0.99,1.359,1.688,2.967,2.139,4.807H489.604z"/>
			<path fill="#FFFFFF" d="M640.127,189.398c-3.693-2.621-8.32-3.943-13.711-3.943c-9.645,0-17.375,3.266-23.086,9.762
				c-1.564-2.084-3.461-3.951-5.783-5.594c-3.918-2.756-8.664-4.168-14.072-4.168c-5.906,0-10.867,1.215-14.705,3.598
				c-1.494,0.883-2.865,1.928-4.189,3.008c-0.424-1.291-1.209-2.484-2.309-3.523c-1.701-1.643-3.885-2.498-6.281-2.498
				c-2.453,0-4.643,0.889-6.301,2.531c-1.717,1.684-2.619,3.809-2.619,6.18v51.484c0,2.396,0.902,4.521,2.668,6.164
				c1.688,1.576,3.826,2.404,6.252,2.404c2.367,0,4.549-0.801,6.254-2.363c1.822-1.656,2.756-3.781,2.756-6.205v-35.061
				c1.867-2.764,3.992-5.018,6.311-6.723c2.309-1.744,5.215-2.572,8.861-2.572c3.707,0,6.283,0.828,7.563,2.463
				c1.479,1.842,2.234,5.113,2.234,9.479v32.414c0,2.396,0.93,4.521,2.68,6.164c1.672,1.563,3.846,2.404,6.238,2.404
				c2.395,0,4.553-0.801,6.283-2.363c1.811-1.656,2.758-3.781,2.758-6.205v-35.061c1.867-2.764,3.992-5.018,6.314-6.723
				c2.287-1.744,5.184-2.572,8.855-2.572c3.725,0,6.258,0.828,7.582,2.463c1.432,1.842,2.23,5.113,2.23,9.479v32.414
				c0,2.396,0.889,4.521,2.65,6.164c1.656,1.576,3.84,2.404,6.268,2.404c2.365,0,4.539-0.801,6.252-2.363
				c1.793-1.656,2.773-3.781,2.773-6.205v-34.566c0-4.264-0.871-8.426-2.559-12.322C646.529,195.32,643.77,191.973,640.127,189.398"
				/>
			<path fill="#FFFFFF" d="M724.578,224.969c1.656-1.609,2.547-3.734,2.547-6.096c0-5.922-1.311-11.496-3.922-16.5
				c-2.635-5.125-6.553-9.281-11.645-12.328c-5.033-3.076-11.072-4.59-17.93-4.59c-7.293,0-13.572,1.656-18.654,4.922
				c-5.076,3.299-8.875,7.666-11.342,13.002c-2.398,5.193-3.619,10.91-3.619,17.041c0,10.959,3.285,19.629,9.723,25.793
				c6.385,6.105,15.271,9.193,26.455,9.193c5.408,0,9.793-0.434,13.305-1.404c3.436-0.957,6.973-2.357,10.5-4.264
				c4.1-2.229,4.973-5.133,4.973-7.211c0-2.289-0.92-4.299-2.639-5.764c-1.609-1.4-3.541-2.119-5.631-2.119
				c-1.328,0-2.551,0.285-3.664,0.795c-2.334,1.105-4.779,1.975-7.217,2.531c-2.396,0.592-5.316,0.877-8.619,0.877
				c-5.92,0-10.486-1.324-13.637-3.945c-2.287-1.922-3.869-4.365-4.76-7.461h39.281
				C720.721,227.441,722.904,226.613,724.578,224.969 M678.576,212.211c0.438-1.867,1.146-3.482,2.129-4.834
				c1.533-2.18,3.4-3.74,5.691-4.752c4.746-2.111,9.721-2.111,14.479,0c2.32,1.012,4.203,2.586,5.789,4.779
				c0.994,1.359,1.688,2.967,2.152,4.807H678.576z"/>
			<path fill="#FFFFFF" d="M793.75,159.641c-2.441,0-4.549,0.795-6.301,2.383c-1.807,1.643-2.756,3.822-2.756,6.295v22.738
				c-5.545-3.734-11.783-5.643-18.59-5.643c-5.785,0-11.318,1.439-16.469,4.189c-5.201,2.775-9.465,6.891-12.672,12.193
				c-3.227,5.322-4.865,11.59-4.865,18.623c0,7.049,1.639,13.322,4.865,18.637c3.207,5.303,7.471,9.432,12.672,12.223
				c5.15,2.756,10.684,4.127,16.469,4.127c7.066,0,13.482-2.002,19.193-6.002c0.465,1.121,1.191,2.166,2.152,3.035
				c1.752,1.596,3.859,2.363,6.301,2.363c2.383,0,4.553-0.801,6.223-2.404c1.73-1.643,2.668-3.768,2.668-6.137v-77.943
				c0-2.336-0.906-4.51-2.625-6.193C798.33,160.496,796.146,159.641,793.75,159.641 M777.387,236.695
				c-3,1.432-6.209,2.152-9.641,2.152c-5.455,0-9.689-1.521-12.914-4.699c-3.211-3.191-4.789-7.672-4.789-13.729
				s1.578-10.516,4.789-13.693c3.225-3.164,7.459-4.699,12.914-4.699c3.404,0,6.641,0.68,9.641,2.139
				c2.695,1.264,5.154,2.953,7.307,4.984v22.555C782.541,233.742,780.082,235.426,777.387,236.695"/>
			<path fill="#FFFFFF" d="M832.592,164.102c-1.854-1.766-4.188-2.668-6.762-2.668h-0.77c-2.578,0-4.928,0.902-6.768,2.668
				c-1.896,1.793-2.908,4.088-2.908,6.633v0.463c0,2.578,1.012,4.867,2.908,6.66c1.84,1.73,4.189,2.654,6.768,2.654h0.77
				c2.574,0,4.908-0.924,6.762-2.654c1.902-1.793,2.896-4.082,2.896-6.66v-0.463C835.488,168.189,834.494,165.895,832.592,164.102"
				/>
			<path fill="#FFFFFF" d="M825.314,186.039c-2.455,0-4.609,0.889-6.297,2.531c-1.732,1.684-2.621,3.809-2.621,6.18v51.484
				c0,2.396,0.902,4.521,2.654,6.164c1.684,1.576,3.84,2.404,6.264,2.404c2.365,0,4.539-0.801,6.27-2.363
				c1.793-1.656,2.758-3.781,2.758-6.205V194.75c0-2.473-0.918-4.625-2.67-6.268C830.02,186.867,827.785,186.039,825.314,186.039"/>
			<path fill="#FFFFFF" d="M882.359,201.994c2.654,0,4.838,0.264,6.525,0.787c1.822,0.537,4.08,1.459,6.705,2.723
				c1.354,0.68,2.773,1.072,4.219,1.072c2.125,0,4.066-0.889,5.648-2.506c1.553-1.582,2.367-3.447,2.367-5.479
				c0-1.988-0.693-4.854-4.098-6.904c-2.988-1.793-6.254-3.293-9.75-4.441c-3.57-1.207-7.822-1.791-12.629-1.791
				c-6.596,0-12.758,1.398-18.348,4.148c-5.697,2.838-10.293,6.938-13.682,12.193c-3.422,5.289-5.166,11.555-5.166,18.623
				c0,7.082,1.744,13.361,5.166,18.672c3.389,5.268,7.984,9.355,13.682,12.16c5.59,2.75,11.752,4.189,18.348,4.189
				c4.807,0,9.059-0.611,12.629-1.801c3.496-1.141,6.762-2.619,9.768-4.439c3.387-2.051,4.08-4.889,4.08-6.912
				s-0.814-3.924-2.381-5.539c-1.568-1.604-3.51-2.451-5.635-2.451c-1.445,0-2.865,0.346-4.219,1.064
				c-2.605,1.283-4.883,2.188-6.705,2.736c-1.688,0.496-3.871,0.748-6.525,0.748c-6.508,0-11.42-1.656-14.99-5.031
				c-3.559-3.395-5.26-7.748-5.26-13.396c0-5.635,1.701-9.973,5.26-13.348C870.939,203.637,875.852,201.994,882.359,201.994"/>
			<path fill="#FFFFFF" d="M932.158,164.102c-1.854-1.766-4.174-2.668-6.766-2.668h-0.754c-2.59,0-4.93,0.902-6.764,2.668
				c-1.914,1.793-2.895,4.088-2.895,6.633v0.463c0,2.578,0.98,4.867,2.895,6.66c1.834,1.73,4.174,2.654,6.764,2.654h0.754
				c2.592,0,4.912-0.924,6.766-2.654c1.914-1.793,2.918-4.082,2.918-6.66v-0.463C935.076,168.189,934.072,165.895,932.158,164.102"
				/>
			<path fill="#FFFFFF" d="M924.879,186.039c-2.424,0-4.596,0.889-6.297,2.531c-1.705,1.684-2.59,3.809-2.59,6.18v51.484
				c0,2.396,0.885,4.521,2.646,6.164c1.688,1.576,3.848,2.404,6.24,2.404s4.566-0.801,6.283-2.363
				c1.793-1.656,2.758-3.781,2.758-6.205V194.75c0-2.473-0.904-4.625-2.668-6.268C929.594,186.867,927.367,186.039,924.879,186.039"
				/>
			<path fill="#FFFFFF" d="M999.928,189.033c-3.914-2.398-8.541-3.578-13.783-3.578c-5.592,0-10.564,1.141-14.754,3.373
				c-2.064,1.08-4.066,2.404-5.998,3.898c-0.387-1.596-1.215-2.994-2.482-4.189c-1.721-1.609-3.904-2.498-6.328-2.498
				c-2.396,0-4.596,0.889-6.27,2.545c-1.701,1.67-2.621,3.795-2.621,6.166v51.512c0,2.369,0.934,4.521,2.639,6.137
				c1.701,1.604,3.869,2.404,6.252,2.404c2.395,0,4.549-0.801,6.281-2.363c1.822-1.629,2.773-3.781,2.773-6.178V211.41
				c2.516-2.838,5.197-5.152,7.967-6.885c2.896-1.791,6.074-2.633,9.736-2.633c7.58,0,10.834,3.4,10.834,11.434v32.936
				c0,2.369,0.92,4.521,2.654,6.137c1.688,1.576,3.84,2.404,6.25,2.404c2.369,0,4.551-0.801,6.266-2.363
				c1.811-1.629,2.76-3.781,2.76-6.178v-34.125c0-4.779-1.025-9.281-3.059-13.307C1006.92,194.723,1003.893,191.416,999.928,189.033
				"/>
			<path fill="#FFFFFF" d="M1080.434,199.189c-2.186-4.102-5.605-7.461-10.17-9.967c-4.492-2.506-10.006-3.768-16.377-3.768
				c-7.838,0-15.643,1.514-23.207,4.527c-3.436,1.393-5.332,4.074-5.332,7.551c0,2.125,0.857,4.053,2.426,5.525
				c1.508,1.406,3.406,2.193,5.486,2.193c0.693,0,1.447-0.107,2.395-0.332l0.195-0.088c2.938-0.91,5.65-1.617,8.016-2.051
				c2.275-0.408,4.973-0.652,7.971-0.652c5.078,0,8.738,0.904,10.895,2.703c1.639,1.412,2.59,3.666,2.906,6.789h-12.127
				c-10.219,0-18.205,1.969-23.688,5.865c-5.816,4.137-8.783,9.744-8.783,16.73c0,4.264,1.131,8.072,3.361,11.332
				c2.182,3.258,5.18,5.758,8.887,7.447c3.588,1.617,7.502,2.41,11.691,2.41c8.15,0,15.311-2.016,21.307-6.076
				c0.455,1.135,1.146,2.172,2.107,3.068c1.674,1.604,3.846,2.404,6.24,2.404c2.393,0,4.578-0.801,6.283-2.363
				c1.807-1.656,2.756-3.781,2.756-6.178v-33.996C1083.672,207.582,1082.604,203.201,1080.434,199.189 M1058.725,237.217
				c-3.049,1.48-6.213,2.234-9.434,2.234c-5.018,0-7.311-1.012-8.322-1.873c-1.367-1.168-1.984-2.602-1.984-4.543
				c0-1.379,0.363-2.939,3.027-4.27c2.756-1.352,7.125-2.01,13.02-2.01h10.684v5.6
				C1063.799,234.217,1061.434,235.859,1058.725,237.217"/>
			<path fill="#FFFFFF" d="M301.943,36.539h22.779v65.635c0,2.396,0.951,4.521,2.654,6.158c1.688,1.582,3.857,2.41,6.268,2.41
				c2.396,0,4.566-0.795,6.266-2.391c1.824-1.621,2.775-3.768,2.775-6.178V36.539h22.676c2.275,0,4.369-0.766,6.012-2.254
				c1.732-1.555,2.635-3.605,2.635-5.953c0-2.309-0.902-4.359-2.604-5.969c-1.629-1.563-3.738-2.363-6.043-2.363h-63.418
				c-2.352,0-4.447,0.828-6.059,2.404c-1.609,1.615-2.469,3.652-2.469,5.928c0,2.314,0.873,4.338,2.516,5.906
				C297.514,35.738,299.592,36.539,301.943,36.539"/>
			<path fill="#FFFFFF" d="M418.818,45.957c-5.078-3.041-11.104-4.596-17.943-4.596c-7.279,0-13.576,1.656-18.654,4.955
				c-5.094,3.273-8.889,7.672-11.363,12.975c-2.379,5.215-3.615,10.938-3.615,17.076c0,10.938,3.287,19.602,9.732,25.779
				c6.393,6.111,15.297,9.207,26.463,9.207c5.395,0,9.76-0.469,13.318-1.406c3.434-0.963,6.945-2.389,10.486-4.264
				c4.08-2.24,4.959-5.152,4.959-7.23c0-2.287-0.893-4.277-2.611-5.771c-1.609-1.371-3.553-2.098-5.648-2.098
				c-1.328,0-2.563,0.258-3.676,0.768c-2.305,1.121-4.746,1.977-7.201,2.547c-2.414,0.609-5.322,0.889-8.619,0.889
				c-5.906,0-10.486-1.324-13.623-3.945c-2.305-1.928-3.883-4.365-4.777-7.461h39.299c2.637,0,4.82-0.828,6.494-2.471
				c1.656-1.645,2.533-3.729,2.533-6.098c0-5.934-1.328-11.494-3.922-16.539C427.814,53.154,423.896,49.02,418.818,45.957
				 M416.063,68.125h-30.227c0.42-1.84,1.146-3.449,2.094-4.807c1.555-2.188,3.422-3.734,5.697-4.768
				c4.775-2.125,9.736-2.125,14.508,0c2.293,1.033,4.176,2.58,5.771,4.795C414.885,64.703,415.611,66.299,416.063,68.125"/>
			<path fill="#FFFFFF" d="M478.424,58.273c2.488,0,4.598-0.754,6.314-2.207c1.762-1.574,2.727-3.66,2.727-6.131
				c0-2.369-0.887-4.475-2.547-6.117c-1.656-1.615-3.795-2.438-6.223-2.438h-0.648c-6.191,0-11.945,2.287-17.16,6.836
				c-0.422-1.404-1.236-2.695-2.363-3.768c-1.721-1.643-3.934-2.498-6.33-2.498c-2.428,0-4.594,0.889-6.299,2.547
				c-1.699,1.67-2.605,3.795-2.605,6.191v51.484c0,2.396,0.92,4.521,2.668,6.158c1.688,1.582,3.855,2.41,6.236,2.41
				c2.396,0,4.549-0.828,6.266-2.355c1.826-1.643,2.791-3.803,2.791-6.213V66.691c1.898-2.484,4.203-4.486,6.898-5.967
				c2.893-1.609,6.131-2.451,9.645-2.451H478.424z"/>
			<path fill="#FFFFFF" d="M550.492,102.174V68.199c0-4.672-1.088-9.084-3.24-13.098c-2.182-4.086-5.621-7.461-10.17-9.973
				c-4.49-2.506-10.004-3.768-16.379-3.768c-7.85,0-15.637,1.555-23.188,4.535c-3.438,1.391-5.322,4.039-5.322,7.549
				c0,2.152,0.814,4.055,2.4,5.527c1.504,1.439,3.418,2.221,5.482,2.221c0.678,0,1.477-0.137,2.379-0.348l0.242-0.074
				c2.908-0.91,5.621-1.615,7.971-2.051c2.291-0.447,4.99-0.678,8.014-0.678c5.035,0,8.711,0.93,10.867,2.729
				c1.627,1.371,2.59,3.646,2.924,6.762h-12.16c-10.199,0-18.156,1.99-23.668,5.895c-5.82,4.107-8.787,9.75-8.787,16.736
				c0,4.229,1.113,8.031,3.361,11.332c2.166,3.225,5.197,5.742,8.887,7.428c3.572,1.615,7.506,2.43,11.695,2.43
				c8.148,0,15.305-2.051,21.334-6.09c0.438,1.146,1.143,2.152,2.094,3.068c1.674,1.582,3.826,2.41,6.254,2.41
				c2.365,0,4.535-0.795,6.25-2.355C549.541,106.73,550.492,104.584,550.492,102.174 M525.539,93.131
				c-3.031,1.508-6.178,2.268-9.434,2.268c-5.018,0-7.305-1.033-8.313-1.908c-1.373-1.135-1.977-2.572-1.977-4.516
				c0-1.385,0.332-2.973,3.012-4.264c2.76-1.357,7.143-2.064,13.018-2.064h10.715v5.65
				C530.619,90.164,528.252,91.807,525.539,93.131"/>
			<path fill="#FFFFFF" d="M832.592,164.102c-1.854-1.766-4.188-2.668-6.762-2.668h-0.77c-2.578,0-4.928,0.902-6.768,2.668
				c-1.896,1.793-2.908,4.088-2.908,6.633v0.463c0,2.578,1.012,4.867,2.908,6.66c1.84,1.73,4.189,2.654,6.768,2.654h0.77
				c2.574,0,4.908-0.924,6.762-2.654c1.902-1.793,2.896-4.082,2.896-6.66v-0.463C835.488,168.189,834.494,165.895,832.592,164.102"
				/>
			<path fill="#FFFFFF" d="M932.158,164.102c-1.854-1.766-4.174-2.668-6.766-2.668h-0.754c-2.59,0-4.93,0.902-6.764,2.668
				c-1.914,1.793-2.895,4.088-2.895,6.633v0.463c0,2.578,0.98,4.867,2.895,6.66c1.834,1.73,4.174,2.654,6.764,2.654h0.754
				c2.592,0,4.912-0.924,6.766-2.654c1.914-1.793,2.918-4.082,2.918-6.66v-0.463C935.076,168.189,934.072,165.895,932.158,164.102"
				/>
		</g>
	</g>
</g>
</svg>
