<?xml version="1.0" encoding="utf-8"?>
<!-- Generator: Adobe Illustrator 16.0.0, SVG Export Plug-In . SVG Version: 6.00 Build 0)  -->
<!DOCTYPE svg PUBLIC "-//W3C//DTD SVG 1.1//EN" "http://www.w3.org/Graphics/SVG/1.1/DTD/svg11.dtd">
<svg version="1.1" xmlns="http://www.w3.org/2000/svg" xmlns:xlink="http://www.w3.org/1999/xlink" x="0px" y="0px"
	 width="253.968px" height="257.802px" viewBox="0 0 253.968 257.802" enable-background="new 0 0 253.968 257.802"
	 xml:space="preserve">
<g id="Layer_1">
</g>
<g id="SomenteLogo">
	<rect x="2.004" y="266.052" fill="#33B9D7" width="160.487" height="155.409"/>
	<g>
		<g>
			<linearGradient id="SVGID_1_" gradientUnits="userSpaceOnUse" x1="-383.0684" y1="58.4004" x2="-331.6572" y2="58.4004">
				<stop  offset="0" style="stop-color:#F58131"/>
				<stop  offset="1" style="stop-color:#F05123"/>
			</linearGradient>
			<path fill="url(#SVGID_1_)" d="M-331.657,41.261v58.273c-11.357,0-20.567-9.213-20.567-20.57V47.946
				c0-5.586-4.521-10.111-10.107-10.111h-10.452c-5.684,0-10.284-4.604-10.284-10.287c0-5.676,4.601-10.281,10.284-10.281h17.135
				C-342.394,17.267-331.657,28.009-331.657,41.261"/>
			<g>
				<defs>
					<path id="SVGID_2_" d="M-331.652,17.272L-331.652,17.272c0,11.354,9.206,20.563,20.564,20.563
						c5.681,0,10.279-4.604,10.279-10.287c0-5.682-4.599-10.275-10.279-10.275H-331.652z"/>
				</defs>
				<clipPath id="SVGID_3_">
					<use xlink:href="#SVGID_2_"  overflow="visible"/>
				</clipPath>
				
					<linearGradient id="SVGID_4_" gradientUnits="userSpaceOnUse" x1="-662.0972" y1="-26.8623" x2="-658.2715" y2="-26.8623" gradientTransform="matrix(9.4911 10.2971 -10.2971 9.4911 5672.9683 7080.3945)">
					<stop  offset="0" style="stop-color:#6CCDE5"/>
					<stop  offset="1" style="stop-color:#10B0D0"/>
				</linearGradient>
				<polygon clip-path="url(#SVGID_3_)" fill="url(#SVGID_4_)" points="-341.898,26.72 -317.486,53.206 -290.556,28.394 
					-314.976,1.903 				"/>
			</g>
		</g>
		<g id="text">
			<path fill="#FFFFFF" d="M-131.298,65.993c-0.532-0.508-1.205-0.77-1.942-0.77h-0.222c-0.747,0-1.417,0.262-1.948,0.77
				c-0.547,0.516-0.84,1.174-0.84,1.906v0.135c0,0.74,0.293,1.396,0.84,1.912c0.531,0.5,1.201,0.764,1.948,0.764h0.222
				c0.737,0,1.41-0.264,1.942-0.764c0.55-0.516,0.832-1.172,0.832-1.912v-0.135C-130.466,67.167-130.748,66.509-131.298,65.993"/>
			<path fill="#FFFFFF" d="M-102.655,65.993c-0.53-0.508-1.199-0.77-1.944-0.77h-0.217c-0.748,0-1.419,0.262-1.947,0.77
				c-0.553,0.516-0.833,1.174-0.833,1.906v0.135c0,0.74,0.28,1.396,0.833,1.912c0.528,0.5,1.199,0.764,1.947,0.764h0.217
				c0.745,0,1.414-0.264,1.944-0.764c0.55-0.516,0.842-1.172,0.842-1.912v-0.135C-101.813,67.167-102.105,66.509-102.655,65.993"/>
			<g>
				<path fill="#33B9D7" d="M-263.218,68.378c0-0.66-0.254-1.25-0.748-1.713c-0.47-0.441-1.074-0.682-1.734-0.682h-18.251
					c-0.669,0-1.276,0.24-1.74,0.697c-0.461,0.455-0.71,1.047-0.71,1.697c0,0.674,0.251,1.256,0.726,1.707
					c0.456,0.438,1.056,0.666,1.725,0.666h6.559v18.875c0,0.68,0.271,1.299,0.763,1.766c0.485,0.465,1.107,0.691,1.803,0.691
					c0.683,0,1.312-0.227,1.801-0.68c0.525-0.471,0.796-1.09,0.796-1.777V70.751h6.53c0.653,0,1.254-0.229,1.724-0.654
					C-263.478,69.647-263.218,69.06-263.218,68.378"/>
				<path fill="#33B9D7" d="M-246.585,83.503c0.479-0.465,0.729-1.076,0.729-1.756c0-1.707-0.376-3.307-1.125-4.75
					c-0.764-1.471-1.888-2.666-3.347-3.543c-1.454-0.881-3.189-1.32-5.156-1.32c-2.103,0-3.913,0.475-5.372,1.418
					c-1.46,0.951-2.557,2.205-3.266,3.736c-0.688,1.496-1.04,3.141-1.04,4.906c0,3.146,0.945,5.646,2.796,7.416
					c1.835,1.758,4.396,2.648,7.613,2.648c1.553,0,2.814-0.129,3.826-0.402c0.994-0.279,2.002-0.682,3.018-1.23
					c1.184-0.641,1.429-1.479,1.429-2.076c0-0.658-0.256-1.234-0.749-1.654c-0.463-0.402-1.024-0.611-1.624-0.611
					c-0.381,0-0.73,0.082-1.052,0.23c-0.67,0.316-1.376,0.57-2.076,0.725c-0.695,0.176-1.532,0.254-2.481,0.254
					c-1.697,0-3.021-0.379-3.916-1.137c-0.665-0.553-1.116-1.254-1.376-2.143h11.304C-247.691,84.214-247.063,83.974-246.585,83.503
					 M-259.814,79.833c0.118-0.537,0.329-1.002,0.606-1.393c0.439-0.629,0.979-1.078,1.641-1.367c1.365-0.607,2.791-0.607,4.167,0
					c0.662,0.289,1.203,0.748,1.66,1.375c0.283,0.389,0.486,0.852,0.615,1.385H-259.814z"/>
				<path fill="#33B9D7" d="M-240.726,64.708c-0.701,0-1.32,0.246-1.807,0.723c-0.498,0.479-0.757,1.1-0.757,1.771v22.424
					c0,0.68,0.271,1.299,0.765,1.766c0.484,0.465,1.105,0.691,1.799,0.691c0.687,0,1.311-0.227,1.807-0.68
					c0.521-0.471,0.793-1.09,0.793-1.777V67.202c0-0.701-0.267-1.322-0.768-1.803C-239.371,64.946-240.009,64.708-240.726,64.708"/>
				<path fill="#33B9D7" d="M-216.733,83.503c0.479-0.465,0.732-1.076,0.732-1.756c0-1.707-0.378-3.307-1.123-4.75
					c-0.759-1.471-1.887-2.666-3.35-3.543c-1.454-0.881-3.188-1.32-5.159-1.32c-2.097,0-3.906,0.475-5.368,1.418
					c-1.462,0.951-2.558,2.205-3.265,3.736c-0.688,1.496-1.039,3.141-1.039,4.906c0,3.146,0.947,5.646,2.792,7.416
					c1.842,1.758,4.403,2.648,7.618,2.648c1.555,0,2.811-0.129,3.826-0.402c0.988-0.279,2-0.682,3.015-1.23
					c1.181-0.641,1.435-1.479,1.435-2.076c0-0.658-0.262-1.234-0.753-1.654c-0.467-0.402-1.025-0.611-1.634-0.611
					c-0.372,0-0.728,0.082-1.047,0.23c-0.671,0.316-1.37,0.57-2.072,0.725c-0.692,0.176-1.533,0.254-2.484,0.254
					c-1.7,0-3.017-0.379-3.921-1.137c-0.657-0.553-1.114-1.254-1.371-2.143h11.305C-217.839,84.214-217.209,83.974-216.733,83.503
					 M-229.965,79.833c0.127-0.537,0.329-1.002,0.61-1.393c0.441-0.629,0.98-1.078,1.639-1.367c1.369-0.607,2.797-0.607,4.168,0
					c0.661,0.289,1.21,0.748,1.664,1.375c0.284,0.389,0.486,0.852,0.613,1.385H-229.965z"/>
				<path fill="#33B9D7" d="M-186.662,73.269c-1.065-0.756-2.393-1.135-3.947-1.135c-2.773,0-4.992,0.938-6.64,2.807
					c-0.449-0.594-0.997-1.133-1.661-1.605c-1.13-0.793-2.493-1.201-4.053-1.201c-1.695,0-3.122,0.35-4.229,1.037
					c-0.426,0.252-0.82,0.551-1.204,0.865c-0.117-0.371-0.348-0.717-0.659-1.016c-0.49-0.471-1.123-0.717-1.812-0.717
					c-0.705,0-1.332,0.254-1.813,0.725c-0.494,0.486-0.751,1.098-0.751,1.777v14.813c0,0.688,0.257,1.299,0.764,1.773
					c0.489,0.455,1.102,0.691,1.8,0.691c0.681,0,1.312-0.227,1.802-0.68c0.522-0.479,0.792-1.09,0.792-1.785V79.532
					c0.536-0.791,1.148-1.443,1.813-1.936c0.665-0.502,1.5-0.744,2.552-0.744c1.064,0,1.803,0.242,2.176,0.715
					c0.424,0.531,0.641,1.471,0.641,2.729v9.322c0,0.688,0.271,1.299,0.771,1.773c0.481,0.449,1.105,0.691,1.792,0.691
					c0.688,0,1.311-0.227,1.811-0.68c0.52-0.479,0.793-1.09,0.793-1.785V79.532c0.537-0.791,1.148-1.443,1.813-1.936
					c0.662-0.502,1.493-0.744,2.55-0.744c1.073,0,1.799,0.242,2.179,0.715c0.416,0.531,0.643,1.471,0.643,2.729v9.322
					c0,0.688,0.259,1.299,0.764,1.773c0.479,0.455,1.107,0.691,1.804,0.691c0.682,0,1.308-0.227,1.799-0.68
					c0.518-0.479,0.798-1.09,0.798-1.785v-9.945c0-1.225-0.25-2.42-0.736-3.543C-184.822,74.97-185.615,74.009-186.662,73.269"/>
				<path fill="#33B9D7" d="M-162.37,83.503c0.479-0.465,0.732-1.076,0.732-1.756c0-1.707-0.378-3.307-1.124-4.75
					c-0.759-1.471-1.889-2.666-3.352-3.543c-1.45-0.881-3.188-1.32-5.158-1.32c-2.097,0-3.904,0.475-5.368,1.418
					c-1.456,0.951-2.553,2.205-3.263,3.736c-0.688,1.496-1.039,3.141-1.039,4.906c0,3.146,0.945,5.646,2.796,7.416
					c1.838,1.758,4.396,2.648,7.611,2.648c1.554,0,2.813-0.129,3.827-0.402c0.987-0.279,2.003-0.682,3.021-1.23
					c1.178-0.641,1.429-1.479,1.429-2.076c0-0.658-0.263-1.234-0.756-1.654c-0.465-0.402-1.021-0.611-1.621-0.611
					c-0.384,0-0.735,0.082-1.057,0.23c-0.673,0.316-1.371,0.57-2.073,0.725c-0.691,0.176-1.531,0.254-2.477,0.254
					c-1.706,0-3.021-0.379-3.925-1.137c-0.659-0.553-1.116-1.254-1.37-2.143h11.299C-163.479,84.214-162.85,83.974-162.37,83.503
					 M-175.604,79.833c0.126-0.537,0.332-1.002,0.614-1.393c0.439-0.629,0.979-1.078,1.636-1.367c1.367-0.607,2.799-0.607,4.17,0
					c0.665,0.289,1.207,0.748,1.662,1.375c0.284,0.389,0.487,0.852,0.616,1.385H-175.604z"/>
				<path fill="#33B9D7" d="M-142.472,64.708c-0.697,0-1.31,0.229-1.809,0.686c-0.521,0.473-0.797,1.102-0.797,1.809v6.545
					c-1.592-1.076-3.387-1.623-5.346-1.623c-1.665,0-3.255,0.412-4.742,1.203c-1.495,0.799-2.72,1.98-3.642,3.506
					c-0.929,1.533-1.398,3.334-1.398,5.361c0,2.025,0.47,3.828,1.398,5.359c0.922,1.525,2.146,2.715,3.642,3.516
					c1.487,0.793,3.077,1.189,4.742,1.189c2.032,0,3.88-0.576,5.521-1.729c0.133,0.32,0.341,0.621,0.621,0.873
					c0.499,0.459,1.111,0.68,1.809,0.68c0.685,0,1.313-0.227,1.79-0.691c0.501-0.475,0.768-1.086,0.768-1.766V67.202
					c0-0.672-0.261-1.293-0.753-1.777C-141.15,64.954-141.78,64.708-142.472,64.708 M-147.179,86.872
					c-0.86,0.416-1.786,0.621-2.774,0.621c-1.569,0-2.781-0.441-3.715-1.35c-0.923-0.92-1.374-2.207-1.374-3.949
					c0-1.74,0.451-3.027,1.374-3.939c0.934-0.914,2.146-1.352,3.715-1.352c0.981,0,1.914,0.191,2.774,0.609
					c0.778,0.365,1.484,0.854,2.102,1.436v6.49C-145.694,86.022-146.4,86.507-147.179,86.872"/>
				<path fill="#33B9D7" d="M-133.392,72.304c-0.703,0-1.324,0.254-1.809,0.725c-0.497,0.486-0.757,1.098-0.757,1.777v14.813
					c0,0.688,0.263,1.299,0.765,1.773c0.486,0.455,1.105,0.691,1.801,0.691c0.684,0,1.311-0.227,1.806-0.68
					c0.517-0.479,0.793-1.09,0.793-1.785V74.806c0-0.709-0.266-1.328-0.767-1.801C-132.039,72.542-132.679,72.304-133.392,72.304"/>
				<path fill="#33B9D7" d="M-116.98,76.894c0.762,0,1.391,0.074,1.877,0.225c0.523,0.156,1.174,0.416,1.928,0.783
					c0.393,0.197,0.801,0.307,1.216,0.307c0.609,0,1.171-0.254,1.625-0.717c0.443-0.455,0.682-0.994,0.682-1.578
					c0-0.572-0.203-1.396-1.182-1.99c-0.856-0.516-1.799-0.947-2.805-1.273c-1.026-0.346-2.25-0.516-3.632-0.516
					c-1.896,0-3.674,0.402-5.279,1.193c-1.638,0.816-2.96,1.996-3.936,3.506c-0.984,1.525-1.484,3.328-1.484,5.361
					c0,2.035,0.5,3.842,1.484,5.367c0.976,1.518,2.298,2.693,3.936,3.5c1.605,0.795,3.383,1.203,5.279,1.203
					c1.382,0,2.605-0.172,3.632-0.516c1.006-0.33,1.948-0.756,2.813-1.279c0.971-0.59,1.174-1.406,1.174-1.984
					c0-0.586-0.238-1.133-0.688-1.598c-0.448-0.461-1.01-0.701-1.619-0.701c-0.415,0-0.823,0.098-1.216,0.307
					c-0.75,0.367-1.404,0.629-1.928,0.785c-0.486,0.145-1.115,0.215-1.877,0.215c-1.873,0-3.286-0.477-4.316-1.451
					c-1.021-0.967-1.51-2.229-1.51-3.848c0-1.623,0.489-2.871,1.51-3.842C-120.267,77.362-118.854,76.894-116.98,76.894"/>
				<path fill="#33B9D7" d="M-104.747,72.304c-0.702,0-1.324,0.254-1.812,0.725c-0.493,0.486-0.746,1.098-0.746,1.777v14.813
					c0,0.688,0.256,1.299,0.761,1.773c0.487,0.455,1.107,0.691,1.797,0.691c0.687,0,1.308-0.227,1.807-0.68
					c0.516-0.479,0.793-1.09,0.793-1.785V74.806c0-0.709-0.263-1.328-0.766-1.801C-103.391,72.542-104.03,72.304-104.747,72.304"/>
				<path fill="#33B9D7" d="M-83.159,73.163c-1.126-0.688-2.456-1.029-3.968-1.029c-1.607,0-3.035,0.328-4.243,0.969
					c-0.593,0.313-1.17,0.695-1.723,1.121c-0.114-0.455-0.352-0.859-0.715-1.203c-0.497-0.463-1.124-0.717-1.82-0.717
					c-0.691,0-1.325,0.254-1.806,0.732c-0.49,0.479-0.752,1.09-0.752,1.77v14.82c0,0.68,0.267,1.299,0.761,1.766
					c0.487,0.465,1.11,0.691,1.797,0.691c0.688,0,1.309-0.227,1.807-0.68c0.528-0.471,0.794-1.09,0.794-1.777V79.599
					c0.728-0.814,1.495-1.479,2.298-1.979c0.829-0.516,1.744-0.756,2.798-0.756c2.179,0,3.116,0.977,3.116,3.287v9.475
					c0,0.68,0.264,1.299,0.764,1.766c0.485,0.455,1.104,0.691,1.8,0.691c0.679,0,1.306-0.227,1.801-0.68
					c0.52-0.471,0.794-1.09,0.794-1.777V79.81c0-1.377-0.295-2.668-0.879-3.828C-81.147,74.8-82.021,73.851-83.159,73.163"/>
				<path fill="#33B9D7" d="M-59.998,76.089c-0.632-1.184-1.616-2.15-2.928-2.873c-1.294-0.719-2.88-1.082-4.709-1.082
					c-2.261,0-4.503,0.439-6.68,1.305c-0.984,0.398-1.533,1.166-1.533,2.17c0,0.611,0.246,1.164,0.7,1.59
					c0.431,0.406,0.976,0.629,1.574,0.629c0.2,0,0.419-0.027,0.69-0.096l0.058-0.023c0.846-0.262,1.624-0.465,2.303-0.59
					c0.66-0.121,1.432-0.188,2.296-0.188c1.459,0,2.511,0.264,3.134,0.777c0.469,0.406,0.746,1.057,0.836,1.951h-3.491
					c-2.938,0-5.233,0.566-6.811,1.689c-1.676,1.189-2.527,2.805-2.527,4.816c0,1.225,0.325,2.32,0.964,3.258
					c0.627,0.936,1.493,1.652,2.563,2.139c1.027,0.465,2.156,0.697,3.361,0.697c2.345,0,4.402-0.584,6.129-1.748
					c0.129,0.324,0.329,0.625,0.604,0.881c0.483,0.465,1.107,0.691,1.797,0.691c0.687,0,1.313-0.227,1.808-0.68
					c0.52-0.479,0.792-1.09,0.792-1.777v-9.779C-59.068,78.501-59.378,77.237-59.998,76.089 M-66.247,87.022
					c-0.872,0.428-1.786,0.643-2.712,0.643c-1.443,0-2.101-0.289-2.394-0.535c-0.395-0.336-0.571-0.748-0.571-1.311
					c0-0.395,0.104-0.844,0.87-1.223c0.792-0.393,2.051-0.584,3.748-0.584h3.07v1.615C-64.79,86.165-65.468,86.636-66.247,87.022"/>
			</g>
			<g>
				<linearGradient id="SVGID_5_" gradientUnits="userSpaceOnUse" x1="-286.4014" y1="37.5889" x2="-263.2178" y2="37.5889">
					<stop  offset="0" style="stop-color:#F58131"/>
					<stop  offset="1" style="stop-color:#F05123"/>
				</linearGradient>
				<path fill="url(#SVGID_5_)" d="M-283.951,29.298h6.559v18.879c0,0.689,0.271,1.303,0.763,1.771
					c0.485,0.457,1.107,0.693,1.803,0.693c0.687,0,1.312-0.229,1.801-0.686c0.525-0.473,0.8-1.082,0.8-1.779V29.298h6.526
					c0.653,0,1.254-0.223,1.724-0.652c0.499-0.447,0.759-1.037,0.759-1.711c0-0.666-0.254-1.252-0.748-1.719
					c-0.47-0.449-1.074-0.68-1.734-0.68h-18.251c-0.669,0-1.276,0.238-1.74,0.693c-0.461,0.465-0.71,1.045-0.71,1.705
					c0,0.666,0.251,1.248,0.726,1.697C-285.22,29.069-284.62,29.298-283.951,29.298"/>
				<linearGradient id="SVGID_6_" gradientUnits="userSpaceOnUse" x1="-265.1611" y1="40.7471" x2="-245.8535" y2="40.7471">
					<stop  offset="0" style="stop-color:#F58131"/>
					<stop  offset="1" style="stop-color:#F05123"/>
				</linearGradient>
				<path fill="url(#SVGID_6_)" d="M-250.327,32.005c-1.459-0.873-3.194-1.324-5.156-1.324c-2.102,0-3.91,0.479-5.372,1.43
					c-1.462,0.941-2.557,2.205-3.266,3.729c-0.686,1.504-1.04,3.148-1.04,4.912c0,3.148,0.942,5.637,2.796,7.418
					c1.839,1.756,4.401,2.645,7.613,2.645c1.553,0,2.812-0.133,3.83-0.4c0.99-0.277,1.998-0.689,3.017-1.227
					c1.178-0.645,1.43-1.48,1.43-2.078c0-0.658-0.26-1.236-0.753-1.66c-0.463-0.398-1.021-0.607-1.624-0.607
					c-0.385,0-0.735,0.078-1.054,0.225c-0.668,0.324-1.372,0.568-2.074,0.732c-0.695,0.172-1.532,0.254-2.481,0.254
					c-1.697,0-3.016-0.381-3.916-1.133c-0.663-0.555-1.12-1.26-1.376-2.148h11.304c0.759,0,1.387-0.236,1.867-0.709
					c0.479-0.473,0.729-1.078,0.729-1.756c0-1.707-0.38-3.307-1.127-4.756C-247.742,34.077-248.864,32.886-250.327,32.005
					 M-251.121,38.38h-8.693c0.123-0.529,0.329-0.992,0.606-1.381c0.441-0.627,0.981-1.078,1.634-1.369
					c1.375-0.611,2.803-0.611,4.174,0c0.659,0.291,1.203,0.742,1.66,1.379C-251.457,37.396-251.25,37.858-251.121,38.38"/>
				<linearGradient id="SVGID_7_" gradientUnits="userSpaceOnUse" x1="-243.2891" y1="40.665" x2="-230.5771" y2="40.665">
					<stop  offset="0" style="stop-color:#F58131"/>
					<stop  offset="1" style="stop-color:#F05123"/>
				</linearGradient>
				<path fill="url(#SVGID_7_)" d="M-233.181,35.55c0.718,0,1.324-0.219,1.817-0.637c0.508-0.459,0.786-1.053,0.786-1.766
					c0-0.678-0.255-1.285-0.733-1.758c-0.479-0.461-1.092-0.701-1.793-0.701h-0.185c-1.78,0-3.437,0.658-4.939,1.967
					c-0.119-0.404-0.352-0.777-0.681-1.084c-0.492-0.471-1.127-0.717-1.817-0.717c-0.699,0-1.32,0.254-1.811,0.73
					c-0.489,0.477-0.753,1.094-0.753,1.781v14.811c0,0.689,0.266,1.303,0.771,1.771c0.483,0.457,1.105,0.693,1.793,0.693
					c0.69,0,1.311-0.236,1.805-0.678c0.522-0.471,0.799-1.09,0.799-1.787V37.972c0.549-0.719,1.213-1.295,1.982-1.719
					c0.835-0.463,1.767-0.703,2.781-0.703H-233.181z"/>
				<linearGradient id="SVGID_8_" gradientUnits="userSpaceOnUse" x1="-230.4648" y1="40.7471" x2="-212.4463" y2="40.7471">
					<stop  offset="0" style="stop-color:#F58131"/>
					<stop  offset="1" style="stop-color:#F05123"/>
				</linearGradient>
				<path fill="url(#SVGID_8_)" d="M-212.446,48.177v-9.771c0-1.346-0.315-2.615-0.933-3.77c-0.634-1.174-1.616-2.145-2.927-2.871
					c-1.295-0.719-2.879-1.084-4.711-1.084c-2.257,0-4.498,0.451-6.674,1.309c-0.986,0.398-1.526,1.158-1.526,2.172
					c0,0.617,0.234,1.16,0.687,1.588c0.435,0.412,0.985,0.637,1.578,0.637c0.199,0,0.427-0.037,0.686-0.096l0.07-0.023
					c0.837-0.264,1.612-0.465,2.294-0.594c0.658-0.123,1.432-0.193,2.303-0.193c1.45,0,2.506,0.27,3.125,0.787
					c0.471,0.395,0.748,1.045,0.841,1.941h-3.493c-2.941,0-5.227,0.576-6.812,1.697c-1.675,1.182-2.526,2.803-2.526,4.818
					c0,1.219,0.32,2.309,0.963,3.258c0.628,0.928,1.494,1.65,2.562,2.139c1.028,0.465,2.155,0.693,3.36,0.693
					c2.349,0,4.403-0.59,6.138-1.75c0.128,0.33,0.329,0.623,0.603,0.885c0.482,0.457,1.101,0.693,1.797,0.693
					c0.681,0,1.309-0.229,1.802-0.678C-212.72,49.483-212.446,48.874-212.446,48.177 M-219.627,45.573
					c-0.869,0.436-1.777,0.65-2.711,0.65c-1.443,0-2.103-0.291-2.396-0.545c-0.392-0.328-0.567-0.74-0.567-1.299
					c0-0.4,0.101-0.852,0.867-1.229c0.792-0.389,2.057-0.59,3.747-0.59h3.079v1.621C-218.167,44.724-218.848,45.192-219.627,45.573"
					/>
			</g>
			<g>
				<linearGradient id="SVGID_9_" gradientUnits="userSpaceOnUse" x1="-136.25" y1="67.9668" x2="-130.4658" y2="67.9668">
					<stop  offset="0" style="stop-color:#F58131"/>
					<stop  offset="1" style="stop-color:#F05123"/>
				</linearGradient>
				<path fill="url(#SVGID_9_)" d="M-131.298,65.993c-0.532-0.508-1.205-0.77-1.942-0.77h-0.222c-0.747,0-1.417,0.262-1.948,0.77
					c-0.547,0.516-0.84,1.174-0.84,1.906v0.135c0,0.74,0.293,1.396,0.84,1.912c0.531,0.5,1.201,0.764,1.948,0.764h0.222
					c0.737,0,1.41-0.264,1.942-0.764c0.55-0.516,0.832-1.172,0.832-1.912v-0.135C-130.466,67.167-130.748,66.509-131.298,65.993"/>
				<linearGradient id="SVGID_10_" gradientUnits="userSpaceOnUse" x1="-107.5967" y1="67.9668" x2="-101.8135" y2="67.9668">
					<stop  offset="0" style="stop-color:#F58131"/>
					<stop  offset="1" style="stop-color:#F05123"/>
				</linearGradient>
				<path fill="url(#SVGID_10_)" d="M-102.655,65.993c-0.53-0.508-1.199-0.77-1.944-0.77h-0.217c-0.748,0-1.419,0.262-1.947,0.77
					c-0.553,0.516-0.833,1.174-0.833,1.906v0.135c0,0.74,0.28,1.396,0.833,1.912c0.528,0.5,1.199,0.764,1.947,0.764h0.217
					c0.745,0,1.414-0.264,1.944-0.764c0.55-0.516,0.842-1.172,0.842-1.912v-0.135C-101.813,67.167-102.105,66.509-102.655,65.993"/>
			</g>
		</g>
	</g>
	<g>
		<g>
			<g>
				<path opacity="0.6" fill="#FFFFFF" d="M156.116,80.198v174.455c-33.999,0-61.57-27.58-61.57-61.584v-92.857
					c0-16.721-13.539-30.27-30.259-30.27H32.993c-17.012,0-30.785-13.781-30.785-30.797c0-16.992,13.773-30.779,30.785-30.779
					h51.299C123.978,8.366,156.116,40.526,156.116,80.198"/>
				<g opacity="0.4">
					<defs>
						<path id="SVGID_11_" opacity="0.4" d="M156.116,8.366L156.116,8.366c0,33.99,27.559,61.561,61.562,61.561
							c17.007,0,30.776-13.783,30.776-30.799c0-17.01-13.77-30.762-30.776-30.762H156.116z"/>
					</defs>
					<linearGradient id="SVGID_12_" gradientUnits="userSpaceOnUse" x1="156.1162" y1="39.1465" x2="248.4541" y2="39.1465">
						<stop  offset="0" style="stop-color:#F58131"/>
						<stop  offset="1" style="stop-color:#F05123"/>
					</linearGradient>
					<use xlink:href="#SVGID_11_"  overflow="visible" fill="url(#SVGID_12_)"/>
					<clipPath id="SVGID_13_">
						<use xlink:href="#SVGID_11_"  overflow="visible"/>
					</clipPath>
					<linearGradient id="SVGID_14_" gradientUnits="userSpaceOnUse" x1="125.4395" y1="39.1494" x2="279.1475" y2="39.1494">
						<stop  offset="0" style="stop-color:#F58131"/>
						<stop  offset="1" style="stop-color:#F05123"/>
					</linearGradient>
					<polygon clip-path="url(#SVGID_13_)" fill="url(#SVGID_14_)" points="125.439,36.651 198.526,115.942 279.147,41.661 
						206.039,-37.644 					"/>
				</g>
			</g>
			<linearGradient id="SVGID_15_" gradientUnits="userSpaceOnUse" x1="5.4971" y1="126.293" x2="159.4053" y2="126.293">
				<stop  offset="0" style="stop-color:#F58131"/>
				<stop  offset="1" style="stop-color:#F05123"/>
			</linearGradient>
			<path fill="url(#SVGID_15_)" d="M159.405,74.981v174.455c-33.999,0-61.57-27.582-61.57-61.584V94.995
				c0-16.723-13.539-30.27-30.259-30.27H36.281c-17.012,0-30.784-13.781-30.784-30.799c0-16.99,13.772-30.777,30.784-30.777H87.58
				C127.267,3.149,159.405,35.308,159.405,74.981"/>
			<g>
				<defs>
					<path id="SVGID_16_" d="M159.422,3.165L159.422,3.165c0,33.99,27.559,61.561,61.562,61.561
						c17.007,0,30.776-13.781,30.776-30.799c0-17.008-13.77-30.762-30.776-30.762H159.422z"/>
				</defs>
				<clipPath id="SVGID_17_">
					<use xlink:href="#SVGID_16_"  overflow="visible"/>
				</clipPath>
				<linearGradient id="SVGID_18_" gradientUnits="userSpaceOnUse" x1="128.5684" y1="33.9492" x2="282.6299" y2="33.9492">
					<stop  offset="0" style="stop-color:#F58131"/>
					<stop  offset="1" style="stop-color:#F05123"/>
				</linearGradient>
				
					<polygon clip-path="url(#SVGID_17_)" fill="#FFFFFF" stroke="url(#SVGID_18_)" stroke-width="0.25" stroke-miterlimit="10" points="
					128.745,31.448 201.831,110.743 282.453,36.46 209.346,-42.845 				"/>
				<linearGradient id="SVGID_19_" gradientUnits="userSpaceOnUse" x1="159.2969" y1="33.9453" x2="251.8848" y2="33.9453">
					<stop  offset="0" style="stop-color:#F58131"/>
					<stop  offset="1" style="stop-color:#F05123"/>
				</linearGradient>
				
					<use xlink:href="#SVGID_16_"  overflow="visible" fill="none" stroke="url(#SVGID_19_)" stroke-width="0.25" stroke-miterlimit="10"/>
			</g>
		</g>
	</g>
	<rect x="-391.315" y="153.765" fill="#282323" width="340.494" height="117.273"/>
	<g>
		<g>
			<path fill="#FFFFFF" d="M-331.654,195.259v58.275c-11.356,0-20.571-9.215-20.571-20.57v-31.021
				c0-5.582-4.521-10.105-10.107-10.105h-10.45c-5.682,0-10.285-4.604-10.285-10.287c0-5.674,4.604-10.281,10.285-10.281h17.134
				C-342.391,171.269-331.654,182.013-331.654,195.259"/>
			<g>
				<defs>
					<path id="SVGID_20_" d="M-331.649,171.278L-331.649,171.278c0,11.348,9.206,20.559,20.562,20.559
						c5.683,0,10.281-4.604,10.281-10.287c0-5.682-4.599-10.271-10.281-10.271H-331.649z"/>
				</defs>
				<clipPath id="SVGID_21_">
					<use xlink:href="#SVGID_20_"  overflow="visible"/>
				</clipPath>
				
					<linearGradient id="SVGID_22_" gradientUnits="userSpaceOnUse" x1="-654.0112" y1="-19.4092" x2="-650.1848" y2="-19.4092" gradientTransform="matrix(9.4911 10.2971 -10.2971 9.4911 5672.9683 7080.3945)">
					<stop  offset="0" style="stop-color:#6CCDE5"/>
					<stop  offset="1" style="stop-color:#10B0D0"/>
				</linearGradient>
				<polygon clip-path="url(#SVGID_21_)" fill="url(#SVGID_22_)" points="-341.896,180.718 -317.485,207.208 -290.557,182.396 
					-314.976,155.903 				"/>
			</g>
		</g>
		<g id="text_2_">
			<path fill="#FFFFFF" d="M-263.216,222.38c0-0.66-0.26-1.25-0.749-1.713c-0.469-0.441-1.075-0.68-1.738-0.68h-18.243
				c-0.677,0-1.279,0.238-1.743,0.693c-0.463,0.453-0.71,1.047-0.71,1.699c0,0.67,0.251,1.252,0.724,1.703
				c0.455,0.441,1.053,0.662,1.729,0.662h6.553v18.881c0,0.682,0.273,1.301,0.764,1.766c0.485,0.461,1.109,0.691,1.803,0.691
				c0.685,0,1.313-0.23,1.803-0.68c0.524-0.469,0.794-1.088,0.794-1.777v-18.881h6.527c0.654,0,1.257-0.221,1.729-0.648
				C-263.476,223.649-263.216,223.06-263.216,222.38"/>
			<path fill="#FFFFFF" d="M-246.584,237.501c0.477-0.463,0.728-1.074,0.728-1.754c0-1.703-0.372-3.307-1.123-4.746
				c-0.762-1.475-1.89-2.67-3.346-3.547c-1.456-0.885-3.19-1.32-5.162-1.32c-2.098,0-3.91,0.477-5.366,1.416
				c-1.461,0.949-2.557,2.205-3.269,3.74c-0.688,1.494-1.04,3.139-1.04,4.902c0,3.152,0.95,5.646,2.8,7.42
				c1.835,1.756,4.396,2.645,7.612,2.645c1.552,0,2.813-0.125,3.826-0.404c0.993-0.275,2.003-0.678,3.018-1.227
				c1.184-0.641,1.426-1.477,1.426-2.074c0-0.658-0.252-1.236-0.746-1.658c-0.463-0.402-1.027-0.609-1.625-0.609
				c-0.382,0-0.732,0.082-1.053,0.229c-0.668,0.318-1.375,0.568-2.076,0.729c-0.694,0.17-1.531,0.252-2.479,0.252
				c-1.699,0-3.021-0.381-3.919-1.135c-0.667-0.553-1.113-1.256-1.374-2.146h11.305
				C-247.689,238.212-247.062,237.974-246.584,237.501 M-259.813,233.831c0.117-0.537,0.33-1.002,0.603-1.391
				c0.442-0.627,0.98-1.076,1.644-1.367c1.365-0.607,2.791-0.607,4.169,0c0.659,0.291,1.201,0.744,1.66,1.375
				c0.281,0.391,0.486,0.854,0.615,1.383H-259.813z"/>
			<path fill="#FFFFFF" d="M-240.725,218.708c-0.702,0-1.321,0.246-1.807,0.723c-0.5,0.477-0.755,1.102-0.755,1.773v22.422
				c0,0.682,0.269,1.301,0.763,1.766c0.485,0.461,1.105,0.691,1.799,0.691c0.685,0,1.309-0.23,1.807-0.68
				c0.521-0.469,0.794-1.088,0.794-1.777v-22.422c0-0.701-0.265-1.322-0.767-1.803C-239.368,218.946-240.01,218.708-240.725,218.708
				"/>
			<path fill="#FFFFFF" d="M-216.729,237.501c0.477-0.463,0.729-1.074,0.729-1.754c0-1.703-0.378-3.307-1.123-4.746
				c-0.758-1.475-1.886-2.67-3.351-3.547c-1.452-0.885-3.186-1.32-5.157-1.32c-2.099,0-3.906,0.477-5.366,1.416
				c-1.465,0.949-2.558,2.205-3.265,3.74c-0.688,1.494-1.04,3.139-1.04,4.902c0,3.152,0.945,5.646,2.787,7.42
				c1.848,1.756,4.404,2.645,7.62,2.645c1.557,0,2.813-0.125,3.827-0.404c0.988-0.275,2.003-0.678,3.013-1.227
				c1.183-0.641,1.438-1.477,1.438-2.074c0-0.658-0.265-1.236-0.759-1.658c-0.464-0.402-1.022-0.609-1.629-0.609
				c-0.373,0-0.729,0.082-1.045,0.229c-0.672,0.318-1.374,0.568-2.076,0.729c-0.689,0.17-1.53,0.252-2.483,0.252
				c-1.699,0-3.017-0.381-3.918-1.135c-0.659-0.553-1.115-1.256-1.375-2.146h11.305
				C-217.84,238.212-217.211,237.974-216.729,237.501 M-229.963,233.831c0.126-0.537,0.326-1.002,0.611-1.391
				c0.438-0.627,0.979-1.076,1.639-1.367c1.365-0.607,2.795-0.607,4.165,0c0.663,0.291,1.209,0.744,1.665,1.375
				c0.285,0.391,0.485,0.854,0.615,1.383H-229.963z"/>
			<path fill="#FFFFFF" d="M-186.662,227.269c-1.063-0.754-2.394-1.135-3.944-1.135c-2.774,0-4.998,0.939-6.641,2.809
				c-0.45-0.6-0.996-1.137-1.664-1.609c-1.127-0.793-2.492-1.199-4.048-1.199c-1.699,0-3.126,0.35-4.23,1.035
				c-0.43,0.254-0.824,0.555-1.205,0.865c-0.122-0.371-0.348-0.715-0.664-1.014c-0.489-0.473-1.117-0.719-1.807-0.719
				c-0.706,0-1.336,0.256-1.813,0.729c-0.494,0.484-0.754,1.096-0.754,1.777v14.811c0,0.689,0.26,1.301,0.768,1.773
				c0.485,0.453,1.101,0.691,1.799,0.691c0.681,0,1.309-0.23,1.799-0.68c0.524-0.477,0.793-1.088,0.793-1.785v-10.086
				c0.537-0.795,1.148-1.443,1.815-1.934c0.664-0.502,1.5-0.74,2.549-0.74c1.066,0,1.808,0.238,2.176,0.709
				c0.425,0.529,0.643,1.471,0.643,2.727v9.324c0,0.689,0.268,1.301,0.771,1.773c0.481,0.449,1.106,0.691,1.795,0.691
				s1.31-0.23,1.808-0.68c0.521-0.477,0.793-1.088,0.793-1.785v-10.086c0.537-0.795,1.148-1.443,1.816-1.934
				c0.658-0.502,1.491-0.74,2.548-0.74c1.071,0,1.8,0.238,2.181,0.709c0.412,0.529,0.642,1.471,0.642,2.727v9.324
				c0,0.689,0.256,1.301,0.763,1.773c0.477,0.453,1.104,0.691,1.803,0.691c0.681,0,1.306-0.23,1.799-0.68
				c0.516-0.477,0.798-1.088,0.798-1.785v-9.943c0-1.227-0.251-2.424-0.736-3.545C-184.82,228.972-185.614,228.009-186.662,227.269"
				/>
			<path fill="#FFFFFF" d="M-162.368,237.501c0.477-0.463,0.732-1.074,0.732-1.754c0-1.703-0.377-3.307-1.128-4.746
				c-0.758-1.475-1.885-2.67-3.35-3.547c-1.448-0.885-3.186-1.32-5.158-1.32c-2.098,0-3.904,0.477-5.366,1.416
				c-1.46,0.949-2.553,2.205-3.263,3.74c-0.689,1.494-1.041,3.139-1.041,4.902c0,3.152,0.945,5.646,2.797,7.42
				c1.837,1.756,4.394,2.645,7.61,2.645c1.556,0,2.817-0.125,3.827-0.404c0.988-0.275,2.006-0.678,3.021-1.227
				c1.18-0.641,1.431-1.477,1.431-2.074c0-0.658-0.265-1.236-0.759-1.658c-0.463-0.402-1.019-0.609-1.62-0.609
				c-0.382,0-0.733,0.082-1.054,0.229c-0.672,0.318-1.375,0.568-2.076,0.729c-0.689,0.17-1.529,0.252-2.479,0.252
				c-1.703,0-3.017-0.381-3.923-1.135c-0.658-0.553-1.113-1.256-1.369-2.146h11.3C-163.478,238.212-162.85,237.974-162.368,237.501
				 M-175.602,233.831c0.126-0.537,0.33-1.002,0.612-1.391c0.441-0.627,0.979-1.076,1.638-1.367c1.365-0.607,2.796-0.607,4.165,0
				c0.667,0.291,1.209,0.744,1.665,1.375c0.286,0.391,0.485,0.854,0.619,1.383H-175.602z"/>
			<path fill="#FFFFFF" d="M-142.47,218.708c-0.702,0-1.309,0.229-1.813,0.686c-0.52,0.473-0.793,1.1-0.793,1.811v6.541
				c-1.595-1.074-3.39-1.623-5.348-1.623c-1.664,0-3.256,0.414-4.737,1.205c-1.496,0.799-2.723,1.982-3.646,3.508
				c-0.928,1.531-1.399,3.334-1.399,5.357c0,2.027,0.472,3.832,1.399,5.361c0.923,1.525,2.149,2.713,3.646,3.516
				c1.481,0.793,3.073,1.188,4.737,1.188c2.033,0,3.879-0.576,5.521-1.727c0.134,0.322,0.343,0.623,0.619,0.873
				c0.504,0.459,1.11,0.68,1.813,0.68c0.686,0,1.31-0.23,1.79-0.691c0.498-0.473,0.768-1.084,0.768-1.766v-22.422
				c0-0.672-0.261-1.297-0.755-1.781C-141.152,218.954-141.78,218.708-142.47,218.708 M-147.177,240.874
				c-0.863,0.412-1.786,0.619-2.773,0.619c-1.569,0-2.787-0.438-3.715-1.352c-0.924-0.918-1.378-2.207-1.378-3.949
				s0.454-3.025,1.378-3.939c0.928-0.91,2.146-1.352,3.715-1.352c0.979,0,1.91,0.195,2.773,0.615
				c0.775,0.363,1.482,0.85,2.102,1.434v6.488C-145.694,240.024-146.401,240.509-147.177,240.874"/>
			<path fill="#FFFFFF" d="M-131.296,219.991c-0.533-0.508-1.205-0.768-1.945-0.768h-0.222c-0.741,0-1.417,0.26-1.946,0.768
				c-0.546,0.516-0.837,1.176-0.837,1.908v0.133c0,0.742,0.291,1.4,0.837,1.916c0.529,0.498,1.205,0.764,1.946,0.764h0.222
				c0.74,0,1.412-0.266,1.945-0.764c0.547-0.516,0.833-1.174,0.833-1.916v-0.133C-130.463,221.167-130.749,220.507-131.296,219.991"
				/>
			<path fill="#FFFFFF" d="M-133.39,226.302c-0.706,0-1.326,0.256-1.812,0.729c-0.498,0.484-0.754,1.096-0.754,1.777v14.811
				c0,0.689,0.26,1.301,0.764,1.773c0.484,0.453,1.104,0.691,1.802,0.691c0.681,0,1.306-0.23,1.804-0.68
				c0.516-0.477,0.793-1.088,0.793-1.785v-14.811c0-0.711-0.264-1.33-0.768-1.803C-132.036,226.54-132.679,226.302-133.39,226.302"
				/>
			<path fill="#FFFFFF" d="M-116.979,230.892c0.764,0,1.392,0.076,1.877,0.227c0.524,0.154,1.174,0.42,1.929,0.783
				c0.39,0.195,0.798,0.309,1.214,0.309c0.611,0,1.17-0.256,1.625-0.721c0.446-0.455,0.681-0.992,0.681-1.576
				c0-0.572-0.199-1.396-1.179-1.986c-0.859-0.516-1.799-0.947-2.805-1.277c-1.027-0.348-2.25-0.516-3.633-0.516
				c-1.897,0-3.67,0.402-5.278,1.193c-1.639,0.816-2.961,1.996-3.936,3.508c-0.984,1.521-1.486,3.324-1.486,5.357
				c0,2.037,0.502,3.844,1.486,5.371c0.975,1.516,2.297,2.691,3.936,3.498c1.608,0.791,3.381,1.205,5.278,1.205
				c1.383,0,2.605-0.176,3.633-0.518c1.006-0.328,1.945-0.754,2.81-1.277c0.975-0.59,1.174-1.406,1.174-1.988
				s-0.234-1.129-0.685-1.594c-0.451-0.461-1.01-0.705-1.621-0.705c-0.416,0-0.824,0.1-1.214,0.307
				c-0.749,0.369-1.404,0.629-1.929,0.787c-0.485,0.143-1.113,0.215-1.877,0.215c-1.872,0-3.285-0.477-4.313-1.447
				c-1.023-0.977-1.513-2.229-1.513-3.854c0-1.621,0.489-2.869,1.513-3.84C-120.265,231.364-118.852,230.892-116.979,230.892"/>
			<path fill="#FFFFFF" d="M-102.654,219.991c-0.533-0.508-1.2-0.768-1.946-0.768h-0.217c-0.745,0-1.418,0.26-1.945,0.768
				c-0.551,0.516-0.833,1.176-0.833,1.908v0.133c0,0.742,0.282,1.4,0.833,1.916c0.527,0.498,1.2,0.764,1.945,0.764h0.217
				c0.746,0,1.413-0.266,1.946-0.764c0.551-0.516,0.84-1.174,0.84-1.916v-0.133C-101.814,221.167-102.104,220.507-102.654,219.991"
				/>
			<path fill="#FFFFFF" d="M-104.748,226.302c-0.697,0-1.322,0.256-1.812,0.729c-0.49,0.484-0.745,1.096-0.745,1.777v14.811
				c0,0.689,0.255,1.301,0.762,1.773c0.485,0.453,1.106,0.691,1.795,0.691s1.313-0.23,1.808-0.68
				c0.516-0.477,0.793-1.088,0.793-1.785v-14.811c0-0.711-0.26-1.33-0.768-1.803C-103.392,226.54-104.032,226.302-104.748,226.302"
				/>
			<path fill="#FFFFFF" d="M-83.159,227.163c-1.126-0.689-2.457-1.029-3.965-1.029c-1.608,0-3.039,0.328-4.244,0.971
				c-0.594,0.311-1.17,0.691-1.726,1.121c-0.111-0.459-0.35-0.861-0.714-1.205c-0.495-0.463-1.123-0.719-1.82-0.719
				c-0.689,0-1.322,0.256-1.804,0.732c-0.489,0.48-0.754,1.092-0.754,1.773v14.818c0,0.682,0.269,1.301,0.759,1.766
				c0.489,0.461,1.113,0.691,1.799,0.691c0.688,0,1.309-0.23,1.807-0.68c0.524-0.469,0.798-1.088,0.798-1.777v-10.025
				c0.724-0.816,1.495-1.482,2.292-1.98c0.833-0.516,1.747-0.758,2.801-0.758c2.181,0,3.116,0.979,3.116,3.289v9.475
				c0,0.682,0.265,1.301,0.764,1.766c0.485,0.453,1.104,0.691,1.798,0.691c0.682,0,1.31-0.23,1.803-0.68
				c0.521-0.469,0.794-1.088,0.794-1.777v-9.816c0-1.375-0.295-2.67-0.88-3.828C-81.147,228.8-82.019,227.849-83.159,227.163"/>
			<path fill="#FFFFFF" d="M-60,230.085c-0.629-1.18-1.612-2.146-2.926-2.867c-1.292-0.721-2.878-1.084-4.711-1.084
				c-2.255,0-4.5,0.436-6.676,1.303c-0.988,0.4-1.534,1.172-1.534,2.172c0,0.611,0.247,1.166,0.698,1.59
				c0.434,0.404,0.979,0.631,1.578,0.631c0.199,0,0.416-0.031,0.688-0.096l0.057-0.025c0.845-0.262,1.625-0.465,2.306-0.59
				c0.654-0.117,1.431-0.188,2.293-0.188c1.461,0,2.514,0.26,3.134,0.777c0.472,0.406,0.745,1.055,0.836,1.953h-3.488
				c-2.939,0-5.237,0.566-6.814,1.688c-1.673,1.189-2.526,2.803-2.526,4.813c0,1.227,0.325,2.322,0.967,3.26
				c0.628,0.938,1.49,1.656,2.557,2.143c1.032,0.465,2.158,0.693,3.363,0.693c2.345,0,4.404-0.58,6.129-1.748
				c0.131,0.326,0.33,0.625,0.606,0.883c0.481,0.461,1.106,0.691,1.795,0.691s1.317-0.23,1.808-0.68
				c0.52-0.477,0.793-1.088,0.793-1.777v-9.779C-59.068,232.499-59.376,231.239-60,230.085 M-66.245,241.024
				c-0.877,0.426-1.787,0.643-2.714,0.643c-1.443,0-2.103-0.291-2.394-0.539c-0.394-0.336-0.571-0.748-0.571-1.307
				c0-0.396,0.104-0.846,0.871-1.229c0.793-0.389,2.05-0.578,3.745-0.578h3.073v1.611
				C-64.785,240.161-65.466,240.634-66.245,241.024"/>
			<path fill="#FFFFFF" d="M-283.946,183.296h6.553v18.881c0,0.689,0.273,1.301,0.764,1.771c0.485,0.455,1.109,0.693,1.803,0.693
				c0.689,0,1.313-0.229,1.803-0.688c0.524-0.467,0.798-1.084,0.798-1.777v-18.881h6.523c0.654,0,1.257-0.221,1.729-0.648
				c0.498-0.447,0.758-1.037,0.758-1.713c0-0.664-0.26-1.254-0.749-1.717c-0.469-0.449-1.075-0.68-1.738-0.68h-18.243
				c-0.677,0-1.279,0.238-1.743,0.691c-0.463,0.465-0.71,1.051-0.71,1.705c0,0.666,0.251,1.248,0.724,1.699
				C-285.221,183.065-284.623,183.296-283.946,183.296"/>
			<path fill="#FFFFFF" d="M-250.325,186.005c-1.461-0.875-3.194-1.322-5.162-1.322c-2.094,0-3.905,0.477-5.366,1.426
				c-1.465,0.941-2.557,2.207-3.269,3.732c-0.685,1.5-1.04,3.146-1.04,4.912c0,3.146,0.945,5.639,2.8,7.416
				c1.839,1.758,4.4,2.648,7.612,2.648c1.552,0,2.808-0.135,3.831-0.404c0.988-0.277,1.998-0.688,3.017-1.227
				c1.174-0.645,1.427-1.482,1.427-2.08c0-0.658-0.257-1.23-0.751-1.66c-0.463-0.395-1.022-0.604-1.625-0.604
				c-0.382,0-0.737,0.074-1.058,0.221c-0.663,0.322-1.365,0.568-2.071,0.732c-0.694,0.176-1.531,0.256-2.479,0.256
				c-1.699,0-3.017-0.381-3.919-1.135c-0.663-0.555-1.117-1.256-1.374-2.146h11.305c0.759,0,1.387-0.238,1.868-0.711
				c0.477-0.473,0.729-1.072,0.729-1.754c0-1.707-0.382-3.307-1.128-4.758C-247.737,188.075-248.864,186.886-250.325,186.005
				 M-251.118,192.382h-8.695c0.121-0.529,0.33-0.992,0.603-1.383c0.447-0.629,0.984-1.074,1.639-1.371
				c1.374-0.611,2.801-0.611,4.174,0c0.659,0.297,1.201,0.742,1.66,1.379C-251.457,191.397-251.248,191.856-251.118,192.382"/>
			<path fill="#FFFFFF" d="M-233.179,189.548c0.716,0,1.322-0.217,1.816-0.635c0.507-0.453,0.784-1.053,0.784-1.764
				c0-0.682-0.255-1.287-0.732-1.76c-0.477-0.465-1.092-0.701-1.79-0.701h-0.187c-1.781,0-3.437,0.658-4.937,1.967
				c-0.121-0.404-0.355-0.775-0.68-1.084c-0.495-0.473-1.132-0.719-1.821-0.719c-0.698,0-1.321,0.256-1.812,0.732
				c-0.489,0.48-0.75,1.092-0.75,1.781v14.811c0,0.689,0.265,1.301,0.768,1.771c0.485,0.455,1.109,0.693,1.794,0.693
				c0.689,0,1.309-0.238,1.803-0.678c0.525-0.473,0.803-1.094,0.803-1.787V191.97c0.546-0.715,1.209-1.291,1.984-1.717
				c0.832-0.463,1.764-0.705,2.774-0.705H-233.179z"/>
			<path fill="#FFFFFF" d="M-212.447,202.177v-9.773c0-1.344-0.313-2.613-0.932-3.768c-0.628-1.176-1.617-2.146-2.926-2.869
				c-1.292-0.721-2.878-1.084-4.712-1.084c-2.258,0-4.498,0.447-6.67,1.305c-0.989,0.4-1.531,1.162-1.531,2.172
				c0,0.619,0.234,1.166,0.69,1.59c0.433,0.414,0.983,0.639,1.577,0.639c0.195,0,0.425-0.039,0.685-0.1l0.069-0.021
				c0.837-0.262,1.617-0.465,2.293-0.59c0.659-0.129,1.436-0.195,2.306-0.195c1.448,0,2.506,0.268,3.126,0.785
				c0.468,0.395,0.745,1.049,0.841,1.945h-3.498c-2.934,0-5.223,0.572-6.809,1.695c-1.674,1.182-2.527,2.805-2.527,4.814
				c0,1.217,0.32,2.311,0.967,3.26c0.623,0.928,1.495,1.652,2.557,2.137c1.027,0.465,2.159,0.699,3.364,0.699
				c2.344,0,4.402-0.59,6.137-1.752c0.126,0.33,0.329,0.619,0.603,0.883c0.481,0.455,1.101,0.693,1.799,0.693
				c0.681,0,1.305-0.229,1.798-0.678C-212.721,203.487-212.447,202.87-212.447,202.177 M-219.625,199.575
				c-0.872,0.434-1.777,0.652-2.714,0.652c-1.443,0-2.102-0.297-2.392-0.549c-0.395-0.326-0.568-0.74-0.568-1.299
				c0-0.398,0.096-0.855,0.866-1.227c0.794-0.391,2.055-0.594,3.745-0.594h3.082v1.625
				C-218.164,198.722-218.845,199.194-219.625,199.575"/>
			<path fill="#FFFFFF" d="M-131.296,219.991c-0.533-0.508-1.205-0.768-1.945-0.768h-0.222c-0.741,0-1.417,0.26-1.946,0.768
				c-0.546,0.516-0.837,1.176-0.837,1.908v0.133c0,0.742,0.291,1.4,0.837,1.916c0.529,0.498,1.205,0.764,1.946,0.764h0.222
				c0.74,0,1.412-0.266,1.945-0.764c0.547-0.516,0.833-1.174,0.833-1.916v-0.133C-130.463,221.167-130.749,220.507-131.296,219.991"
				/>
			<path fill="#FFFFFF" d="M-102.654,219.991c-0.533-0.508-1.2-0.768-1.946-0.768h-0.217c-0.745,0-1.418,0.26-1.945,0.768
				c-0.551,0.516-0.833,1.176-0.833,1.908v0.133c0,0.742,0.282,1.4,0.833,1.916c0.527,0.498,1.2,0.764,1.945,0.764h0.217
				c0.746,0,1.413-0.266,1.946-0.764c0.551-0.516,0.84-1.174,0.84-1.916v-0.133C-101.814,221.167-102.104,220.507-102.654,219.991"
				/>
		</g>
	</g>
	<rect x="-391.315" y="309.765" fill="#282323" width="340.494" height="117.273"/>
	<g>
		<g>
			<path fill="#FFFFFF" d="M-331.654,351.259v58.275c-11.356,0-20.571-9.215-20.571-20.57v-31.021
				c0-5.582-4.521-10.105-10.107-10.105h-10.45c-5.682,0-10.285-4.604-10.285-10.287c0-5.674,4.604-10.281,10.285-10.281h17.134
				C-342.391,327.269-331.654,338.013-331.654,351.259"/>
			<g>
				<defs>
					<path id="SVGID_23_" d="M-331.649,327.278L-331.649,327.278c0,11.348,9.206,20.559,20.562,20.559
						c5.683,0,10.281-4.604,10.281-10.287c0-5.682-4.599-10.271-10.281-10.271H-331.649z"/>
				</defs>
				<clipPath id="SVGID_24_">
					<use xlink:href="#SVGID_23_"  overflow="visible"/>
				</clipPath>
				
					<linearGradient id="SVGID_25_" gradientUnits="userSpaceOnUse" x1="-645.8203" y1="-11.8584" x2="-641.9939" y2="-11.8584" gradientTransform="matrix(9.4911 10.2971 -10.2971 9.4911 5672.9683 7080.3945)">
					<stop  offset="0" style="stop-color:#F58131"/>
					<stop  offset="1" style="stop-color:#F05123"/>
				</linearGradient>
				<polygon clip-path="url(#SVGID_24_)" fill="url(#SVGID_25_)" points="-341.896,336.718 -317.485,363.208 -290.557,338.396 
					-314.976,311.903 				"/>
			</g>
		</g>
		<g id="text_1_">
			<path fill="#FFFFFF" d="M-263.216,378.38c0-0.66-0.26-1.25-0.749-1.713c-0.469-0.441-1.075-0.68-1.738-0.68h-18.243
				c-0.677,0-1.279,0.238-1.743,0.693c-0.463,0.453-0.71,1.047-0.71,1.699c0,0.67,0.251,1.252,0.724,1.703
				c0.455,0.441,1.053,0.662,1.729,0.662h6.553v18.881c0,0.682,0.273,1.301,0.764,1.766c0.485,0.461,1.109,0.691,1.803,0.691
				c0.685,0,1.313-0.23,1.803-0.68c0.524-0.469,0.794-1.088,0.794-1.777v-18.881h6.527c0.654,0,1.257-0.221,1.729-0.648
				C-263.476,379.649-263.216,379.06-263.216,378.38"/>
			<path fill="#FFFFFF" d="M-246.584,393.501c0.477-0.463,0.728-1.074,0.728-1.754c0-1.703-0.372-3.307-1.123-4.746
				c-0.762-1.475-1.89-2.67-3.346-3.547c-1.456-0.885-3.19-1.32-5.162-1.32c-2.098,0-3.91,0.477-5.366,1.416
				c-1.461,0.949-2.557,2.205-3.269,3.74c-0.688,1.494-1.04,3.139-1.04,4.902c0,3.152,0.95,5.646,2.8,7.42
				c1.835,1.756,4.396,2.645,7.612,2.645c1.552,0,2.813-0.125,3.826-0.404c0.993-0.275,2.003-0.678,3.018-1.227
				c1.184-0.641,1.426-1.477,1.426-2.074c0-0.658-0.252-1.236-0.746-1.658c-0.463-0.402-1.027-0.609-1.625-0.609
				c-0.382,0-0.732,0.082-1.053,0.229c-0.668,0.318-1.375,0.568-2.076,0.729c-0.694,0.17-1.531,0.252-2.479,0.252
				c-1.699,0-3.021-0.381-3.919-1.135c-0.667-0.553-1.113-1.256-1.374-2.146h11.305
				C-247.689,394.212-247.062,393.974-246.584,393.501 M-259.813,389.831c0.117-0.537,0.33-1.002,0.603-1.391
				c0.442-0.627,0.98-1.076,1.644-1.367c1.365-0.607,2.791-0.607,4.169,0c0.659,0.291,1.201,0.744,1.66,1.375
				c0.281,0.391,0.486,0.854,0.615,1.383H-259.813z"/>
			<path fill="#FFFFFF" d="M-240.725,374.708c-0.702,0-1.321,0.246-1.807,0.723c-0.5,0.477-0.755,1.102-0.755,1.773v22.422
				c0,0.682,0.269,1.301,0.763,1.766c0.485,0.461,1.105,0.691,1.799,0.691c0.685,0,1.309-0.23,1.807-0.68
				c0.521-0.469,0.794-1.088,0.794-1.777v-22.422c0-0.701-0.265-1.322-0.767-1.803C-239.368,374.946-240.01,374.708-240.725,374.708
				"/>
			<path fill="#FFFFFF" d="M-216.729,393.501c0.477-0.463,0.729-1.074,0.729-1.754c0-1.703-0.378-3.307-1.123-4.746
				c-0.758-1.475-1.886-2.67-3.351-3.547c-1.452-0.885-3.186-1.32-5.157-1.32c-2.099,0-3.906,0.477-5.366,1.416
				c-1.465,0.949-2.558,2.205-3.265,3.74c-0.688,1.494-1.04,3.139-1.04,4.902c0,3.152,0.945,5.646,2.787,7.42
				c1.848,1.756,4.404,2.645,7.62,2.645c1.557,0,2.813-0.125,3.827-0.404c0.988-0.275,2.003-0.678,3.013-1.227
				c1.183-0.641,1.438-1.477,1.438-2.074c0-0.658-0.265-1.236-0.759-1.658c-0.464-0.402-1.022-0.609-1.629-0.609
				c-0.373,0-0.729,0.082-1.045,0.229c-0.672,0.318-1.374,0.568-2.076,0.729c-0.689,0.17-1.53,0.252-2.483,0.252
				c-1.699,0-3.017-0.381-3.918-1.135c-0.659-0.553-1.115-1.256-1.375-2.146h11.305
				C-217.84,394.212-217.211,393.974-216.729,393.501 M-229.963,389.831c0.126-0.537,0.326-1.002,0.611-1.391
				c0.438-0.627,0.979-1.076,1.639-1.367c1.365-0.607,2.795-0.607,4.165,0c0.663,0.291,1.209,0.744,1.665,1.375
				c0.285,0.391,0.485,0.854,0.615,1.383H-229.963z"/>
			<path fill="#FFFFFF" d="M-186.662,383.269c-1.063-0.754-2.394-1.135-3.944-1.135c-2.774,0-4.998,0.939-6.641,2.809
				c-0.45-0.6-0.996-1.137-1.664-1.609c-1.127-0.793-2.492-1.199-4.048-1.199c-1.699,0-3.126,0.35-4.23,1.035
				c-0.43,0.254-0.824,0.555-1.205,0.865c-0.122-0.371-0.348-0.715-0.664-1.014c-0.489-0.473-1.117-0.719-1.807-0.719
				c-0.706,0-1.336,0.256-1.813,0.729c-0.494,0.484-0.754,1.096-0.754,1.777v14.811c0,0.689,0.26,1.301,0.768,1.773
				c0.485,0.453,1.101,0.691,1.799,0.691c0.681,0,1.309-0.23,1.799-0.68c0.524-0.477,0.793-1.088,0.793-1.785v-10.086
				c0.537-0.795,1.148-1.443,1.815-1.934c0.664-0.502,1.5-0.74,2.549-0.74c1.066,0,1.808,0.238,2.176,0.709
				c0.425,0.529,0.643,1.471,0.643,2.727v9.324c0,0.689,0.268,1.301,0.771,1.773c0.481,0.449,1.106,0.691,1.795,0.691
				s1.31-0.23,1.808-0.68c0.521-0.477,0.793-1.088,0.793-1.785v-10.086c0.537-0.795,1.148-1.443,1.816-1.934
				c0.658-0.502,1.491-0.74,2.548-0.74c1.071,0,1.8,0.238,2.181,0.709c0.412,0.529,0.642,1.471,0.642,2.727v9.324
				c0,0.689,0.256,1.301,0.763,1.773c0.477,0.453,1.104,0.691,1.803,0.691c0.681,0,1.306-0.23,1.799-0.68
				c0.516-0.477,0.798-1.088,0.798-1.785v-9.943c0-1.227-0.251-2.424-0.736-3.545C-184.82,384.972-185.614,384.009-186.662,383.269"
				/>
			<path fill="#FFFFFF" d="M-162.368,393.501c0.477-0.463,0.732-1.074,0.732-1.754c0-1.703-0.377-3.307-1.128-4.746
				c-0.758-1.475-1.885-2.67-3.35-3.547c-1.448-0.885-3.186-1.32-5.158-1.32c-2.098,0-3.904,0.477-5.366,1.416
				c-1.46,0.949-2.553,2.205-3.263,3.74c-0.689,1.494-1.041,3.139-1.041,4.902c0,3.152,0.945,5.646,2.797,7.42
				c1.837,1.756,4.394,2.645,7.61,2.645c1.556,0,2.817-0.125,3.827-0.404c0.988-0.275,2.006-0.678,3.021-1.227
				c1.18-0.641,1.431-1.477,1.431-2.074c0-0.658-0.265-1.236-0.759-1.658c-0.463-0.402-1.019-0.609-1.62-0.609
				c-0.382,0-0.733,0.082-1.054,0.229c-0.672,0.318-1.375,0.568-2.076,0.729c-0.689,0.17-1.529,0.252-2.479,0.252
				c-1.703,0-3.017-0.381-3.923-1.135c-0.658-0.553-1.113-1.256-1.369-2.146h11.3C-163.478,394.212-162.85,393.974-162.368,393.501
				 M-175.602,389.831c0.126-0.537,0.33-1.002,0.612-1.391c0.441-0.627,0.979-1.076,1.638-1.367c1.365-0.607,2.796-0.607,4.165,0
				c0.667,0.291,1.209,0.744,1.665,1.375c0.286,0.391,0.485,0.854,0.619,1.383H-175.602z"/>
			<path fill="#FFFFFF" d="M-142.47,374.708c-0.702,0-1.309,0.229-1.813,0.686c-0.52,0.473-0.793,1.1-0.793,1.811v6.541
				c-1.595-1.074-3.39-1.623-5.348-1.623c-1.664,0-3.256,0.414-4.737,1.205c-1.496,0.799-2.723,1.982-3.646,3.508
				c-0.928,1.531-1.399,3.334-1.399,5.357c0,2.027,0.472,3.832,1.399,5.361c0.923,1.525,2.149,2.713,3.646,3.516
				c1.481,0.793,3.073,1.188,4.737,1.188c2.033,0,3.879-0.576,5.521-1.727c0.134,0.322,0.343,0.623,0.619,0.873
				c0.504,0.459,1.11,0.68,1.813,0.68c0.686,0,1.31-0.23,1.79-0.691c0.498-0.473,0.768-1.084,0.768-1.766v-22.422
				c0-0.672-0.261-1.297-0.755-1.781C-141.152,374.954-141.78,374.708-142.47,374.708 M-147.177,396.874
				c-0.863,0.412-1.786,0.619-2.773,0.619c-1.569,0-2.787-0.438-3.715-1.352c-0.924-0.918-1.378-2.207-1.378-3.949
				s0.454-3.025,1.378-3.939c0.928-0.91,2.146-1.352,3.715-1.352c0.979,0,1.91,0.195,2.773,0.615
				c0.775,0.363,1.482,0.85,2.102,1.434v6.488C-145.694,396.024-146.401,396.509-147.177,396.874"/>
			<path fill="#FFFFFF" d="M-131.296,375.991c-0.533-0.508-1.205-0.768-1.945-0.768h-0.222c-0.741,0-1.417,0.26-1.946,0.768
				c-0.546,0.516-0.837,1.176-0.837,1.908v0.133c0,0.742,0.291,1.4,0.837,1.916c0.529,0.498,1.205,0.764,1.946,0.764h0.222
				c0.74,0,1.412-0.266,1.945-0.764c0.547-0.516,0.833-1.174,0.833-1.916v-0.133C-130.463,377.167-130.749,376.507-131.296,375.991"
				/>
			<path fill="#FFFFFF" d="M-133.39,382.302c-0.706,0-1.326,0.256-1.812,0.729c-0.498,0.484-0.754,1.096-0.754,1.777v14.811
				c0,0.689,0.26,1.301,0.764,1.773c0.484,0.453,1.104,0.691,1.802,0.691c0.681,0,1.306-0.23,1.804-0.68
				c0.516-0.477,0.793-1.088,0.793-1.785v-14.811c0-0.711-0.264-1.33-0.768-1.803C-132.036,382.54-132.679,382.302-133.39,382.302"
				/>
			<path fill="#FFFFFF" d="M-116.979,386.892c0.764,0,1.392,0.076,1.877,0.227c0.524,0.154,1.174,0.42,1.929,0.783
				c0.39,0.195,0.798,0.309,1.214,0.309c0.611,0,1.17-0.256,1.625-0.721c0.446-0.455,0.681-0.992,0.681-1.576
				c0-0.572-0.199-1.396-1.179-1.986c-0.859-0.516-1.799-0.947-2.805-1.277c-1.027-0.348-2.25-0.516-3.633-0.516
				c-1.897,0-3.67,0.402-5.278,1.193c-1.639,0.816-2.961,1.996-3.936,3.508c-0.984,1.521-1.486,3.324-1.486,5.357
				c0,2.037,0.502,3.844,1.486,5.371c0.975,1.516,2.297,2.691,3.936,3.498c1.608,0.791,3.381,1.205,5.278,1.205
				c1.383,0,2.605-0.176,3.633-0.518c1.006-0.328,1.945-0.754,2.81-1.277c0.975-0.59,1.174-1.406,1.174-1.988
				s-0.234-1.129-0.685-1.594c-0.451-0.461-1.01-0.705-1.621-0.705c-0.416,0-0.824,0.1-1.214,0.307
				c-0.749,0.369-1.404,0.629-1.929,0.787c-0.485,0.143-1.113,0.215-1.877,0.215c-1.872,0-3.285-0.477-4.313-1.447
				c-1.023-0.977-1.513-2.229-1.513-3.854c0-1.621,0.489-2.869,1.513-3.84C-120.265,387.364-118.852,386.892-116.979,386.892"/>
			<path fill="#FFFFFF" d="M-102.654,375.991c-0.533-0.508-1.2-0.768-1.946-0.768h-0.217c-0.745,0-1.418,0.26-1.945,0.768
				c-0.551,0.516-0.833,1.176-0.833,1.908v0.133c0,0.742,0.282,1.4,0.833,1.916c0.527,0.498,1.2,0.764,1.945,0.764h0.217
				c0.746,0,1.413-0.266,1.946-0.764c0.551-0.516,0.84-1.174,0.84-1.916v-0.133C-101.814,377.167-102.104,376.507-102.654,375.991"
				/>
			<path fill="#FFFFFF" d="M-104.748,382.302c-0.697,0-1.322,0.256-1.812,0.729c-0.49,0.484-0.745,1.096-0.745,1.777v14.811
				c0,0.689,0.255,1.301,0.762,1.773c0.485,0.453,1.106,0.691,1.795,0.691s1.313-0.23,1.808-0.68
				c0.516-0.477,0.793-1.088,0.793-1.785v-14.811c0-0.711-0.26-1.33-0.768-1.803C-103.392,382.54-104.032,382.302-104.748,382.302"
				/>
			<path fill="#FFFFFF" d="M-83.159,383.163c-1.126-0.689-2.457-1.029-3.965-1.029c-1.608,0-3.039,0.328-4.244,0.971
				c-0.594,0.311-1.17,0.691-1.726,1.121c-0.111-0.459-0.35-0.861-0.714-1.205c-0.495-0.463-1.123-0.719-1.82-0.719
				c-0.689,0-1.322,0.256-1.804,0.732c-0.489,0.48-0.754,1.092-0.754,1.773v14.818c0,0.682,0.269,1.301,0.759,1.766
				c0.489,0.461,1.113,0.691,1.799,0.691c0.688,0,1.309-0.23,1.807-0.68c0.524-0.469,0.798-1.088,0.798-1.777v-10.025
				c0.724-0.816,1.495-1.482,2.292-1.98c0.833-0.516,1.747-0.758,2.801-0.758c2.181,0,3.116,0.979,3.116,3.289v9.475
				c0,0.682,0.265,1.301,0.764,1.766c0.485,0.453,1.104,0.691,1.798,0.691c0.682,0,1.31-0.23,1.803-0.68
				c0.521-0.469,0.794-1.088,0.794-1.777v-9.816c0-1.375-0.295-2.67-0.88-3.828C-81.147,384.8-82.019,383.849-83.159,383.163"/>
			<path fill="#FFFFFF" d="M-60,386.085c-0.629-1.18-1.612-2.146-2.926-2.867c-1.292-0.721-2.878-1.084-4.711-1.084
				c-2.255,0-4.5,0.436-6.676,1.303c-0.988,0.4-1.534,1.172-1.534,2.172c0,0.611,0.247,1.166,0.698,1.59
				c0.434,0.404,0.979,0.631,1.578,0.631c0.199,0,0.416-0.031,0.688-0.096l0.057-0.025c0.845-0.262,1.625-0.465,2.306-0.59
				c0.654-0.117,1.431-0.188,2.293-0.188c1.461,0,2.514,0.26,3.134,0.777c0.472,0.406,0.745,1.055,0.836,1.953h-3.488
				c-2.939,0-5.237,0.566-6.814,1.688c-1.673,1.189-2.526,2.803-2.526,4.813c0,1.227,0.325,2.322,0.967,3.26
				c0.628,0.938,1.49,1.656,2.557,2.143c1.032,0.465,2.158,0.693,3.363,0.693c2.345,0,4.404-0.58,6.129-1.748
				c0.131,0.326,0.33,0.625,0.606,0.883c0.481,0.461,1.106,0.691,1.795,0.691s1.317-0.23,1.808-0.68
				c0.52-0.477,0.793-1.088,0.793-1.777v-9.779C-59.068,388.499-59.376,387.239-60,386.085 M-66.245,397.024
				c-0.877,0.426-1.787,0.643-2.714,0.643c-1.443,0-2.103-0.291-2.394-0.539c-0.394-0.336-0.571-0.748-0.571-1.307
				c0-0.396,0.104-0.846,0.871-1.229c0.793-0.389,2.05-0.578,3.745-0.578h3.073v1.611
				C-64.785,396.161-65.466,396.634-66.245,397.024"/>
			<path fill="#FFFFFF" d="M-283.946,339.296h6.553v18.881c0,0.689,0.273,1.301,0.764,1.771c0.485,0.455,1.109,0.693,1.803,0.693
				c0.689,0,1.313-0.229,1.803-0.688c0.524-0.467,0.798-1.084,0.798-1.777v-18.881h6.523c0.654,0,1.257-0.221,1.729-0.648
				c0.498-0.447,0.758-1.037,0.758-1.713c0-0.664-0.26-1.254-0.749-1.717c-0.469-0.449-1.075-0.68-1.738-0.68h-18.243
				c-0.677,0-1.279,0.238-1.743,0.691c-0.463,0.465-0.71,1.051-0.71,1.705c0,0.666,0.251,1.248,0.724,1.699
				C-285.221,339.065-284.623,339.296-283.946,339.296"/>
			<path fill="#FFFFFF" d="M-250.325,342.005c-1.461-0.875-3.194-1.322-5.162-1.322c-2.094,0-3.905,0.477-5.366,1.426
				c-1.465,0.941-2.557,2.207-3.269,3.732c-0.685,1.5-1.04,3.146-1.04,4.912c0,3.146,0.945,5.639,2.8,7.416
				c1.839,1.758,4.4,2.648,7.612,2.648c1.552,0,2.808-0.135,3.831-0.404c0.988-0.277,1.998-0.688,3.017-1.227
				c1.174-0.645,1.427-1.482,1.427-2.08c0-0.658-0.257-1.23-0.751-1.66c-0.463-0.395-1.022-0.604-1.625-0.604
				c-0.382,0-0.737,0.074-1.058,0.221c-0.663,0.322-1.365,0.568-2.071,0.732c-0.694,0.176-1.531,0.256-2.479,0.256
				c-1.699,0-3.017-0.381-3.919-1.135c-0.663-0.555-1.117-1.256-1.374-2.146h11.305c0.759,0,1.387-0.238,1.868-0.711
				c0.477-0.473,0.729-1.072,0.729-1.754c0-1.707-0.382-3.307-1.128-4.758C-247.737,344.075-248.864,342.886-250.325,342.005
				 M-251.118,348.382h-8.695c0.121-0.529,0.33-0.992,0.603-1.383c0.447-0.629,0.984-1.074,1.639-1.371
				c1.374-0.611,2.801-0.611,4.174,0c0.659,0.297,1.201,0.742,1.66,1.379C-251.457,347.397-251.248,347.856-251.118,348.382"/>
			<path fill="#FFFFFF" d="M-233.179,345.548c0.716,0,1.322-0.217,1.816-0.635c0.507-0.453,0.784-1.053,0.784-1.764
				c0-0.682-0.255-1.287-0.732-1.76c-0.477-0.465-1.092-0.701-1.79-0.701h-0.187c-1.781,0-3.437,0.658-4.937,1.967
				c-0.121-0.404-0.355-0.775-0.68-1.084c-0.495-0.473-1.132-0.719-1.821-0.719c-0.698,0-1.321,0.256-1.812,0.732
				c-0.489,0.48-0.75,1.092-0.75,1.781v14.811c0,0.689,0.265,1.301,0.768,1.771c0.485,0.455,1.109,0.693,1.794,0.693
				c0.689,0,1.309-0.238,1.803-0.678c0.525-0.473,0.803-1.094,0.803-1.787V347.97c0.546-0.715,1.209-1.291,1.984-1.717
				c0.832-0.463,1.764-0.705,2.774-0.705H-233.179z"/>
			<path fill="#FFFFFF" d="M-212.447,358.177v-9.773c0-1.344-0.313-2.613-0.932-3.768c-0.628-1.176-1.617-2.146-2.926-2.869
				c-1.292-0.721-2.878-1.084-4.712-1.084c-2.258,0-4.498,0.447-6.67,1.305c-0.989,0.4-1.531,1.162-1.531,2.172
				c0,0.619,0.234,1.166,0.69,1.59c0.433,0.414,0.983,0.639,1.577,0.639c0.195,0,0.425-0.039,0.685-0.1l0.069-0.021
				c0.837-0.262,1.617-0.465,2.293-0.59c0.659-0.129,1.436-0.195,2.306-0.195c1.448,0,2.506,0.268,3.126,0.785
				c0.468,0.395,0.745,1.049,0.841,1.945h-3.498c-2.934,0-5.223,0.572-6.809,1.695c-1.674,1.182-2.527,2.805-2.527,4.814
				c0,1.217,0.32,2.311,0.967,3.26c0.623,0.928,1.495,1.652,2.557,2.137c1.027,0.465,2.159,0.699,3.364,0.699
				c2.344,0,4.402-0.59,6.137-1.752c0.126,0.33,0.329,0.619,0.603,0.883c0.481,0.455,1.101,0.693,1.799,0.693
				c0.681,0,1.305-0.229,1.798-0.678C-212.721,359.487-212.447,358.87-212.447,358.177 M-219.625,355.575
				c-0.872,0.434-1.777,0.652-2.714,0.652c-1.443,0-2.102-0.297-2.392-0.549c-0.395-0.326-0.568-0.74-0.568-1.299
				c0-0.398,0.096-0.855,0.866-1.227c0.794-0.391,2.055-0.594,3.745-0.594h3.082v1.625
				C-218.164,354.722-218.845,355.194-219.625,355.575"/>
			<path fill="#FFFFFF" d="M-131.296,375.991c-0.533-0.508-1.205-0.768-1.945-0.768h-0.222c-0.741,0-1.417,0.26-1.946,0.768
				c-0.546,0.516-0.837,1.176-0.837,1.908v0.133c0,0.742,0.291,1.4,0.837,1.916c0.529,0.498,1.205,0.764,1.946,0.764h0.222
				c0.74,0,1.412-0.266,1.945-0.764c0.547-0.516,0.833-1.174,0.833-1.916v-0.133C-130.463,377.167-130.749,376.507-131.296,375.991"
				/>
			<path fill="#FFFFFF" d="M-102.654,375.991c-0.533-0.508-1.2-0.768-1.946-0.768h-0.217c-0.745,0-1.418,0.26-1.945,0.768
				c-0.551,0.516-0.833,1.176-0.833,1.908v0.133c0,0.742,0.282,1.4,0.833,1.916c0.527,0.498,1.2,0.764,1.945,0.764h0.217
				c0.746,0,1.413-0.266,1.946-0.764c0.551-0.516,0.84-1.174,0.84-1.916v-0.133C-101.814,377.167-102.104,376.507-102.654,375.991"
				/>
		</g>
	</g>
</g>
</svg>
