<?xml version="1.0" encoding="utf-8"?>
<!-- Generator: Adobe Illustrator 16.0.0, SVG Export Plug-In . SVG Version: 6.00 Build 0)  -->
<!DOCTYPE svg PUBLIC "-//W3C//DTD SVG 1.1//EN" "http://www.w3.org/Graphics/SVG/1.1/DTD/svg11.dtd">
<svg version="1.1" id="Layer_1" xmlns="http://www.w3.org/2000/svg" xmlns:xlink="http://www.w3.org/1999/xlink" x="0px" y="0px"
	 width="571.906px" height="202.341px" viewBox="5571.218 2563.72 571.906 202.341"
	 enable-background="new 5571.218 2563.72 571.906 202.341" xml:space="preserve">
<rect x="1127.075" y="2853.246" fill="#33B9D7" width="6082.341" height="1672.239"/>
<g>
	<g>
		<g>
			<g>
				<path opacity="0.4" fill="#FFFFFF" d="M3895.787-1310.696v552.493c-107.677,0-194.991-87.345-194.991-195.034v-294.076
					c0-52.954-42.877-95.863-95.831-95.863h-99.104c-53.875,0-97.495-43.645-97.495-97.533c0-53.813,43.62-97.477,97.495-97.477
					h162.462C3794.005-1538.186,3895.787-1436.335,3895.787-1310.696"/>
				<g opacity="0.4">
					<defs>
						<path id="SVGID_1_" opacity="0.4" d="M3895.787-1538.186L3895.787-1538.186c0,107.646,87.277,194.96,194.96,194.96
							c53.863,0,97.472-43.651,97.472-97.539c0-53.869-43.608-97.421-97.472-97.421H3895.787z"/>
					</defs>
					<use xlink:href="#SVGID_1_"  overflow="visible" fill="#FFFFFF"/>
					<clipPath id="SVGID_2_">
						<use xlink:href="#SVGID_1_"  overflow="visible"/>
					</clipPath>
					<polygon clip-path="url(#SVGID_2_)" fill="#FFFFFF" points="3798.632,-1448.608 4030.099,-1197.496 4285.423,-1432.742 
						4053.889,-1683.9 					"/>
				</g>
			</g>
			<linearGradient id="SVGID_3_" gradientUnits="userSpaceOnUse" x1="3418.7813" y1="-1164.7158" x2="3906.2041" y2="-1164.7158">
				<stop  offset="0" style="stop-color:#F48031"/>
				<stop  offset="1" style="stop-color:#EF5023"/>
			</linearGradient>
			<path fill="url(#SVGID_3_)" d="M3906.204-1327.218v552.494c-107.678,0-194.991-87.352-194.991-195.035v-294.076
				c0-52.96-42.878-95.863-95.832-95.863h-99.11c-53.875,0-97.489-43.645-97.489-97.539c0-53.808,43.614-97.471,97.489-97.471
				h162.462C3804.422-1554.707,3906.204-1452.863,3906.204-1327.218"/>
			<g>
				<defs>
					<path id="SVGID_4_" d="M3906.253-1554.658L3906.253-1554.658c0,107.646,87.277,194.96,194.967,194.96
						c53.856,0,97.465-43.645,97.465-97.539c0-53.863-43.608-97.421-97.465-97.421H3906.253z"/>
				</defs>
				<clipPath id="SVGID_5_">
					<use xlink:href="#SVGID_4_"  overflow="visible"/>
				</clipPath>
				<linearGradient id="SVGID_6_" gradientUnits="userSpaceOnUse" x1="3808.9277" y1="-1457.167" x2="4296.0654" y2="-1457.167">
					<stop  offset="0" style="stop-color:#F48031"/>
					<stop  offset="1" style="stop-color:#EF5023"/>
				</linearGradient>
				
					<polygon clip-path="url(#SVGID_5_)" fill="#FFFFFF" stroke="url(#SVGID_6_)" stroke-width="0.25" stroke-miterlimit="10" points="
					3809.104,-1465.086 4040.564,-1213.961 4295.889,-1449.214 4064.36,-1700.372 				"/>
				<linearGradient id="SVGID_7_" gradientUnits="userSpaceOnUse" x1="3906.1279" y1="-1457.1777" x2="4198.8096" y2="-1457.1777">
					<stop  offset="0" style="stop-color:#F48031"/>
					<stop  offset="1" style="stop-color:#EF5023"/>
				</linearGradient>
				
					<use xlink:href="#SVGID_4_"  overflow="visible" fill="none" stroke="url(#SVGID_7_)" stroke-width="0.25" stroke-miterlimit="10"/>
			</g>
		</g>
	</g>
	<g id="text_3_">
		<path fill="#FFFFFF" d="M4502.973-1072.048c0-7.268-2.857-13.763-8.245-18.854c-5.159-4.862-11.839-7.484-19.138-7.484h-200.843
			c-7.447,0-14.084,2.623-19.188,7.633c-5.097,4.985-7.818,11.523-7.818,18.705c0,7.379,2.765,13.787,7.967,18.754
			c5.011,4.855,11.592,7.286,19.039,7.286h72.142v207.863c0,7.503,3.012,14.319,8.405,19.435c5.345,5.079,12.217,7.615,19.85,7.615
			c7.534,0,14.462-2.536,19.843-7.485c5.777-5.159,8.746-11.975,8.746-19.564v-207.863h71.857c7.206,0,13.837-2.431,19.039-7.138
			C4500.115-1058.069,4502.973-1064.563,4502.973-1072.048"/>
		<path fill="#FFFFFF" d="M4686.075-905.578c5.245-5.097,8.01-11.827,8.01-19.305c0-18.754-4.095-36.408-12.364-52.255
			c-8.388-16.23-20.802-29.393-36.835-39.042c-16.026-9.742-35.121-14.536-56.825-14.536c-23.097,0-43.052,5.246-59.078,15.587
			c-16.088,10.447-28.15,24.278-35.987,41.177c-7.577,16.447-11.449,34.552-11.449,53.968c0,34.707,10.46,62.164,30.822,81.686
			c20.202,19.336,48.396,29.115,83.808,29.115c17.084,0,30.964-1.373,42.123-4.447c10.93-3.031,22.051-7.466,33.222-13.503
			c13.027-7.058,15.692-16.255,15.692-22.837c0-7.25-2.771-13.614-8.214-18.253c-5.097-4.435-11.307-6.711-17.889-6.711
			c-4.206,0-8.06,0.903-11.591,2.517c-7.349,3.501-15.137,6.254-22.855,8.017c-7.646,1.874-16.855,2.777-27.297,2.777
			c-18.705,0-33.266-4.194-43.144-12.495c-7.343-6.087-12.254-13.825-15.13-23.629h124.458
			C4673.902-897.748,4680.817-900.37,4686.075-905.578 M4540.432-945.982c1.287-5.913,3.631-11.028,6.631-15.309
			c4.874-6.903,10.794-11.845,18.093-15.049c15.03-6.687,30.729-6.687,45.896,0c7.262,3.204,13.225,8.189,18.278,15.136
			c3.099,4.305,5.356,9.396,6.772,15.222H4540.432z"/>
		<path fill="#FFFFFF" d="M4750.584-1112.47c-7.732,0-14.549,2.709-19.893,7.955c-5.506,5.245-8.308,12.13-8.308,19.528v246.844
			c0,7.503,2.957,14.319,8.394,19.435c5.345,5.079,12.174,7.615,19.807,7.615c7.533,0,14.405-2.536,19.886-7.485
			c5.74-5.159,8.74-11.975,8.74-19.564v-246.844c0-7.72-2.913-14.561-8.437-19.85
			C4765.516-1109.848,4758.451-1112.47,4750.584-1112.47"/>
		<path fill="#FFFFFF" d="M5014.747-905.578c5.245-5.097,8.022-11.827,8.022-19.305c0-18.754-4.163-36.408-12.364-52.255
			c-8.345-16.23-20.766-29.393-36.891-39.042c-15.983-9.742-35.065-14.536-56.776-14.536c-23.104,0-43.002,5.246-59.078,15.587
			c-16.125,10.447-28.156,24.278-35.938,41.177c-7.583,16.447-11.449,34.552-11.449,53.968c0,34.707,10.404,62.164,30.68,81.686
			c20.345,19.336,48.488,29.115,83.894,29.115c17.135,0,30.965-1.373,42.136-4.447c10.874-3.031,22.046-7.466,33.167-13.503
			c13.014-7.058,15.834-16.255,15.834-22.837c0-7.25-2.912-13.614-8.355-18.253c-5.104-4.435-11.252-6.711-17.932-6.711
			c-4.107,0-8.018,0.903-11.506,2.517c-7.391,3.501-15.123,6.254-22.855,8.017c-7.59,1.874-16.843,2.777-27.34,2.777
			c-18.704,0-33.209-4.194-43.131-12.495c-7.256-6.087-12.278-13.825-15.136-23.629h124.452
			C5002.524-897.748,5009.446-900.37,5014.747-905.578 M4869.061-945.982c1.386-5.913,3.587-11.028,6.729-15.309
			c4.813-6.903,10.781-11.845,18.037-15.049c15.03-6.687,30.772-6.687,45.853,0c7.306,3.204,13.312,8.189,18.334,15.136
			c3.136,4.305,5.345,9.396,6.772,15.222H4869.061z"/>
		<path fill="#FFFFFF" d="M5345.763-1018.228c-11.697-8.301-26.35-12.489-43.422-12.489c-30.544,0-55.025,10.342-73.112,30.915
			c-4.954-6.6-10.961-12.513-18.315-17.715c-12.408-8.728-27.438-13.2-44.566-13.2c-18.705,0-34.416,3.848-46.57,11.394
			c-4.732,2.795-9.074,6.105-13.268,9.525c-1.342-4.088-3.829-7.868-7.312-11.159c-5.388-5.202-12.303-7.911-19.893-7.911
			c-7.769,0-14.702,2.814-19.954,8.017c-5.438,5.332-8.295,12.062-8.295,19.571v163.049c0,7.589,2.857,14.319,8.449,19.521
			c5.344,4.992,12.117,7.615,19.8,7.615c7.497,0,14.406-2.536,19.806-7.485c5.771-5.245,8.729-11.975,8.729-19.651v-111.036
			c5.913-8.752,12.643-15.891,19.984-21.291c7.312-5.523,16.516-8.146,28.064-8.146c11.74,0,19.898,2.623,23.949,7.8
			c4.684,5.833,7.076,16.193,7.076,30.018v102.654c0,7.589,2.945,14.319,8.486,19.521c5.295,4.949,12.18,7.615,19.757,7.615
			c7.583,0,14.419-2.536,19.899-7.485c5.733-5.245,8.733-11.975,8.733-19.651v-111.036c5.913-8.752,12.644-15.891,19.997-21.291
			c7.244-5.523,16.417-8.146,28.045-8.146c11.797,0,19.818,2.623,24.013,7.8c4.534,5.833,7.063,16.193,7.063,30.018v102.654
			c0,7.589,2.814,14.319,8.395,19.521c5.244,4.992,12.16,7.615,19.849,7.615c7.491,0,14.375-2.536,19.8-7.485
			c5.678-5.245,8.783-11.975,8.783-19.651v-109.471c0-13.503-2.759-26.684-8.104-39.024
			C5366.039-999.474,5357.299-1010.076,5345.763-1018.228"/>
		<path fill="#FFFFFF" d="M5613.217-905.578c5.245-5.097,8.065-11.827,8.065-19.305c0-18.754-4.15-36.408-12.42-52.255
			c-8.344-16.23-20.752-29.393-36.878-39.042c-15.94-9.742-35.065-14.536-56.782-14.536c-23.098,0-42.983,5.246-59.078,15.587
			c-16.076,10.447-28.106,24.278-35.919,41.177c-7.596,16.447-11.462,34.552-11.462,53.968c0,34.707,10.404,62.164,30.791,81.686
			c20.221,19.336,48.365,29.115,83.783,29.115c17.127,0,31.014-1.373,42.135-4.447c10.881-3.031,22.082-7.466,33.254-13.503
			c12.982-7.058,15.748-16.255,15.748-22.837c0-7.25-2.914-13.614-8.357-18.253c-5.096-4.435-11.213-6.711-17.832-6.711
			c-4.206,0-8.078,0.903-11.604,2.517c-7.393,3.501-15.137,6.254-22.855,8.017c-7.59,1.874-16.838,2.777-27.297,2.777
			c-18.748,0-33.21-4.194-43.188-12.495c-7.242-6.087-12.253-13.825-15.074-23.629h124.403
			C5601.001-897.748,5607.916-900.37,5613.217-905.578 M5467.53-945.982c1.386-5.913,3.631-11.028,6.742-15.309
			c4.855-6.903,10.77-11.845,18.024-15.049c15.03-6.687,30.785-6.687,45.853,0c7.349,3.204,13.312,8.189,18.334,15.136
			c3.148,4.305,5.345,9.396,6.816,15.222H5467.53z"/>
		<path fill="#FFFFFF" d="M5832.282-1112.47c-7.732,0-14.406,2.518-19.955,7.546c-5.721,5.202-8.728,12.105-8.728,19.936v72.011
			c-17.561-11.827-37.317-17.87-58.873-17.87c-18.321,0-35.845,4.559-52.156,13.268c-16.472,8.79-29.975,21.822-40.132,38.616
			c-10.218,16.855-15.408,36.705-15.408,58.979c0,22.324,5.19,42.191,15.408,59.022c10.157,16.793,23.66,29.87,40.132,38.709
			c16.312,8.728,33.835,13.07,52.156,13.07c22.379,0,42.698-6.34,60.784-19.008c1.473,3.55,3.773,6.859,6.816,9.612
			c5.549,5.054,12.223,7.485,19.955,7.485c7.546,0,14.418-2.536,19.707-7.615c5.48-5.202,8.449-11.932,8.449-19.435v-246.844
			c0-7.398-2.871-14.283-8.313-19.614C5846.786-1109.761,5839.871-1112.47,5832.282-1112.47 M5780.46-868.44
			c-9.501,4.534-19.664,6.816-30.531,6.816c-17.276,0-30.687-4.819-40.898-14.882c-10.17-10.107-15.167-24.296-15.167-43.478
			c0-19.181,4.997-33.302,15.167-43.366c10.212-10.021,23.622-14.882,40.898-14.882c10.781,0,21.03,2.153,30.531,6.773
			c8.536,4.002,16.323,9.353,23.14,15.786v71.43C5796.783-877.793,5788.996-872.461,5780.46-868.44"/>
		<path fill="#FFFFFF" d="M5955.292-1098.342c-5.869-5.592-13.262-8.45-21.414-8.45h-2.437c-8.165,0-15.606,2.858-21.433,8.45
			c-6.006,5.678-9.211,12.946-9.211,21.006v1.466c0,8.165,3.205,15.414,9.211,21.092c5.826,5.48,13.268,8.406,21.433,8.406h2.437
			c8.152,0,15.545-2.926,21.414-8.406c6.025-5.678,9.174-12.927,9.174-21.092v-1.466
			C5964.466-1085.396,5961.317-1092.664,5955.292-1098.342"/>
		<path fill="#FFFFFF" d="M5932.245-1028.867c-7.775,0-14.598,2.814-19.941,8.017c-5.486,5.332-8.301,12.062-8.301,19.571v163.049
			c0,7.589,2.857,14.319,8.406,19.521c5.331,4.992,12.16,7.615,19.836,7.615c7.49,0,14.375-2.536,19.855-7.485
			c5.678-5.245,8.734-11.975,8.734-19.651v-163.049c0-7.831-2.908-14.647-8.456-19.849
			C5947.146-1026.245,5940.069-1028.867,5932.245-1028.867"/>
		<path fill="#FFFFFF" d="M6112.905-978.338c8.405,0,15.32,0.835,20.665,2.493c5.771,1.701,12.921,4.621,21.235,8.623
			c4.286,2.152,8.783,3.396,13.359,3.396c6.73,0,12.879-2.814,17.889-7.936c4.918-5.01,7.497-10.917,7.497-17.351
			c0-6.296-2.196-15.371-12.978-21.865c-9.463-5.679-19.805-10.429-30.877-14.066c-11.308-3.823-24.773-5.672-39.996-5.672
			c-20.889,0-40.403,4.429-58.105,13.138c-18.043,8.987-32.598,21.971-43.33,38.616c-10.837,16.75-16.36,36.593-16.36,58.979
			c0,22.429,5.523,42.315,16.36,59.133c10.732,16.682,25.287,29.628,43.33,38.511c17.702,8.709,37.217,13.268,58.105,13.268
			c15.223,0,28.688-1.936,39.996-5.703c11.072-3.612,21.414-8.294,30.934-14.06c10.725-6.495,12.921-15.482,12.921-21.89
			c0-6.408-2.579-12.427-7.54-17.542c-4.967-5.078-11.115-7.763-17.846-7.763c-4.576,0-9.073,1.095-13.359,3.371
			c-8.252,4.064-15.465,6.928-21.235,8.666c-5.345,1.571-12.26,2.369-20.665,2.369c-20.611,0-36.167-5.246-47.475-15.934
			c-11.27-10.75-16.657-24.538-16.657-42.426c0-17.845,5.388-31.583,16.657-42.271
			C6076.738-973.136,6092.294-978.338,6112.905-978.338"/>
		<path fill="#FFFFFF" d="M6270.616-1098.342c-5.871-5.592-13.219-8.45-21.427-8.45h-2.388c-8.202,0-15.612,2.858-21.42,8.45
			c-6.063,5.678-9.168,12.946-9.168,21.006v1.466c0,8.165,3.105,15.414,9.168,21.092c5.808,5.48,13.218,8.406,21.42,8.406h2.388
			c8.208,0,15.556-2.926,21.427-8.406c6.062-5.678,9.24-12.927,9.24-21.092v-1.466
			C6279.856-1085.396,6276.678-1092.664,6270.616-1098.342"/>
		<path fill="#FFFFFF" d="M6247.563-1028.867c-7.677,0-14.554,2.814-19.942,8.017c-5.399,5.332-8.201,12.062-8.201,19.571v163.049
			c0,7.589,2.802,14.319,8.381,19.521c5.344,4.992,12.186,7.615,19.763,7.615s14.462-2.536,19.899-7.485
			c5.678-5.245,8.733-11.975,8.733-19.651v-163.049c0-7.831-2.864-14.647-8.45-19.849
			C6262.494-1026.245,6255.442-1028.867,6247.563-1028.867"/>
		<path fill="#FFFFFF" d="M6485.239-1019.385c-12.396-7.596-27.049-11.332-43.65-11.332c-17.709,0-33.457,3.612-46.725,10.683
			c-6.539,3.42-12.879,7.614-18.996,12.346c-1.225-5.054-3.848-9.482-7.861-13.268c-5.45-5.097-12.365-7.911-20.041-7.911
			c-7.59,0-14.555,2.814-19.855,8.06c-5.389,5.289-8.301,12.019-8.301,19.528v163.136c0,7.503,2.956,14.319,8.355,19.435
			c5.389,5.079,12.254,7.615,19.801,7.615c7.583,0,14.405-2.536,19.893-7.485c5.771-5.159,8.783-11.975,8.783-19.564v-110.374
			c7.967-8.988,16.459-16.317,25.23-21.804c9.173-5.672,19.236-8.338,30.834-8.338c24.006,0,34.311,10.769,34.311,36.21v104.306
			c0,7.503,2.914,14.319,8.406,19.435c5.345,4.992,12.161,7.615,19.794,7.615c7.503,0,14.412-2.536,19.843-7.485
			c5.734-5.159,8.74-11.975,8.74-19.564v-108.073c0-15.136-3.247-29.394-9.687-42.142
			C6507.384-1001.367,6497.796-1011.838,6485.239-1019.385"/>
		<path fill="#FFFFFF" d="M6740.198-987.22c-6.921-12.99-17.752-23.628-32.207-31.564c-14.227-7.936-31.688-11.932-51.865-11.932
			c-24.822,0-49.539,4.794-73.496,14.338c-10.881,4.411-16.887,12.903-16.887,23.913c0,6.73,2.716,12.835,7.683,17.499
			c4.775,4.454,10.788,6.946,17.375,6.946c2.196,0,4.583-0.34,7.583-1.052l0.619-0.278c9.303-2.882,17.895-5.122,25.385-6.495
			c7.207-1.293,15.748-2.066,25.244-2.066c16.082,0,27.674,2.864,34.502,8.561c5.189,4.472,8.201,11.61,9.204,21.501h-38.405
			c-32.363,0-57.655,6.235-75.018,18.575c-18.421,13.101-27.816,30.859-27.816,52.985c0,13.503,3.581,25.565,10.645,35.888
			c6.91,10.317,16.404,18.235,28.145,23.585c11.363,5.122,23.758,7.633,37.026,7.633c25.812,0,48.487-6.383,67.478-19.243
			c1.441,3.594,3.631,6.878,6.674,9.717c5.301,5.079,12.18,7.615,19.763,7.615c7.577,0,14.499-2.536,19.898-7.485
			c5.722-5.245,8.728-11.975,8.728-19.564v-107.665C6750.454-960.641,6747.071-974.515,6740.198-987.22 M6671.447-866.789
			c-9.655,4.688-19.676,7.076-29.876,7.076c-15.891,0-23.152-3.204-26.355-5.932c-4.33-3.699-6.285-8.239-6.285-14.388
			c0-4.367,1.15-9.309,9.588-13.521c8.728-4.28,22.564-6.365,41.232-6.365h33.834v17.734
			C6687.517-876.29,6680.026-871.088,6671.447-866.789"/>
		<path fill="#FFFFFF" d="M4274.747-1502.329h72.142v207.863c0,7.589,3.012,14.319,8.405,19.502
			c5.345,5.01,12.217,7.633,19.85,7.633c7.59,0,14.462-2.518,19.843-7.571c5.777-5.134,8.79-11.932,8.79-19.564v-207.863h71.813
			c7.206,0,13.837-2.425,19.039-7.138c5.486-4.923,8.344-11.418,8.344-18.853c0-7.312-2.857-13.806-8.245-18.903
			c-5.159-4.949-11.839-7.484-19.138-7.484h-200.843c-7.447,0-14.084,2.623-19.188,7.614c-5.097,5.115-7.818,11.567-7.818,18.773
			c0,7.33,2.765,13.738,7.967,18.705C4260.719-1504.865,4267.3-1502.329,4274.747-1502.329"/>
		<path fill="#FFFFFF" d="M4644.886-1472.502c-16.082-9.631-35.164-14.555-56.825-14.555c-23.054,0-42.996,5.245-59.078,15.692
			c-16.132,10.367-28.15,24.297-35.987,41.09c-7.533,16.515-11.449,34.639-11.449,54.08c0,34.639,10.41,62.078,30.822,81.642
			c20.245,19.354,48.445,29.159,83.808,29.159c17.084,0,30.908-1.485,42.179-4.454c10.874-3.05,21.995-7.565,33.21-13.503
			c12.921-7.095,15.704-16.317,15.704-22.899c0-7.243-2.826-13.546-8.27-18.278c-5.097-4.342-11.251-6.643-17.889-6.643
			c-4.206,0-8.115,0.816-11.641,2.431c-7.299,3.55-15.031,6.26-22.806,8.066c-7.646,1.93-16.855,2.814-27.297,2.814
			c-18.705,0-33.21-4.194-43.144-12.495c-7.299-6.105-12.297-13.825-15.13-23.629h124.458c8.351,0,15.266-2.623,20.566-7.824
			c5.246-5.208,8.022-11.808,8.022-19.311c0-18.792-4.206-36.402-12.42-52.379
			C4673.376-1449.708,4660.969-1462.803,4644.886-1472.502 M4636.158-1402.297h-95.727c1.33-5.827,3.631-10.924,6.631-15.223
			c4.924-6.928,10.837-11.827,18.043-15.099c15.124-6.73,30.835-6.73,45.946,0c7.262,3.272,13.225,8.171,18.278,15.186
			C4632.429-1413.134,4634.729-1408.081,4636.158-1402.297"/>
		<path fill="#FFFFFF" d="M4833.654-1433.497c7.881,0,14.561-2.388,19.998-6.99c5.579-4.985,8.635-11.591,8.635-19.416
			c0-7.503-2.809-14.171-8.065-19.373c-5.246-5.115-12.019-7.719-19.707-7.719h-2.054c-19.608,0-37.83,7.243-54.346,21.649
			c-1.336-4.447-3.915-8.536-7.484-11.932c-5.449-5.202-12.458-7.911-20.047-7.911c-7.688,0-14.549,2.814-19.948,8.066
			c-5.382,5.289-8.252,12.018-8.252,19.608v163.049c0,7.589,2.914,14.319,8.449,19.502c5.345,5.01,12.211,7.633,19.751,7.633
			c7.589,0,14.405-2.623,19.843-7.46c5.783-5.202,8.839-12.043,8.839-19.676v-112.372c6.013-7.868,13.312-14.208,21.848-18.897
			c9.16-5.097,19.416-7.763,30.543-7.763H4833.654z"/>
		<path fill="#FFFFFF" d="M5061.893-1294.465v-107.597c0-14.795-3.445-28.769-10.262-41.48
			c-6.909-12.94-17.802-23.628-32.208-31.583c-14.221-7.936-31.682-11.932-51.871-11.932c-24.859,0-49.521,4.924-73.434,14.363
			c-10.887,4.404-16.855,12.792-16.855,23.907c0,6.816,2.579,12.841,7.602,17.505c4.763,4.559,10.824,7.033,17.362,7.033
			c2.146,0,4.677-0.433,7.534-1.101l0.767-0.235c9.21-2.882,17.802-5.115,25.243-6.495c7.256-1.417,15.805-2.146,25.379-2.146
			c15.946,0,27.588,2.944,34.416,8.641c5.152,4.342,8.202,11.548,9.26,21.414h-38.511c-32.3,0-57.5,6.303-74.955,18.668
			c-18.434,13.008-27.829,30.878-27.829,53.003c0,13.392,3.526,25.435,10.646,35.888c6.859,10.212,16.46,18.185,28.144,23.523
			c11.313,5.115,23.771,7.695,37.039,7.695c25.806,0,48.469-6.495,67.564-19.287c1.385,3.631,3.618,6.816,6.631,9.717
			c5.301,5.01,12.117,7.633,19.805,7.633c7.491,0,14.363-2.518,19.794-7.46C5058.88-1280.035,5061.893-1286.833,5061.893-1294.465
			 M4982.867-1323.104c-9.601,4.775-19.565,7.182-29.876,7.182c-15.891,0-23.134-3.272-26.326-6.043
			c-4.348-3.594-6.26-8.146-6.26-14.301c0-4.385,1.053-9.414,9.539-13.503c8.74-4.299,22.62-6.538,41.227-6.538h33.933v17.895
			C4998.956-1332.5,4991.458-1327.298,4982.867-1323.104"/>
		<path fill="#FFFFFF" d="M5955.292-1098.342c-5.869-5.592-13.262-8.45-21.414-8.45h-2.437c-8.165,0-15.606,2.858-21.433,8.45
			c-6.006,5.678-9.211,12.946-9.211,21.006v1.466c0,8.165,3.205,15.414,9.211,21.092c5.826,5.48,13.268,8.406,21.433,8.406h2.437
			c8.152,0,15.545-2.926,21.414-8.406c6.025-5.678,9.174-12.927,9.174-21.092v-1.466
			C5964.466-1085.396,5961.317-1092.664,5955.292-1098.342"/>
		<path fill="#FFFFFF" d="M6270.616-1098.342c-5.871-5.592-13.219-8.45-21.427-8.45h-2.388c-8.202,0-15.612,2.858-21.42,8.45
			c-6.063,5.678-9.168,12.946-9.168,21.006v1.466c0,8.165,3.105,15.414,9.168,21.092c5.808,5.48,13.218,8.406,21.42,8.406h2.388
			c8.208,0,15.556-2.926,21.427-8.406c6.062-5.678,9.24-12.927,9.24-21.092v-1.466
			C6279.856-1085.396,6276.678-1092.664,6270.616-1098.342"/>
	</g>
</g>
<g>
	<defs>
		<rect id="SVGID_8_" y="-316" width="6435" height="1080"/>
	</defs>
	<clipPath id="SVGID_9_">
		<use xlink:href="#SVGID_8_"  overflow="visible"/>
	</clipPath>
	<g clip-path="url(#SVGID_9_)">
		
			<linearGradient id="SVGID_10_" gradientUnits="userSpaceOnUse" x1="5374.1191" y1="207.6807" x2="6427.5547" y2="207.6807" gradientTransform="matrix(0.9999 0.0167 -0.0176 1.0522 4.4473 -79.4782)">
			<stop  offset="0" style="stop-color:#F48031"/>
			<stop  offset="1" style="stop-color:#EF5023"/>
		</linearGradient>
		<path opacity="0.3" fill="url(#SVGID_10_)" d="M5938.752-349.437l-554.253-9.105l-20.18,1175.306l951.605,15.633
			c0,0,237.458-370.56,6.218-587.716s-110.404-519.965-32.289-553.516c78.117-33.549,12.608-34.627,12.608-34.627"/>
		<path fill="#33B9D7" d="M6254.305,764H0V-316h6254.305c0,0-220.813,272,0,540C6475.115,492,6344.264,652,6254.305,764z"/>
	</g>
</g>
<g>
	<defs>
		<rect id="SVGID_11_" x="156.534" y="1245.756" width="6278.466" height="1053.727"/>
	</defs>
	<clipPath id="SVGID_12_">
		<use xlink:href="#SVGID_11_"  overflow="visible"/>
	</clipPath>
	<rect x="50.988" y="1266.619" clip-path="url(#SVGID_12_)" fill="#33B9D7" width="5569.645" height="1012"/>
	<polyline clip-path="url(#SVGID_12_)" fill="#33B9D7" points="6109.738,1266.619 5610.661,1266.619 5610.661,2278.619 
		6350.188,2278.619 6350.188,1580.865 	"/>
	<g clip-path="url(#SVGID_12_)">
		<g>
			<g>
				<path opacity="0.4" fill="#FFFFFF" d="M6410.179,1575.771v747.232c-145.629,0-263.721-118.135-263.721-263.781v-397.729
					c0-71.619-57.99-129.648-129.607-129.648h-134.037c-72.863,0-131.859-59.029-131.859-131.912
					c0-72.783,58.996-131.834,131.859-131.834h219.725C6272.521,1268.1,6410.179,1405.848,6410.179,1575.771"/>
			</g>
			<linearGradient id="SVGID_13_" gradientUnits="userSpaceOnUse" x1="5765.041" y1="1773.2061" x2="6424.2676" y2="1773.2061">
				<stop  offset="0" style="stop-color:#F48031"/>
				<stop  offset="1" style="stop-color:#EF5023"/>
			</linearGradient>
			<path fill="url(#SVGID_13_)" d="M6424.268,1553.426v747.232c-145.632,0-263.721-118.141-263.721-263.781v-397.729
				c0-71.625-57.991-129.648-129.609-129.648h-134.045c-72.864,0-131.852-59.027-131.852-131.92
				c0-72.773,58.987-131.826,131.852-131.826h219.726C6286.61,1245.754,6424.268,1383.496,6424.268,1553.426"/>
		</g>
	</g>
</g>
<g id="text_1_">
	<path fill="#FFFFFF" d="M5643.201,2688.484c0-1.561-0.613-2.957-1.771-4.049c-1.107-1.047-2.542-1.609-4.109-1.609h-43.143
		c-1.6,0-3.025,0.563-4.121,1.641c-1.096,1.07-1.68,2.475-1.68,4.018c0,1.586,0.594,2.961,1.712,4.029
		c1.076,1.043,2.489,1.564,4.089,1.564h15.496v44.65c0,1.611,0.646,3.074,1.806,4.174c1.148,1.09,2.624,1.635,4.264,1.635
		c1.618,0,3.106-0.545,4.262-1.607c1.241-1.107,1.88-2.572,1.88-4.201v-44.65h15.436c1.547,0,2.971-0.521,4.089-1.533
		C5642.588,2691.486,5643.201,2690.092,5643.201,2688.484"/>
	<path fill="#FFFFFF" d="M5682.531,2724.242c1.127-1.094,1.721-2.541,1.721-4.146c0-4.029-0.879-7.82-2.655-11.225
		c-1.802-3.486-4.469-6.314-7.912-8.387c-3.442-2.092-7.544-3.123-12.206-3.123c-4.962,0-9.248,1.127-12.69,3.35
		c-3.456,2.244-6.046,5.213-7.729,8.844c-1.628,3.533-2.46,7.422-2.46,11.594c0,7.455,2.247,13.354,6.621,17.547
		c4.339,4.152,10.395,6.252,18.001,6.252c3.671,0,6.651-0.293,9.049-0.955c2.348-0.65,4.737-1.604,7.137-2.898
		c2.798-1.518,3.371-3.494,3.371-4.906c0-1.559-0.596-2.924-1.766-3.922c-1.094-0.953-2.429-1.441-3.842-1.441
		c-0.903,0-1.731,0.193-2.49,0.541c-1.578,0.752-3.251,1.344-4.91,1.723c-1.641,0.402-3.62,0.596-5.862,0.596
		c-4.018,0-7.146-0.9-9.268-2.684c-1.577-1.307-2.633-2.969-3.249-5.076h26.733
		C5679.918,2725.924,5681.402,2725.361,5682.531,2724.242 M5651.247,2715.564c0.276-1.271,0.78-2.369,1.425-3.289
		c1.048-1.482,2.318-2.545,3.887-3.232c3.229-1.436,6.601-1.436,9.858,0c1.561,0.688,2.841,1.758,3.925,3.252
		c0.667,0.924,1.151,2.018,1.456,3.27H5651.247z"/>
	<path fill="#FFFFFF" d="M5696.389,2679.801c-1.661,0-3.125,0.582-4.272,1.709c-1.183,1.127-1.784,2.607-1.784,4.195v53.023
		c0,1.611,0.635,3.074,1.802,4.174c1.148,1.09,2.616,1.635,4.255,1.635c1.619,0,3.095-0.545,4.272-1.607
		c1.232-1.107,1.877-2.572,1.877-4.201v-53.023c0-1.658-0.626-3.129-1.813-4.264
		C5699.596,2680.365,5698.079,2679.801,5696.389,2679.801"/>
	<path fill="#FFFFFF" d="M5753.132,2724.242c1.126-1.094,1.723-2.541,1.723-4.146c0-4.029-0.894-7.82-2.655-11.225
		c-1.792-3.486-4.461-6.314-7.924-8.387c-3.434-2.092-7.533-3.123-12.196-3.123c-4.963,0-9.237,1.127-12.69,3.35
		c-3.463,2.244-6.048,5.213-7.72,8.844c-1.628,3.533-2.459,7.422-2.459,11.594c0,7.455,2.235,13.354,6.59,17.547
		c4.37,4.152,10.416,6.252,18.021,6.252c3.682,0,6.652-0.293,9.051-0.955c2.336-0.65,4.736-1.604,7.125-2.898
		c2.795-1.518,3.401-3.494,3.401-4.906c0-1.559-0.625-2.924-1.795-3.922c-1.097-0.953-2.417-1.441-3.853-1.441
		c-0.882,0-1.722,0.193-2.472,0.541c-1.587,0.752-3.247,1.344-4.908,1.723c-1.631,0.402-3.618,0.596-5.873,0.596
		c-4.017,0-7.134-0.9-9.264-2.684c-1.56-1.307-2.638-2.969-3.252-5.076h26.732
		C5750.506,2725.924,5751.992,2725.361,5753.132,2724.242 M5721.838,2715.564c0.297-1.271,0.77-2.369,1.445-3.289
		c1.034-1.482,2.316-2.545,3.875-3.232c3.229-1.436,6.609-1.436,9.85,0c1.568,0.688,2.857,1.758,3.938,3.252
		c0.674,0.924,1.147,2.018,1.454,3.27H5721.838z"/>
	<path fill="#FFFFFF" d="M5824.234,2700.045c-2.512-1.783-5.66-2.684-9.328-2.684c-6.561,0-11.818,2.223-15.704,6.641
		c-1.063-1.416-2.354-2.688-3.935-3.805c-2.665-1.875-5.894-2.836-9.571-2.836c-4.019,0-7.394,0.826-10.005,2.449
		c-1.016,0.6-1.948,1.311-2.849,2.045c-0.288-0.877-0.823-1.689-1.571-2.396c-1.157-1.117-2.643-1.699-4.273-1.699
		c-1.669,0-3.157,0.604-4.285,1.723c-1.168,1.145-1.781,2.59-1.781,4.203v35.023c0,1.631,0.613,3.076,1.814,4.193
		c1.147,1.072,2.602,1.635,4.252,1.635c1.611,0,3.095-0.545,4.254-1.607c1.241-1.127,1.876-2.572,1.876-4.221v-23.852
		c1.271-1.879,2.716-3.412,4.292-4.572c1.57-1.188,3.547-1.75,6.028-1.75c2.522,0,4.274,0.563,5.145,1.676
		c1.007,1.252,1.521,3.477,1.521,6.447v22.051c0,1.631,0.633,3.076,1.823,4.193c1.136,1.063,2.615,1.635,4.243,1.635
		c1.629,0,3.098-0.545,4.274-1.607c1.231-1.127,1.876-2.572,1.876-4.221v-23.852c1.271-1.879,2.717-3.412,4.296-4.572
		c1.556-1.188,3.526-1.75,6.023-1.75c2.534,0,4.257,0.563,5.157,1.676c0.975,1.252,1.519,3.477,1.519,6.447v22.051
		c0,1.631,0.604,3.076,1.803,4.193c1.127,1.072,2.612,1.635,4.264,1.635c1.608,0,3.088-0.545,4.253-1.607
		c1.221-1.127,1.887-2.572,1.887-4.221v-23.514c0-2.9-0.593-5.732-1.74-8.383C5828.59,2704.074,5826.713,2701.795,5824.234,2700.045
		"/>
	<path fill="#FFFFFF" d="M5881.685,2724.242c1.127-1.094,1.731-2.541,1.731-4.146c0-4.029-0.891-7.82-2.668-11.225
		c-1.791-3.486-4.457-6.314-7.921-8.387c-3.424-2.092-7.532-3.123-12.197-3.123c-4.961,0-9.232,1.127-12.69,3.35
		c-3.452,2.244-6.037,5.213-7.714,8.844c-1.633,3.533-2.462,7.422-2.462,11.594c0,7.455,2.234,13.354,6.613,17.547
		c4.344,4.152,10.389,6.252,17.997,6.252c3.678,0,6.662-0.293,9.05-0.955c2.337-0.65,4.743-1.604,7.143-2.898
		c2.789-1.518,3.384-3.494,3.384-4.906c0-1.559-0.626-2.924-1.796-3.922c-1.094-0.953-2.408-1.441-3.83-1.441
		c-0.903,0-1.734,0.193-2.492,0.541c-1.588,0.752-3.252,1.344-4.908,1.723c-1.631,0.402-3.618,0.596-5.865,0.596
		c-4.027,0-7.134-0.9-9.275-2.684c-1.557-1.307-2.633-2.969-3.238-5.076h26.722
		C5879.061,2725.924,5880.546,2725.361,5881.685,2724.242 M5850.391,2715.564c0.298-1.271,0.78-2.369,1.448-3.289
		c1.042-1.482,2.313-2.545,3.871-3.232c3.229-1.436,6.612-1.436,9.85,0c1.579,0.688,2.859,1.758,3.938,3.252
		c0.676,0.924,1.148,2.018,1.463,3.27H5850.391z"/>
	<path fill="#FFFFFF" d="M5928.74,2679.801c-1.661,0-3.095,0.541-4.287,1.621c-1.228,1.119-1.875,2.602-1.875,4.283v15.469
		c-3.771-2.541-8.016-3.84-12.646-3.84c-3.936,0-7.699,0.98-11.204,2.852c-3.537,1.887-6.438,4.688-8.619,8.293
		c-2.195,3.621-3.311,7.885-3.311,12.67c0,4.795,1.115,9.063,3.311,12.678c2.182,3.605,5.082,6.416,8.619,8.314
		c3.505,1.875,7.269,2.807,11.204,2.807c4.808,0,9.171-1.361,13.057-4.082c0.316,0.762,0.812,1.473,1.464,2.064
		c1.192,1.086,2.626,1.607,4.287,1.607c1.621,0,3.097-0.545,4.232-1.635c1.178-1.117,1.815-2.563,1.815-4.174v-53.023
		c0-1.588-0.617-3.068-1.786-4.213C5931.855,2680.383,5930.37,2679.801,5928.74,2679.801 M5917.608,2732.221
		c-2.04,0.973-4.224,1.463-6.558,1.463c-3.711,0-6.592-1.035-8.786-3.195c-2.184-2.172-3.258-5.221-3.258-9.34
		c0-4.121,1.074-7.154,3.258-9.316c2.194-2.152,5.075-3.195,8.786-3.195c2.314,0,4.518,0.461,6.558,1.455
		c1.833,0.857,3.507,2.008,4.97,3.391v15.344C5921.115,2730.211,5919.441,2731.355,5917.608,2732.221"/>
	<path fill="#FFFFFF" d="M5955.163,2682.836c-1.261-1.201-2.849-1.814-4.6-1.814h-0.524c-1.753,0-3.352,0.613-4.604,1.814
		c-1.291,1.221-1.979,2.781-1.979,4.514v0.313c0,1.754,0.688,3.311,1.979,4.531c1.252,1.178,2.851,1.807,4.604,1.807h0.524
		c1.751,0,3.339-0.629,4.6-1.807c1.294-1.221,1.97-2.777,1.97-4.531v-0.313C5957.133,2685.617,5956.457,2684.057,5955.163,2682.836"
		/>
	<path fill="#FFFFFF" d="M5950.212,2697.76c-1.67,0-3.135,0.604-4.282,1.723c-1.18,1.145-1.785,2.59-1.785,4.203v35.023
		c0,1.631,0.615,3.076,1.807,4.193c1.146,1.072,2.612,1.635,4.261,1.635c1.61,0,3.088-0.545,4.265-1.607
		c1.221-1.127,1.876-2.572,1.876-4.221v-35.023c0-1.682-0.624-3.146-1.815-4.264
		C5953.413,2698.322,5951.894,2697.76,5950.212,2697.76"/>
	<path fill="#FFFFFF" d="M5989.019,2708.613c1.806,0,3.291,0.18,4.438,0.535c1.24,0.365,2.775,0.992,4.562,1.854
		c0.921,0.461,1.886,0.729,2.87,0.729c1.446,0,2.767-0.605,3.842-1.705c1.057-1.076,1.61-2.344,1.61-3.727
		c0-1.354-0.471-3.301-2.788-4.697c-2.031-1.219-4.253-2.24-6.632-3.021c-2.429-0.82-5.321-1.219-8.591-1.219
		c-4.487,0-8.68,0.953-12.481,2.824c-3.875,1.93-7.002,4.719-9.308,8.293c-2.327,3.6-3.515,7.861-3.515,12.67
		c0,4.816,1.188,9.088,3.515,12.701c2.306,3.582,5.433,6.365,9.308,8.271c3.802,1.871,7.994,2.852,12.481,2.852
		c3.27,0,6.162-0.416,8.591-1.227c2.379-0.775,4.601-1.781,6.646-3.02c2.304-1.395,2.774-3.324,2.774-4.701s-0.554-2.67-1.618-3.77
		c-1.067-1.09-2.388-1.666-3.834-1.666c-0.984,0-1.949,0.234-2.87,0.723c-1.772,0.873-3.321,1.488-4.562,1.863
		c-1.147,0.336-2.633,0.508-4.438,0.508c-4.428,0-7.769-1.127-10.198-3.422c-2.42-2.311-3.578-5.271-3.578-9.113
		c0-3.834,1.158-6.785,3.578-9.08C5981.25,2709.73,5984.591,2708.613,5989.019,2708.613"/>
	<path fill="#FFFFFF" d="M6022.895,2682.836c-1.262-1.201-2.84-1.814-4.603-1.814h-0.513c-1.761,0-3.353,0.613-4.6,1.814
		c-1.303,1.221-1.971,2.781-1.971,4.514v0.313c0,1.754,0.668,3.311,1.971,4.531c1.247,1.178,2.839,1.807,4.6,1.807h0.513
		c1.763,0,3.341-0.629,4.603-1.807c1.303-1.221,1.984-2.777,1.984-4.531v-0.313
		C6024.879,2685.617,6024.197,2684.057,6022.895,2682.836"/>
	<path fill="#FFFFFF" d="M6017.943,2697.76c-1.649,0-3.127,0.604-4.283,1.723c-1.161,1.145-1.763,2.59-1.763,4.203v35.023
		c0,1.631,0.602,3.076,1.801,4.193c1.147,1.072,2.617,1.635,4.245,1.635c1.627,0,3.105-0.545,4.274-1.607
		c1.219-1.127,1.876-2.572,1.876-4.221v-35.023c0-1.682-0.615-3.146-1.814-4.264
		C6021.15,2698.322,6019.636,2697.76,6017.943,2697.76"/>
	<path fill="#FFFFFF" d="M6068.997,2699.797c-2.663-1.631-5.811-2.436-9.378-2.436c-3.803,0-7.186,0.777-10.035,2.295
		c-1.405,0.736-2.767,1.637-4.08,2.652c-0.263-1.086-0.827-2.037-1.689-2.85c-1.171-1.096-2.655-1.699-4.305-1.699
		c-1.631,0-3.127,0.604-4.265,1.73c-1.158,1.137-1.783,2.582-1.783,4.195v35.043c0,1.611,0.635,3.074,1.795,4.174
		c1.157,1.09,2.633,1.635,4.253,1.635c1.629,0,3.095-0.545,4.273-1.607c1.239-1.107,1.887-2.572,1.887-4.201v-23.709
		c1.711-1.932,3.535-3.506,5.419-4.684c1.97-1.219,4.133-1.793,6.624-1.793c5.156,0,7.37,2.314,7.37,7.779v22.406
		c0,1.611,0.625,3.074,1.805,4.174c1.148,1.072,2.612,1.635,4.252,1.635c1.611,0,3.097-0.545,4.263-1.607
		c1.232-1.107,1.877-2.572,1.877-4.201v-23.215c0-3.252-0.697-6.314-2.08-9.053
		C6073.753,2703.666,6071.693,2701.418,6068.997,2699.797"/>
	<path fill="#FFFFFF" d="M6123.763,2706.705c-1.487-2.791-3.813-5.074-6.919-6.779c-3.056-1.705-6.807-2.564-11.14-2.564
		c-5.332,0-10.642,1.031-15.788,3.08c-2.336,0.947-3.627,2.771-3.627,5.137c0,1.447,0.583,2.758,1.65,3.76
		c1.025,0.955,2.317,1.492,3.732,1.492c0.471,0,0.984-0.074,1.628-0.227l0.133-0.061c1.999-0.617,3.845-1.1,5.453-1.395
		c1.548-0.277,3.383-0.443,5.423-0.443c3.455,0,5.945,0.615,7.411,1.838c1.114,0.961,1.761,2.494,1.977,4.619h-8.25
		c-6.95,0-12.384,1.34-16.113,3.99c-3.957,2.814-5.975,6.627-5.975,11.381c0,2.9,0.769,5.492,2.286,7.709
		c1.484,2.217,3.524,3.918,6.046,5.066c2.441,1.1,5.103,1.639,7.953,1.639c5.544,0,10.416-1.371,14.494-4.133
		c0.31,0.773,0.78,1.479,1.435,2.088c1.138,1.09,2.615,1.635,4.244,1.635c1.628,0,3.114-0.545,4.274-1.607
		c1.229-1.127,1.874-2.572,1.874-4.201v-23.127C6125.965,2712.414,6125.239,2709.434,6123.763,2706.705 M6108.994,2732.574
		c-2.074,1.008-4.226,1.52-6.417,1.52c-3.413,0-4.974-0.688-5.661-1.273c-0.931-0.795-1.35-1.77-1.35-3.09
		c0-0.939,0.246-2,2.059-2.904c1.875-0.92,4.848-1.367,8.856-1.367h7.269v3.809
		C6112.445,2730.533,6110.837,2731.65,6108.994,2732.574"/>
	<path fill="#FFFFFF" d="M5594.178,2596.059h15.496v44.65c0,1.631,0.646,3.074,1.806,4.189c1.148,1.074,2.624,1.639,4.264,1.639
		c1.631,0,3.106-0.541,4.262-1.625c1.241-1.104,1.888-2.564,1.888-4.203v-44.65h15.428c1.547,0,2.971-0.52,4.089-1.533
		c1.179-1.057,1.792-2.453,1.792-4.049c0-1.57-0.613-2.967-1.771-4.061c-1.107-1.064-2.542-1.607-4.109-1.607h-43.143
		c-1.6,0-3.025,0.563-4.121,1.635c-1.096,1.1-1.68,2.484-1.68,4.033c0,1.574,0.594,2.951,1.712,4.018
		C5591.165,2595.514,5592.578,2596.059,5594.178,2596.059"/>
	<path fill="#FFFFFF" d="M5673.685,2602.465c-3.454-2.068-7.554-3.125-12.206-3.125c-4.952,0-9.236,1.127-12.69,3.369
		c-3.464,2.229-6.046,5.221-7.729,8.828c-1.619,3.547-2.46,7.439-2.46,11.615c0,7.441,2.235,13.336,6.621,17.537
		c4.349,4.158,10.405,6.264,18.001,6.264c3.671,0,6.64-0.318,9.061-0.957c2.336-0.654,4.726-1.625,7.134-2.9
		c2.775-1.523,3.374-3.506,3.374-4.918c0-1.557-0.607-2.91-1.777-3.928c-1.094-0.932-2.416-1.426-3.842-1.426
		c-0.903,0-1.743,0.176-2.501,0.521c-1.567,0.764-3.229,1.346-4.899,1.732c-1.641,0.414-3.62,0.605-5.862,0.605
		c-4.018,0-7.134-0.9-9.268-2.684c-1.567-1.313-2.642-2.971-3.249-5.076h26.733c1.794,0,3.278-0.563,4.418-1.68
		c1.126-1.119,1.723-2.537,1.723-4.148c0-4.037-0.903-7.82-2.668-11.252C5679.805,2607.361,5677.139,2604.549,5673.685,2602.465
		 M5671.81,2617.547h-20.563c0.286-1.252,0.78-2.348,1.425-3.271c1.058-1.488,2.327-2.539,3.876-3.242
		c3.248-1.445,6.623-1.445,9.869,0c1.561,0.703,2.841,1.754,3.925,3.262C5671.009,2615.219,5671.503,2616.305,5671.81,2617.547"/>
	<path fill="#FFFFFF" d="M5714.232,2610.844c1.693,0,3.128-0.512,4.296-1.5c1.198-1.072,1.854-2.49,1.854-4.172
		c0-1.611-0.604-3.045-1.732-4.16c-1.127-1.1-2.582-1.658-4.232-1.658h-0.441c-4.213,0-8.126,1.555-11.675,4.648
		c-0.286-0.953-0.84-1.832-1.606-2.563c-1.171-1.117-2.677-1.699-4.307-1.699c-1.651,0-3.125,0.605-4.285,1.732
		c-1.156,1.137-1.771,2.582-1.771,4.213v35.023c0,1.631,0.625,3.074,1.813,4.189c1.148,1.074,2.624,1.639,4.243,1.639
		c1.63,0,3.095-0.564,4.262-1.602c1.243-1.119,1.898-2.588,1.898-4.227v-24.137c1.293-1.691,2.86-3.053,4.693-4.061
		c1.968-1.094,4.171-1.668,6.561-1.668H5714.232z"/>
	<path fill="#FFFFFF" d="M5763.259,2640.709v-23.113c0-3.178-0.74-6.178-2.205-8.908c-1.484-2.779-3.823-5.076-6.917-6.785
		c-3.056-1.705-6.806-2.563-11.143-2.563c-5.34,0-10.639,1.057-15.774,3.084c-2.338,0.947-3.62,2.748-3.62,5.135
		c0,1.465,0.554,2.76,1.634,3.762c1.022,0.979,2.324,1.51,3.729,1.51c0.462,0,1.005-0.094,1.618-0.236l0.165-0.051
		c1.978-0.619,3.823-1.098,5.422-1.395c1.559-0.305,3.395-0.461,5.452-0.461c3.426,0,5.925,0.633,7.393,1.855
		c1.105,0.934,1.762,2.48,1.989,4.6h-8.272c-6.939,0-12.352,1.354-16.102,4.012c-3.959,2.793-5.978,6.631-5.978,11.385
		c0,2.875,0.758,5.463,2.286,7.709c1.475,2.193,3.536,3.904,6.047,5.053c2.43,1.098,5.105,1.652,7.956,1.652
		c5.543,0,10.411-1.395,14.513-4.143c0.297,0.779,0.776,1.465,1.424,2.088c1.139,1.074,2.604,1.639,4.254,1.639
		c1.609,0,3.087-0.541,4.252-1.602C5762.611,2643.809,5763.259,2642.348,5763.259,2640.709 M5746.283,2634.557
		c-2.063,1.025-4.202,1.543-6.418,1.543c-3.412,0-4.969-0.703-5.653-1.299c-0.935-0.771-1.345-1.75-1.345-3.072
		c0-0.941,0.225-2.021,2.049-2.9c1.877-0.922,4.858-1.404,8.855-1.404h7.289v3.846
		C5749.739,2632.539,5748.129,2633.656,5746.283,2634.557"/>
	<path fill="#FFFFFF" d="M5955.163,2682.836c-1.261-1.201-2.849-1.814-4.6-1.814h-0.524c-1.753,0-3.352,0.613-4.604,1.814
		c-1.291,1.221-1.979,2.781-1.979,4.514v0.313c0,1.754,0.688,3.311,1.979,4.531c1.252,1.178,2.851,1.807,4.604,1.807h0.524
		c1.751,0,3.339-0.629,4.6-1.807c1.294-1.221,1.97-2.777,1.97-4.531v-0.313C5957.133,2685.617,5956.457,2684.057,5955.163,2682.836"
		/>
	<path fill="#FFFFFF" d="M6022.895,2682.836c-1.262-1.201-2.84-1.814-4.603-1.814h-0.513c-1.761,0-3.353,0.613-4.6,1.814
		c-1.303,1.221-1.971,2.781-1.971,4.514v0.313c0,1.754,0.668,3.311,1.971,4.531c1.247,1.178,2.839,1.807,4.6,1.807h0.513
		c1.763,0,3.341-0.629,4.603-1.807c1.303-1.221,1.984-2.777,1.984-4.531v-0.313
		C6024.879,2685.617,6024.197,2684.057,6022.895,2682.836"/>
</g>
</svg>
