<?xml version="1.0" encoding="utf-8"?>
<!-- Generator: Adobe Illustrator 16.0.0, SVG Export Plug-In . SVG Version: 6.00 Build 0)  -->
<!DOCTYPE svg PUBLIC "-//W3C//DTD SVG 1.1//EN" "http://www.w3.org/Graphics/SVG/1.1/DTD/svg11.dtd">
<svg version="1.1" id="Layer_1" xmlns="http://www.w3.org/2000/svg" xmlns:xlink="http://www.w3.org/1999/xlink" x="0px" y="0px"
	 width="5452.191px" height="1080px" viewBox="982.809 0 5452.191 1080" enable-background="new 982.809 0 5452.191 1080"
	 xml:space="preserve">
<rect x="1220.747" y="2960.176" fill="#33B9D7" width="6082.341" height="1672.239"/>
<g>
	<g>
		<g>
			<g>
				<path opacity="0.4" fill="#FFFFFF" enable-background="new    " d="M3895.787-1310.696v552.493
					c-107.677,0-194.991-87.345-194.991-195.034v-294.076c0-52.954-42.877-95.863-95.831-95.863h-99.104
					c-53.875,0-97.495-43.646-97.495-97.533c0-53.813,43.62-97.477,97.495-97.477h162.462
					C3794.005-1538.186,3895.787-1436.335,3895.787-1310.696"/>
				<g opacity="0.4" enable-background="new    ">
					<g>
						<path id="SVGID_1_" opacity="0.4" fill="#FFFFFF" enable-background="new    " d="M3895.787-1538.186L3895.787-1538.186
							c0,107.646,87.277,194.96,194.96,194.96c53.863,0,97.473-43.651,97.473-97.539c0-53.869-43.608-97.421-97.473-97.421H3895.787
							L3895.787-1538.186z"/>
					</g>
					<g>
						<defs>
							<path id="SVGID_2_" d="M3895.787-1538.186L3895.787-1538.186c0,107.646,87.277,194.96,194.96,194.96
								c53.863,0,97.473-43.651,97.473-97.539c0-53.869-43.608-97.421-97.473-97.421H3895.787L3895.787-1538.186z"/>
						</defs>
						<clipPath id="SVGID_3_">
							<use xlink:href="#SVGID_2_"  overflow="visible"/>
						</clipPath>
						<polygon clip-path="url(#SVGID_3_)" fill="#FFFFFF" points="3798.632,-1448.608 4030.099,-1197.496 4285.423,-1432.742 
							4053.889,-1683.9 						"/>
					</g>
				</g>
			</g>
			
				<linearGradient id="SVGID_5_" gradientUnits="userSpaceOnUse" x1="3629.7422" y1="2003.0566" x2="4117.1641" y2="2003.0566" gradientTransform="matrix(1 0 0 -1 -210.96 838.3398)">
				<stop  offset="0" style="stop-color:#F48031"/>
				<stop  offset="1" style="stop-color:#EF5023"/>
			</linearGradient>
			<path fill="url(#SVGID_5_)" d="M3906.204-1327.218v552.494c-107.678,0-194.991-87.352-194.991-195.035v-294.076
				c0-52.96-42.878-95.863-95.832-95.863h-99.11c-53.875,0-97.488-43.645-97.488-97.539c0-53.808,43.613-97.471,97.488-97.471
				h162.463C3804.422-1554.707,3906.204-1452.863,3906.204-1327.218"/>
			<g>
				<g>
					<defs>
						<path id="SVGID_6_" d="M3906.253-1554.658L3906.253-1554.658c0,107.646,87.277,194.96,194.967,194.96
							c53.855,0,97.465-43.645,97.465-97.539c0-53.863-43.607-97.421-97.465-97.421H3906.253L3906.253-1554.658z"/>
					</defs>
					<clipPath id="SVGID_7_">
						<use xlink:href="#SVGID_6_"  overflow="visible"/>
					</clipPath>
					
						<linearGradient id="SVGID_8_" gradientUnits="userSpaceOnUse" x1="4019.8877" y1="2295.5059" x2="4507.0264" y2="2295.5059" gradientTransform="matrix(1 0 0 -1 -210.96 838.3398)">
						<stop  offset="0" style="stop-color:#F48031"/>
						<stop  offset="1" style="stop-color:#EF5023"/>
					</linearGradient>
					
						<polygon clip-path="url(#SVGID_7_)" fill="#FFFFFF" stroke="url(#SVGID_8_)" stroke-width="0.25" stroke-miterlimit="10" points="
						3809.104,-1465.086 4040.563,-1213.961 4295.89,-1449.214 4064.36,-1700.372 					"/>
				</g>
				<g>
					
						<linearGradient id="SVGID_9_" gradientUnits="userSpaceOnUse" x1="4117.0879" y1="2295.5176" x2="4409.7695" y2="2295.5176" gradientTransform="matrix(1 0 0 -1 -210.96 838.3398)">
						<stop  offset="0" style="stop-color:#F48031"/>
						<stop  offset="1" style="stop-color:#EF5023"/>
					</linearGradient>
					<path id="SVGID_4_" fill="none" stroke="url(#SVGID_9_)" stroke-width="0.25" stroke-miterlimit="10" d="M3906.253-1554.658
						L3906.253-1554.658c0,107.646,87.277,194.96,194.967,194.96c53.855,0,97.465-43.645,97.465-97.539
						c0-53.863-43.607-97.421-97.465-97.421H3906.253L3906.253-1554.658z"/>
				</g>
			</g>
		</g>
	</g>
	<g id="text_3_">
		<path fill="#FFFFFF" d="M4502.974-1072.048c0-7.268-2.857-13.763-8.246-18.854c-5.158-4.862-11.838-7.484-19.138-7.484h-200.843
			c-7.447,0-14.084,2.623-19.188,7.633c-5.098,4.985-7.818,11.523-7.818,18.705c0,7.379,2.766,13.787,7.967,18.754
			c5.012,4.855,11.592,7.286,19.039,7.286h72.143v207.863c0,7.503,3.012,14.319,8.404,19.435c5.346,5.079,12.217,7.615,19.85,7.615
			c7.535,0,14.463-2.536,19.844-7.485c5.776-5.159,8.746-11.975,8.746-19.564v-207.863h71.856c7.206,0,13.837-2.431,19.039-7.138
			C4500.115-1058.069,4502.974-1064.563,4502.974-1072.048"/>
		<path fill="#FFFFFF" d="M4686.075-905.578c5.245-5.097,8.01-11.827,8.01-19.305c0-18.754-4.096-36.408-12.363-52.255
			c-8.389-16.23-20.803-29.394-36.836-39.042c-16.025-9.742-35.121-14.536-56.824-14.536c-23.098,0-43.053,5.246-59.078,15.587
			c-16.088,10.447-28.15,24.278-35.987,41.177c-7.577,16.447-11.449,34.552-11.449,53.968c0,34.707,10.46,62.164,30.821,81.686
			c20.203,19.336,48.396,29.115,83.809,29.115c17.084,0,30.964-1.373,42.123-4.447c10.93-3.031,22.051-7.466,33.223-13.503
			c13.026-7.058,15.691-16.255,15.691-22.837c0-7.25-2.771-13.614-8.214-18.253c-5.097-4.436-11.308-6.711-17.89-6.711
			c-4.205,0-8.06,0.903-11.59,2.517c-7.35,3.501-15.138,6.254-22.855,8.017c-7.646,1.874-16.855,2.777-27.297,2.777
			c-18.705,0-33.266-4.194-43.145-12.495c-7.342-6.087-12.254-13.825-15.129-23.629h124.457
			C4673.901-897.748,4680.817-900.37,4686.075-905.578 M4540.433-945.982c1.287-5.913,3.631-11.028,6.631-15.309
			c4.873-6.903,10.793-11.845,18.092-15.049c15.03-6.688,30.729-6.688,45.896,0c7.262,3.204,13.225,8.189,18.277,15.136
			c3.1,4.305,5.356,9.396,6.772,15.222H4540.433L4540.433-945.982z"/>
		<path fill="#FFFFFF" d="M4750.584-1112.47c-7.731,0-14.549,2.709-19.894,7.955c-5.506,5.245-8.308,12.13-8.308,19.528v246.844
			c0,7.503,2.957,14.319,8.394,19.435c5.346,5.079,12.174,7.615,19.808,7.615c7.533,0,14.405-2.536,19.886-7.485
			c5.74-5.159,8.74-11.975,8.74-19.564v-246.844c0-7.72-2.912-14.561-8.437-19.85
			C4765.517-1109.848,4758.451-1112.47,4750.584-1112.47"/>
		<path fill="#FFFFFF" d="M5014.747-905.578c5.245-5.097,8.021-11.827,8.021-19.305c0-18.754-4.162-36.408-12.363-52.255
			c-8.346-16.23-20.766-29.394-36.891-39.042c-15.983-9.742-35.065-14.536-56.776-14.536c-23.104,0-43.002,5.246-59.078,15.587
			c-16.125,10.447-28.155,24.278-35.938,41.177c-7.582,16.447-11.449,34.552-11.449,53.968c0,34.707,10.404,62.164,30.681,81.686
			c20.345,19.336,48.487,29.115,83.894,29.115c17.135,0,30.965-1.373,42.137-4.447c10.874-3.031,22.046-7.466,33.167-13.503
			c13.015-7.058,15.834-16.255,15.834-22.837c0-7.25-2.912-13.614-8.354-18.253c-5.104-4.436-11.252-6.711-17.933-6.711
			c-4.106,0-8.019,0.903-11.506,2.517c-7.392,3.501-15.123,6.254-22.854,8.017c-7.59,1.874-16.844,2.777-27.34,2.777
			c-18.705,0-33.209-4.194-43.131-12.495c-7.256-6.087-12.278-13.825-15.137-23.629h124.452
			C5002.524-897.748,5009.446-900.37,5014.747-905.578 M4869.062-945.982c1.386-5.913,3.586-11.028,6.729-15.309
			c4.813-6.903,10.781-11.845,18.037-15.049c15.029-6.688,30.771-6.688,45.854,0c7.306,3.204,13.312,8.189,18.334,15.136
			c3.136,4.305,5.345,9.396,6.771,15.222H4869.062L4869.062-945.982z"/>
		<path fill="#FFFFFF" d="M5345.763-1018.228c-11.696-8.301-26.35-12.489-43.422-12.489c-30.543,0-55.024,10.342-73.111,30.915
			c-4.954-6.601-10.961-12.513-18.314-17.715c-12.408-8.728-27.438-13.2-44.566-13.2c-18.705,0-34.416,3.848-46.57,11.394
			c-4.731,2.795-9.074,6.105-13.268,9.525c-1.342-4.088-3.829-7.868-7.313-11.159c-5.388-5.202-12.303-7.911-19.893-7.911
			c-7.77,0-14.702,2.814-19.954,8.017c-5.438,5.332-8.295,12.062-8.295,19.571v163.049c0,7.589,2.856,14.319,8.449,19.521
			c5.345,4.992,12.117,7.615,19.8,7.615c7.497,0,14.406-2.536,19.807-7.485c5.771-5.245,8.729-11.975,8.729-19.651v-111.036
			c5.913-8.752,12.643-15.891,19.984-21.291c7.312-5.523,16.516-8.146,28.063-8.146c11.74,0,19.897,2.623,23.949,7.8
			c4.685,5.833,7.076,16.193,7.076,30.019v102.654c0,7.589,2.944,14.319,8.485,19.521c5.295,4.949,12.181,7.615,19.758,7.615
			c7.582,0,14.418-2.536,19.898-7.485c5.732-5.245,8.732-11.975,8.732-19.651v-111.036c5.914-8.752,12.645-15.891,19.998-21.291
			c7.244-5.523,16.416-8.146,28.045-8.146c11.797,0,19.817,2.623,24.013,7.8c4.534,5.833,7.063,16.193,7.063,30.018v102.654
			c0,7.589,2.813,14.319,8.395,19.521c5.244,4.992,12.16,7.615,19.85,7.615c7.49,0,14.375-2.536,19.799-7.485
			c5.679-5.245,8.783-11.975,8.783-19.651v-109.471c0-13.503-2.758-26.684-8.104-39.024
			C5366.039-999.474,5357.299-1010.076,5345.763-1018.228"/>
		<path fill="#FFFFFF" d="M5613.217-905.578c5.245-5.097,8.065-11.827,8.065-19.305c0-18.754-4.15-36.408-12.42-52.255
			c-8.345-16.23-20.752-29.394-36.879-39.042c-15.939-9.742-35.064-14.536-56.781-14.536c-23.099,0-42.983,5.246-59.078,15.587
			c-16.076,10.447-28.106,24.278-35.92,41.177c-7.596,16.447-11.461,34.552-11.461,53.968c0,34.707,10.403,62.164,30.791,81.686
			c20.221,19.336,48.365,29.115,83.783,29.115c17.127,0,31.014-1.373,42.135-4.447c10.881-3.031,22.082-7.466,33.254-13.503
			c12.981-7.058,15.748-16.255,15.748-22.837c0-7.25-2.914-13.614-8.357-18.253c-5.096-4.436-11.213-6.711-17.832-6.711
			c-4.206,0-8.078,0.903-11.604,2.517c-7.394,3.501-15.138,6.254-22.855,8.017c-7.59,1.874-16.838,2.777-27.297,2.777
			c-18.748,0-33.21-4.194-43.188-12.495c-7.242-6.087-12.254-13.825-15.074-23.629h124.402
			C5601.001-897.748,5607.916-900.37,5613.217-905.578 M5467.53-945.982c1.386-5.913,3.631-11.028,6.742-15.309
			c4.854-6.903,10.77-11.845,18.023-15.049c15.029-6.688,30.785-6.688,45.854,0c7.349,3.204,13.312,8.189,18.334,15.136
			c3.147,4.305,5.345,9.396,6.815,15.222H5467.53L5467.53-945.982z"/>
		<path fill="#FFFFFF" d="M5832.282-1112.47c-7.732,0-14.406,2.518-19.955,7.546c-5.721,5.202-8.729,12.105-8.729,19.936v72.011
			c-17.561-11.827-37.316-17.87-58.873-17.87c-18.32,0-35.845,4.559-52.155,13.268c-16.472,8.79-29.976,21.822-40.132,38.616
			c-10.218,16.855-15.408,36.705-15.408,58.979c0,22.324,5.189,42.191,15.408,59.022c10.157,16.793,23.66,29.87,40.132,38.709
			c16.312,8.728,33.835,13.07,52.155,13.07c22.379,0,42.699-6.34,60.785-19.008c1.473,3.55,3.772,6.859,6.815,9.612
			c5.549,5.054,12.224,7.485,19.955,7.485c7.546,0,14.418-2.536,19.707-7.615c5.479-5.202,8.449-11.932,8.449-19.435v-246.844
			c0-7.398-2.871-14.283-8.313-19.614C5846.786-1109.761,5839.871-1112.47,5832.282-1112.47 M5780.46-868.44
			c-9.501,4.534-19.664,6.816-30.531,6.816c-17.275,0-30.687-4.819-40.897-14.882c-10.17-10.107-15.167-24.296-15.167-43.479
			c0-19.181,4.997-33.302,15.167-43.366c10.212-10.021,23.622-14.882,40.897-14.882c10.781,0,21.03,2.153,30.531,6.773
			c8.536,4.002,16.323,9.353,23.141,15.786v71.43C5796.783-877.793,5788.996-872.461,5780.46-868.44"/>
		<path fill="#FFFFFF" d="M5955.292-1098.342c-5.869-5.592-13.262-8.45-21.414-8.45h-2.438c-8.164,0-15.605,2.858-21.433,8.45
			c-6.006,5.678-9.211,12.946-9.211,21.006v1.466c0,8.165,3.205,15.414,9.211,21.092c5.826,5.48,13.269,8.406,21.433,8.406h2.438
			c8.152,0,15.545-2.926,21.414-8.406c6.025-5.678,9.174-12.927,9.174-21.092v-1.466
			C5964.466-1085.396,5961.317-1092.664,5955.292-1098.342"/>
		<path fill="#FFFFFF" d="M5932.245-1028.867c-7.775,0-14.598,2.814-19.941,8.018c-5.485,5.332-8.301,12.062-8.301,19.571v163.049
			c0,7.589,2.857,14.319,8.406,19.521c5.331,4.992,12.16,7.615,19.836,7.615c7.49,0,14.375-2.536,19.855-7.485
			c5.678-5.245,8.733-11.975,8.733-19.651v-163.049c0-7.831-2.908-14.647-8.456-19.849
			C5947.146-1026.245,5940.069-1028.867,5932.245-1028.867"/>
		<path fill="#FFFFFF" d="M6112.905-978.338c8.404,0,15.319,0.835,20.664,2.493c5.771,1.701,12.922,4.621,21.235,8.623
			c4.286,2.152,8.783,3.396,13.358,3.396c6.73,0,12.879-2.814,17.89-7.936c4.918-5.01,7.497-10.917,7.497-17.352
			c0-6.296-2.195-15.371-12.979-21.865c-9.463-5.679-19.805-10.429-30.877-14.066c-11.308-3.823-24.772-5.672-39.996-5.672
			c-20.889,0-40.402,4.429-58.104,13.138c-18.043,8.987-32.599,21.971-43.33,38.616c-10.837,16.75-16.36,36.593-16.36,58.979
			c0,22.429,5.523,42.315,16.36,59.133c10.731,16.682,25.287,29.628,43.33,38.511c17.702,8.709,37.217,13.268,58.104,13.268
			c15.224,0,28.688-1.936,39.996-5.703c11.072-3.612,21.414-8.294,30.935-14.06c10.726-6.495,12.921-15.482,12.921-21.89
			c0-6.408-2.579-12.427-7.54-17.542c-4.967-5.078-11.115-7.763-17.847-7.763c-4.576,0-9.072,1.095-13.358,3.371
			c-8.252,4.064-15.465,6.928-21.235,8.666c-5.345,1.571-12.26,2.369-20.664,2.369c-20.611,0-36.168-5.246-47.476-15.934
			c-11.271-10.75-16.657-24.538-16.657-42.426c0-17.845,5.389-31.583,16.657-42.271
			C6076.737-973.136,6092.294-978.338,6112.905-978.338"/>
		<path fill="#FFFFFF" d="M6270.616-1098.342c-5.871-5.592-13.219-8.45-21.427-8.45h-2.388c-8.203,0-15.612,2.858-21.42,8.45
			c-6.063,5.678-9.168,12.946-9.168,21.006v1.466c0,8.165,3.104,15.414,9.168,21.092c5.808,5.48,13.217,8.406,21.42,8.406h2.388
			c8.208,0,15.556-2.926,21.427-8.406c6.063-5.678,9.24-12.927,9.24-21.092v-1.466
			C6279.856-1085.396,6276.679-1092.664,6270.616-1098.342"/>
		<path fill="#FFFFFF" d="M6247.563-1028.867c-7.678,0-14.555,2.814-19.942,8.018c-5.399,5.332-8.201,12.062-8.201,19.571v163.049
			c0,7.589,2.802,14.319,8.381,19.521c5.345,4.992,12.187,7.615,19.763,7.615c7.578,0,14.463-2.536,19.899-7.485
			c5.679-5.245,8.733-11.975,8.733-19.651v-163.049c0-7.831-2.864-14.647-8.451-19.849
			C6262.494-1026.245,6255.442-1028.867,6247.563-1028.867"/>
		<path fill="#FFFFFF" d="M6485.239-1019.385c-12.396-7.596-27.049-11.332-43.65-11.332c-17.709,0-33.457,3.612-46.725,10.683
			c-6.539,3.42-12.879,7.614-18.996,12.346c-1.226-5.054-3.849-9.482-7.861-13.268c-5.45-5.097-12.365-7.911-20.041-7.911
			c-7.59,0-14.555,2.814-19.855,8.06c-5.389,5.289-8.301,12.019-8.301,19.528v163.136c0,7.503,2.957,14.319,8.355,19.435
			c5.389,5.079,12.254,7.615,19.801,7.615c7.583,0,14.404-2.536,19.893-7.485c5.771-5.159,8.783-11.975,8.783-19.564v-110.374
			c7.967-8.988,16.459-16.317,25.23-21.804c9.173-5.672,19.236-8.338,30.834-8.338c24.006,0,34.311,10.769,34.311,36.21v104.306
			c0,7.503,2.914,14.319,8.406,19.435c5.346,4.992,12.161,7.615,19.794,7.615c7.503,0,14.412-2.536,19.843-7.485
			c5.734-5.159,8.74-11.975,8.74-19.564v-108.073c0-15.136-3.247-29.395-9.688-42.142
			C6507.384-1001.367,6497.796-1011.838,6485.239-1019.385"/>
		<path fill="#FFFFFF" d="M6740.198-987.22c-6.921-12.99-17.752-23.628-32.207-31.564c-14.227-7.936-31.688-11.932-51.865-11.932
			c-24.822,0-49.539,4.794-73.496,14.338c-10.881,4.411-16.887,12.903-16.887,23.913c0,6.73,2.715,12.835,7.683,17.499
			c4.774,4.454,10.788,6.946,17.375,6.946c2.196,0,4.583-0.34,7.583-1.052l0.619-0.278c9.303-2.882,17.895-5.122,25.385-6.495
			c7.207-1.293,15.748-2.066,25.244-2.066c16.082,0,27.674,2.864,34.502,8.562c5.189,4.472,8.201,11.609,9.204,21.501h-38.405
			c-32.362,0-57.654,6.234-75.018,18.575c-18.421,13.101-27.816,30.859-27.816,52.985c0,13.503,3.582,25.565,10.646,35.888
			c6.91,10.317,16.403,18.235,28.146,23.585c11.362,5.122,23.758,7.633,37.025,7.633c25.813,0,48.486-6.383,67.479-19.243
			c1.44,3.594,3.631,6.878,6.674,9.717c5.301,5.079,12.18,7.615,19.763,7.615c7.577,0,14.499-2.536,19.897-7.485
			c5.723-5.245,8.729-11.975,8.729-19.564v-107.665C6750.454-960.641,6747.071-974.515,6740.198-987.22 M6671.446-866.789
			c-9.654,4.688-19.676,7.076-29.875,7.076c-15.892,0-23.152-3.204-26.355-5.932c-4.33-3.699-6.285-8.239-6.285-14.388
			c0-4.367,1.15-9.309,9.588-13.521c8.729-4.28,22.564-6.365,41.232-6.365h33.834v17.734
			C6687.517-876.29,6680.026-871.088,6671.446-866.789"/>
		<path fill="#FFFFFF" d="M4274.747-1502.329h72.143v207.863c0,7.589,3.012,14.319,8.404,19.502
			c5.346,5.01,12.217,7.633,19.85,7.633c7.59,0,14.463-2.518,19.844-7.571c5.776-5.134,8.789-11.932,8.789-19.564v-207.863h71.813
			c7.206,0,13.837-2.425,19.039-7.138c5.485-4.923,8.345-11.418,8.345-18.853c0-7.312-2.857-13.806-8.246-18.903
			c-5.158-4.949-11.838-7.484-19.138-7.484h-200.843c-7.447,0-14.084,2.623-19.188,7.614c-5.098,5.115-7.818,11.567-7.818,18.773
			c0,7.33,2.766,13.738,7.967,18.705C4260.72-1504.865,4267.3-1502.329,4274.747-1502.329"/>
		<path fill="#FFFFFF" d="M4644.886-1472.502c-16.082-9.631-35.164-14.555-56.824-14.555c-23.055,0-42.996,5.245-59.078,15.692
			c-16.133,10.367-28.15,24.297-35.987,41.09c-7.533,16.515-11.449,34.639-11.449,54.08c0,34.639,10.41,62.078,30.821,81.642
			c20.246,19.354,48.445,29.159,83.809,29.159c17.084,0,30.908-1.485,42.18-4.454c10.873-3.05,21.994-7.565,33.209-13.503
			c12.922-7.095,15.705-16.317,15.705-22.899c0-7.243-2.826-13.546-8.271-18.278c-5.097-4.342-11.251-6.643-17.89-6.643
			c-4.205,0-8.115,0.816-11.641,2.431c-7.299,3.55-15.031,6.26-22.807,8.066c-7.646,1.93-16.854,2.814-27.297,2.814
			c-18.705,0-33.209-4.194-43.144-12.495c-7.299-6.105-12.297-13.825-15.13-23.629h124.458c8.351,0,15.267-2.623,20.565-7.824
			c5.246-5.208,8.022-11.808,8.022-19.311c0-18.792-4.206-36.402-12.42-52.379
			C4673.376-1449.708,4660.97-1462.803,4644.886-1472.502 M4636.158-1402.297h-95.728c1.33-5.827,3.631-10.924,6.631-15.223
			c4.924-6.928,10.838-11.827,18.043-15.099c15.125-6.73,30.836-6.73,45.946,0c7.263,3.272,13.226,8.171,18.278,15.186
			C4632.429-1413.134,4634.729-1408.081,4636.158-1402.297"/>
		<path fill="#FFFFFF" d="M4833.653-1433.497c7.881,0,14.562-2.388,19.998-6.99c5.58-4.985,8.635-11.591,8.635-19.416
			c0-7.503-2.809-14.171-8.064-19.373c-5.246-5.115-12.02-7.719-19.707-7.719h-2.055c-19.607,0-37.83,7.243-54.346,21.649
			c-1.336-4.447-3.915-8.536-7.484-11.932c-5.449-5.202-12.457-7.911-20.047-7.911c-7.688,0-14.549,2.814-19.947,8.066
			c-5.383,5.289-8.252,12.018-8.252,19.608v163.049c0,7.589,2.914,14.319,8.449,19.502c5.345,5.01,12.211,7.633,19.75,7.633
			c7.59,0,14.405-2.623,19.844-7.46c5.783-5.202,8.838-12.043,8.838-19.676v-112.372c6.014-7.868,13.313-14.208,21.849-18.897
			c9.16-5.097,19.416-7.763,30.543-7.763h1.997V-1433.497z"/>
		<path fill="#FFFFFF" d="M5061.894-1294.465v-107.597c0-14.795-3.445-28.769-10.263-41.48
			c-6.909-12.94-17.802-23.628-32.208-31.583c-14.221-7.936-31.682-11.932-51.871-11.932c-24.859,0-49.521,4.924-73.434,14.363
			c-10.888,4.404-16.855,12.792-16.855,23.907c0,6.816,2.579,12.841,7.602,17.505c4.764,4.559,10.824,7.033,17.362,7.033
			c2.146,0,4.677-0.433,7.534-1.101l0.768-0.235c9.209-2.882,17.801-5.115,25.242-6.495c7.256-1.417,15.806-2.146,25.379-2.146
			c15.946,0,27.588,2.944,34.416,8.641c5.152,4.342,8.203,11.548,9.26,21.414h-38.511c-32.3,0-57.5,6.303-74.955,18.668
			c-18.435,13.008-27.829,30.878-27.829,53.003c0,13.392,3.525,25.435,10.646,35.888c6.858,10.212,16.459,18.186,28.144,23.523
			c11.313,5.115,23.771,7.695,37.039,7.695c25.806,0,48.47-6.495,67.563-19.287c1.385,3.631,3.619,6.816,6.631,9.717
			c5.301,5.01,12.117,7.633,19.806,7.633c7.491,0,14.362-2.518,19.794-7.46C5058.88-1280.035,5061.894-1286.833,5061.894-1294.465
			 M4982.867-1323.104c-9.601,4.775-19.565,7.182-29.876,7.182c-15.891,0-23.134-3.272-26.326-6.043
			c-4.348-3.594-6.26-8.146-6.26-14.301c0-4.385,1.053-9.414,9.539-13.503c8.74-4.299,22.62-6.538,41.227-6.538h33.934v17.895
			C4998.956-1332.5,4991.458-1327.298,4982.867-1323.104"/>
		<path fill="#FFFFFF" d="M5955.292-1098.342c-5.869-5.592-13.262-8.45-21.414-8.45h-2.438c-8.164,0-15.605,2.858-21.433,8.45
			c-6.006,5.678-9.211,12.946-9.211,21.006v1.466c0,8.165,3.205,15.414,9.211,21.092c5.826,5.48,13.269,8.406,21.433,8.406h2.438
			c8.152,0,15.545-2.926,21.414-8.406c6.025-5.678,9.174-12.927,9.174-21.092v-1.466
			C5964.466-1085.396,5961.317-1092.664,5955.292-1098.342"/>
		<path fill="#FFFFFF" d="M6270.616-1098.342c-5.871-5.592-13.219-8.45-21.427-8.45h-2.388c-8.203,0-15.612,2.858-21.42,8.45
			c-6.063,5.678-9.168,12.946-9.168,21.006v1.466c0,8.165,3.104,15.414,9.168,21.092c5.808,5.48,13.217,8.406,21.42,8.406h2.388
			c8.208,0,15.556-2.926,21.427-8.406c6.063-5.678,9.24-12.927,9.24-21.092v-1.466
			C6279.856-1085.396,6276.679-1092.664,6270.616-1098.342"/>
	</g>
</g>
<g>
	<g>
		<defs>
			<rect id="SVGID_10_" x="-3481.392" y="-1756.576" width="6435" height="1080"/>
		</defs>
		<clipPath id="SVGID_11_">
			<use xlink:href="#SVGID_10_"  overflow="visible"/>
		</clipPath>
		<g clip-path="url(#SVGID_11_)">
			
				<linearGradient id="SVGID_12_" gradientUnits="userSpaceOnUse" x1="2076.4404" y1="1887.459" x2="3129.8369" y2="1887.459" gradientTransform="matrix(0.9999 0.0167 0.0176 -1.0522 -216.6926 739.7128)">
				<stop  offset="0" style="stop-color:#F48031"/>
				<stop  offset="1" style="stop-color:#EF5023"/>
			</linearGradient>
			<path opacity="0.3" fill="url(#SVGID_12_)" enable-background="new    " d="M2457.36-1790.013l-554.253-9.105l-20.18,1175.306
				l951.604,15.634c0,0,237.458-370.561,6.218-587.716c-231.24-217.156-110.404-519.965-32.289-553.516
				c78.117-33.549,12.607-34.627,12.607-34.627"/>
			<path fill="#33B9D7" d="M2772.914-676.576h-6254.306v-1080h6254.306c0,0-220.813,272,0,540
				C2993.724-948.576,2862.873-788.576,2772.914-676.576z"/>
		</g>
	</g>
</g>
<g>
	<g>
		<defs>
			<rect id="SVGID_13_" x="1035.017" y="11" width="5399.983" height="906.289"/>
		</defs>
		<clipPath id="SVGID_14_">
			<use xlink:href="#SVGID_13_"  overflow="visible"/>
		</clipPath>
	</g>
	<g>
		<defs>
			<rect id="SVGID_15_" x="1035.017" y="86.855" width="5399.983" height="906.289"/>
		</defs>
		<clipPath id="SVGID_16_">
			<use xlink:href="#SVGID_15_"  overflow="visible"/>
		</clipPath>
		<polyline clip-path="url(#SVGID_16_)" fill="#33B9D7" points="6155.249,75.855 5726.003,75.855 5726.003,946.257 
			6362.054,946.257 6362.054,346.133 		"/>
		<rect x="958.097" y="75.855" clip-path="url(#SVGID_16_)" fill="#33B9D7" width="4790.34" height="870.403"/>
	</g>
	<g>
		<defs>
			<rect id="SVGID_17_" x="1035.017" y="11" width="5399.983" height="986.243"/>
		</defs>
		<clipPath id="SVGID_18_">
			<use xlink:href="#SVGID_17_"  overflow="visible"/>
		</clipPath>
		<g clip-path="url(#SVGID_18_)">
			<g>
				<g>
					<path opacity="0.2" enable-background="new    " d="M6413.651,294.839v642.68c-125.252,0-226.82-101.605-226.82-226.875
						V368.567c0-61.598-49.876-111.508-111.474-111.508h-115.281c-62.668,0-113.409-50.77-113.409-113.454
						c0-62.6,50.743-113.389,113.409-113.389h188.98C6295.256,30.218,6413.651,148.692,6413.651,294.839"/>
				</g>
				
					<linearGradient id="SVGID_19_" gradientUnits="userSpaceOnUse" x1="6069.7402" y1="373.6904" x2="6636.7295" y2="373.6904" gradientTransform="matrix(1 0 0 -1 -210.96 838.3398)">
					<stop  offset="0" style="stop-color:#F48031"/>
					<stop  offset="1" style="stop-color:#EF5023"/>
				</linearGradient>
				<path fill="url(#SVGID_19_)" d="M6425.77,275.621v642.68c-125.255,0-226.821-101.609-226.821-226.873V349.349
					c0-61.604-49.877-111.507-111.474-111.507h-115.291c-62.668,0-113.403-50.769-113.403-113.462
					c0-62.591,50.734-113.381,113.403-113.381h188.981C6307.372,10.998,6425.77,129.468,6425.77,275.621"/>
			</g>
		</g>
	</g>
</g>
<g id="text_1_">
	<path fill="#FFFFFF" d="M5643.201,2688.484c0-1.562-0.612-2.957-1.771-4.05c-1.107-1.047-2.543-1.608-4.109-1.608h-43.143
		c-1.601,0-3.025,0.563-4.121,1.641c-1.097,1.07-1.681,2.476-1.681,4.019c0,1.586,0.595,2.961,1.712,4.028
		c1.076,1.043,2.488,1.564,4.089,1.564h15.496v44.65c0,1.61,0.646,3.073,1.806,4.174c1.148,1.09,2.625,1.635,4.265,1.635
		c1.618,0,3.106-0.545,4.263-1.607c1.24-1.106,1.879-2.571,1.879-4.2v-44.65h15.437c1.547,0,2.972-0.521,4.089-1.532
		C5642.588,2691.486,5643.201,2690.092,5643.201,2688.484"/>
	<path fill="#FFFFFF" d="M5682.53,2724.242c1.127-1.094,1.722-2.541,1.722-4.146c0-4.029-0.879-7.82-2.655-11.225
		c-1.801-3.486-4.469-6.314-7.912-8.387c-3.441-2.093-7.543-3.123-12.205-3.123c-4.963,0-9.248,1.127-12.69,3.35
		c-3.456,2.244-6.046,5.213-7.729,8.844c-1.627,3.533-2.459,7.422-2.459,11.594c0,7.455,2.246,13.354,6.621,17.548
		c4.338,4.151,10.395,6.252,18,6.252c3.672,0,6.651-0.293,9.049-0.955c2.349-0.65,4.737-1.604,7.138-2.898
		c2.798-1.518,3.371-3.493,3.371-4.905c0-1.56-0.597-2.925-1.767-3.923c-1.094-0.952-2.429-1.44-3.842-1.44
		c-0.902,0-1.73,0.193-2.49,0.541c-1.578,0.752-3.25,1.344-4.91,1.723c-1.641,0.402-3.619,0.596-5.861,0.596
		c-4.018,0-7.146-0.899-9.268-2.684c-1.578-1.307-2.633-2.969-3.25-5.076h26.733
		C5679.918,2725.924,5681.401,2725.361,5682.53,2724.242 M5651.247,2715.564c0.275-1.271,0.779-2.369,1.425-3.289
		c1.048-1.482,2.317-2.545,3.888-3.232c3.229-1.436,6.601-1.436,9.857,0c1.561,0.688,2.841,1.758,3.925,3.252
		c0.667,0.924,1.151,2.018,1.456,3.27H5651.247L5651.247,2715.564z"/>
	<path fill="#FFFFFF" d="M5696.39,2679.801c-1.662,0-3.125,0.582-4.272,1.709c-1.183,1.127-1.784,2.607-1.784,4.195v53.023
		c0,1.61,0.635,3.073,1.802,4.174c1.147,1.09,2.616,1.635,4.255,1.635c1.619,0,3.096-0.545,4.271-1.607
		c1.232-1.106,1.877-2.571,1.877-4.2v-53.023c0-1.657-0.625-3.129-1.813-4.264
		C5699.597,2680.365,5698.079,2679.801,5696.39,2679.801"/>
	<path fill="#FFFFFF" d="M5753.132,2724.242c1.126-1.094,1.723-2.541,1.723-4.146c0-4.029-0.894-7.82-2.654-11.225
		c-1.792-3.486-4.461-6.314-7.924-8.387c-3.434-2.093-7.533-3.123-12.195-3.123c-4.963,0-9.237,1.127-12.69,3.35
		c-3.463,2.244-6.048,5.213-7.72,8.844c-1.629,3.533-2.459,7.422-2.459,11.594c0,7.455,2.234,13.354,6.59,17.548
		c4.369,4.151,10.416,6.252,18.021,6.252c3.683,0,6.651-0.293,9.051-0.955c2.336-0.65,4.735-1.604,7.125-2.898
		c2.795-1.518,3.401-3.493,3.401-4.905c0-1.56-0.625-2.925-1.795-3.923c-1.098-0.952-2.418-1.44-3.854-1.44
		c-0.882,0-1.723,0.193-2.473,0.541c-1.586,0.752-3.246,1.344-4.908,1.723c-1.631,0.402-3.617,0.596-5.873,0.596
		c-4.017,0-7.133-0.899-9.264-2.684c-1.561-1.307-2.639-2.969-3.252-5.076h26.732
		C5750.506,2725.924,5751.992,2725.361,5753.132,2724.242 M5721.838,2715.564c0.297-1.271,0.771-2.369,1.444-3.289
		c1.035-1.482,2.316-2.545,3.875-3.232c3.229-1.436,6.609-1.436,9.851,0c1.567,0.688,2.856,1.758,3.938,3.252
		c0.674,0.924,1.146,2.018,1.453,3.27H5721.838L5721.838,2715.564z"/>
	<path fill="#FFFFFF" d="M5824.233,2700.045c-2.512-1.783-5.66-2.684-9.328-2.684c-6.561,0-11.817,2.223-15.703,6.641
		c-1.063-1.416-2.354-2.688-3.936-3.805c-2.665-1.875-5.895-2.836-9.57-2.836c-4.02,0-7.395,0.826-10.006,2.449
		c-1.016,0.6-1.947,1.311-2.849,2.045c-0.288-0.877-0.823-1.689-1.571-2.396c-1.156-1.117-2.643-1.699-4.272-1.699
		c-1.669,0-3.157,0.604-4.285,1.723c-1.168,1.146-1.78,2.591-1.78,4.203v35.023c0,1.631,0.612,3.076,1.813,4.193
		c1.147,1.071,2.603,1.635,4.252,1.635c1.61,0,3.095-0.545,4.254-1.607c1.241-1.127,1.876-2.572,1.876-4.221v-23.852
		c1.271-1.879,2.716-3.412,4.292-4.572c1.569-1.188,3.547-1.75,6.028-1.75c2.521,0,4.273,0.563,5.145,1.676
		c1.007,1.252,1.521,3.477,1.521,6.447v22.051c0,1.631,0.633,3.076,1.822,4.193c1.137,1.063,2.615,1.635,4.244,1.635
		s3.098-0.545,4.273-1.607c1.23-1.127,1.876-2.571,1.876-4.221v-23.852c1.271-1.879,2.717-3.412,4.296-4.572
		c1.557-1.188,3.525-1.75,6.023-1.75c2.533,0,4.256,0.563,5.156,1.676c0.976,1.252,1.52,3.478,1.52,6.447v22.051
		c0,1.631,0.604,3.076,1.803,4.193c1.127,1.072,2.612,1.635,4.265,1.635c1.608,0,3.088-0.545,4.253-1.606
		c1.221-1.127,1.887-2.572,1.887-4.222v-23.514c0-2.899-0.592-5.731-1.74-8.383
		C5828.59,2704.074,5826.713,2701.795,5824.233,2700.045"/>
	<path fill="#FFFFFF" d="M5881.685,2724.242c1.127-1.094,1.731-2.541,1.731-4.146c0-4.029-0.892-7.82-2.668-11.225
		c-1.791-3.486-4.457-6.314-7.921-8.387c-3.424-2.093-7.532-3.123-12.197-3.123c-4.961,0-9.231,1.127-12.689,3.35
		c-3.452,2.244-6.037,5.213-7.714,8.844c-1.633,3.533-2.462,7.422-2.462,11.594c0,7.455,2.234,13.354,6.613,17.548
		c4.344,4.151,10.389,6.252,17.996,6.252c3.679,0,6.662-0.293,9.051-0.955c2.336-0.65,4.742-1.604,7.143-2.898
		c2.789-1.518,3.384-3.493,3.384-4.905c0-1.56-0.626-2.925-1.796-3.923c-1.094-0.952-2.408-1.44-3.83-1.44
		c-0.902,0-1.734,0.193-2.492,0.541c-1.588,0.752-3.252,1.344-4.908,1.723c-1.631,0.402-3.618,0.596-5.865,0.596
		c-4.027,0-7.134-0.899-9.275-2.684c-1.557-1.307-2.633-2.969-3.237-5.076h26.722
		C5879.062,2725.924,5880.546,2725.361,5881.685,2724.242 M5850.392,2715.564c0.297-1.271,0.779-2.369,1.447-3.289
		c1.043-1.482,2.313-2.545,3.871-3.232c3.229-1.436,6.612-1.436,9.851,0c1.579,0.688,2.858,1.758,3.938,3.252
		c0.676,0.924,1.147,2.018,1.463,3.27H5850.392L5850.392,2715.564z"/>
	<path fill="#FFFFFF" d="M5928.74,2679.801c-1.661,0-3.095,0.541-4.287,1.621c-1.228,1.119-1.875,2.603-1.875,4.283v15.469
		c-3.771-2.541-8.017-3.84-12.646-3.84c-3.937,0-7.699,0.98-11.205,2.852c-3.537,1.888-6.438,4.688-8.619,8.293
		c-2.194,3.621-3.311,7.886-3.311,12.67c0,4.795,1.115,9.063,3.311,12.679c2.183,3.604,5.082,6.416,8.619,8.313
		c3.506,1.875,7.27,2.807,11.205,2.807c4.808,0,9.17-1.36,13.057-4.082c0.316,0.763,0.813,1.474,1.464,2.064
		c1.192,1.086,2.626,1.607,4.287,1.607c1.621,0,3.097-0.545,4.231-1.636c1.179-1.116,1.815-2.563,1.815-4.174v-53.022
		c0-1.588-0.617-3.068-1.786-4.213C5931.854,2680.383,5930.37,2679.801,5928.74,2679.801 M5917.608,2732.221
		c-2.041,0.973-4.225,1.463-6.559,1.463c-3.711,0-6.592-1.035-8.786-3.195c-2.185-2.172-3.258-5.221-3.258-9.34
		c0-4.121,1.074-7.154,3.258-9.315c2.194-2.152,5.075-3.195,8.786-3.195c2.314,0,4.518,0.461,6.559,1.455
		c1.832,0.856,3.506,2.008,4.97,3.392v15.344C5921.115,2730.211,5919.44,2731.355,5917.608,2732.221"/>
	<path fill="#FFFFFF" d="M5955.163,2682.836c-1.262-1.201-2.85-1.814-4.6-1.814h-0.524c-1.753,0-3.353,0.613-4.604,1.814
		c-1.291,1.221-1.979,2.781-1.979,4.514v0.313c0,1.754,0.688,3.311,1.979,4.53c1.252,1.179,2.852,1.808,4.604,1.808h0.524
		c1.75,0,3.338-0.629,4.6-1.808c1.294-1.221,1.971-2.776,1.971-4.53v-0.313C5957.133,2685.617,5956.457,2684.057,5955.163,2682.836"
		/>
	<path fill="#FFFFFF" d="M5950.212,2697.76c-1.67,0-3.135,0.604-4.282,1.723c-1.181,1.146-1.785,2.591-1.785,4.203v35.023
		c0,1.631,0.615,3.076,1.808,4.193c1.146,1.071,2.611,1.635,4.261,1.635c1.61,0,3.088-0.545,4.265-1.607
		c1.222-1.127,1.877-2.572,1.877-4.221v-35.023c0-1.682-0.625-3.146-1.815-4.264
		C5953.413,2698.322,5951.894,2697.76,5950.212,2697.76"/>
	<path fill="#FFFFFF" d="M5989.019,2708.613c1.807,0,3.291,0.18,4.438,0.535c1.24,0.364,2.774,0.991,4.562,1.854
		c0.922,0.461,1.887,0.729,2.871,0.729c1.445,0,2.767-0.604,3.842-1.705c1.057-1.075,1.609-2.344,1.609-3.727
		c0-1.354-0.471-3.301-2.788-4.697c-2.03-1.219-4.253-2.24-6.632-3.021c-2.43-0.82-5.32-1.22-8.591-1.22
		c-4.487,0-8.681,0.953-12.481,2.824c-3.875,1.93-7.002,4.719-9.308,8.293c-2.327,3.601-3.515,7.861-3.515,12.67
		c0,4.816,1.188,9.088,3.515,12.701c2.306,3.582,5.433,6.365,9.308,8.271c3.803,1.871,7.994,2.852,12.481,2.852
		c3.271,0,6.162-0.416,8.591-1.227c2.379-0.775,4.602-1.781,6.646-3.021c2.304-1.396,2.773-3.324,2.773-4.701
		s-0.555-2.67-1.618-3.77c-1.067-1.091-2.388-1.666-3.834-1.666c-0.983,0-1.949,0.233-2.87,0.723
		c-1.771,0.873-3.32,1.488-4.563,1.863c-1.146,0.336-2.633,0.508-4.438,0.508c-4.428,0-7.77-1.127-10.198-3.422
		c-2.42-2.312-3.578-5.271-3.578-9.113c0-3.834,1.158-6.785,3.578-9.08C5981.25,2709.73,5984.591,2708.613,5989.019,2708.613"/>
	<path fill="#FFFFFF" d="M6022.896,2682.836c-1.263-1.201-2.84-1.814-4.604-1.814h-0.514c-1.761,0-3.353,0.613-4.6,1.814
		c-1.303,1.221-1.971,2.781-1.971,4.514v0.313c0,1.754,0.668,3.311,1.971,4.53c1.247,1.179,2.839,1.808,4.6,1.808h0.514
		c1.764,0,3.341-0.629,4.604-1.808c1.303-1.221,1.983-2.776,1.983-4.53v-0.313
		C6024.879,2685.617,6024.196,2684.057,6022.896,2682.836"/>
	<path fill="#FFFFFF" d="M6017.942,2697.76c-1.648,0-3.127,0.604-4.283,1.723c-1.16,1.146-1.763,2.591-1.763,4.203v35.023
		c0,1.631,0.603,3.076,1.801,4.193c1.147,1.071,2.617,1.635,4.245,1.635c1.627,0,3.105-0.545,4.273-1.607
		c1.22-1.127,1.877-2.572,1.877-4.221v-35.023c0-1.682-0.615-3.146-1.814-4.264
		C6021.149,2698.322,6019.636,2697.76,6017.942,2697.76"/>
	<path fill="#FFFFFF" d="M6068.997,2699.797c-2.663-1.631-5.811-2.436-9.378-2.436c-3.804,0-7.187,0.777-10.035,2.295
		c-1.405,0.736-2.767,1.637-4.08,2.652c-0.263-1.086-0.827-2.037-1.688-2.851c-1.172-1.096-2.655-1.699-4.306-1.699
		c-1.631,0-3.127,0.604-4.265,1.73c-1.158,1.137-1.783,2.582-1.783,4.194v35.043c0,1.611,0.635,3.074,1.795,4.175
		c1.156,1.09,2.633,1.635,4.252,1.635c1.629,0,3.096-0.545,4.273-1.606c1.238-1.107,1.887-2.572,1.887-4.201v-23.709
		c1.711-1.932,3.535-3.506,5.42-4.685c1.97-1.219,4.133-1.793,6.623-1.793c5.156,0,7.371,2.314,7.371,7.779v22.406
		c0,1.61,0.625,3.073,1.805,4.174c1.148,1.072,2.611,1.635,4.252,1.635c1.611,0,3.098-0.545,4.264-1.606
		c1.231-1.107,1.877-2.572,1.877-4.201v-23.215c0-3.252-0.697-6.314-2.08-9.053
		C6073.753,2703.666,6071.692,2701.418,6068.997,2699.797"/>
	<path fill="#FFFFFF" d="M6123.763,2706.705c-1.486-2.791-3.813-5.074-6.918-6.779c-3.057-1.705-6.808-2.563-11.141-2.563
		c-5.332,0-10.643,1.03-15.788,3.08c-2.336,0.946-3.627,2.771-3.627,5.137c0,1.447,0.583,2.758,1.649,3.76
		c1.025,0.955,2.317,1.492,3.732,1.492c0.471,0,0.984-0.074,1.628-0.228l0.133-0.061c1.999-0.617,3.845-1.1,5.453-1.395
		c1.548-0.277,3.383-0.443,5.423-0.443c3.455,0,5.945,0.615,7.411,1.838c1.114,0.961,1.761,2.494,1.978,4.619h-8.25
		c-6.951,0-12.385,1.34-16.113,3.989c-3.957,2.814-5.975,6.627-5.975,11.382c0,2.899,0.769,5.491,2.285,7.709
		c1.484,2.217,3.524,3.918,6.047,5.065c2.44,1.101,5.103,1.639,7.953,1.639c5.543,0,10.416-1.371,14.494-4.133
		c0.31,0.772,0.779,1.479,1.435,2.088c1.138,1.09,2.615,1.635,4.244,1.635c1.628,0,3.114-0.545,4.274-1.606
		c1.229-1.127,1.873-2.572,1.873-4.201v-23.127C6125.965,2712.414,6125.239,2709.434,6123.763,2706.705 M6108.994,2732.574
		c-2.074,1.008-4.226,1.52-6.417,1.52c-3.413,0-4.975-0.688-5.661-1.272c-0.931-0.795-1.351-1.771-1.351-3.091
		c0-0.938,0.246-2,2.06-2.903c1.875-0.92,4.849-1.367,8.856-1.367h7.269v3.81C6112.444,2730.533,6110.837,2731.65,6108.994,2732.574
		"/>
	<path fill="#FFFFFF" d="M5594.179,2596.059h15.496v44.65c0,1.631,0.646,3.074,1.806,4.189c1.147,1.073,2.624,1.639,4.265,1.639
		c1.631,0,3.105-0.541,4.262-1.625c1.241-1.104,1.889-2.564,1.889-4.203v-44.65h15.428c1.547,0,2.971-0.52,4.089-1.532
		c1.179-1.058,1.792-2.453,1.792-4.05c0-1.569-0.613-2.967-1.771-4.061c-1.106-1.064-2.541-1.607-4.108-1.607h-43.144
		c-1.6,0-3.024,0.563-4.121,1.636c-1.096,1.1-1.68,2.483-1.68,4.032c0,1.574,0.594,2.951,1.712,4.019
		C5591.165,2595.514,5592.578,2596.059,5594.179,2596.059"/>
	<path fill="#FFFFFF" d="M5673.685,2602.465c-3.453-2.068-7.554-3.125-12.205-3.125c-4.953,0-9.236,1.127-12.69,3.369
		c-3.464,2.229-6.046,5.221-7.729,8.828c-1.619,3.547-2.459,7.438-2.459,11.615c0,7.44,2.234,13.336,6.621,17.537
		c4.349,4.157,10.404,6.264,18,6.264c3.672,0,6.641-0.318,9.062-0.957c2.336-0.654,4.726-1.625,7.134-2.9
		c2.775-1.522,3.374-3.506,3.374-4.918c0-1.557-0.606-2.91-1.776-3.928c-1.095-0.932-2.416-1.426-3.842-1.426
		c-0.903,0-1.744,0.176-2.502,0.521c-1.566,0.765-3.229,1.347-4.898,1.732c-1.641,0.414-3.62,0.604-5.861,0.604
		c-4.019,0-7.135-0.899-9.269-2.684c-1.567-1.313-2.642-2.971-3.249-5.076h26.732c1.795,0,3.278-0.563,4.418-1.68
		c1.127-1.119,1.724-2.537,1.724-4.148c0-4.037-0.903-7.82-2.668-11.252C5679.806,2607.361,5677.14,2604.549,5673.685,2602.465
		 M5671.81,2617.547h-20.563c0.286-1.252,0.779-2.348,1.425-3.271c1.058-1.488,2.327-2.539,3.876-3.242
		c3.248-1.445,6.623-1.445,9.869,0c1.561,0.703,2.841,1.754,3.925,3.262C5671.009,2615.219,5671.503,2616.305,5671.81,2617.547"/>
	<path fill="#FFFFFF" d="M5714.231,2610.844c1.693,0,3.129-0.512,4.297-1.5c1.197-1.072,1.854-2.49,1.854-4.172
		c0-1.611-0.604-3.045-1.732-4.16c-1.127-1.1-2.582-1.658-4.231-1.658h-0.44c-4.213,0-8.127,1.556-11.676,4.648
		c-0.285-0.953-0.84-1.832-1.605-2.563c-1.171-1.117-2.677-1.699-4.307-1.699c-1.651,0-3.125,0.604-4.285,1.731
		c-1.156,1.138-1.771,2.582-1.771,4.213v35.023c0,1.631,0.625,3.073,1.813,4.188c1.148,1.074,2.625,1.639,4.244,1.639
		c1.629,0,3.095-0.563,4.262-1.602c1.243-1.119,1.898-2.588,1.898-4.227v-24.138c1.293-1.69,2.859-3.053,4.692-4.061
		c1.968-1.095,4.171-1.668,6.562-1.668h0.428V2610.844z"/>
	<path fill="#FFFFFF" d="M5763.259,2640.709v-23.113c0-3.178-0.74-6.178-2.205-8.908c-1.484-2.778-3.823-5.075-6.917-6.784
		c-3.056-1.705-6.806-2.563-11.144-2.563c-5.34,0-10.639,1.057-15.773,3.084c-2.338,0.947-3.62,2.748-3.62,5.135
		c0,1.466,0.554,2.761,1.634,3.763c1.021,0.979,2.324,1.51,3.729,1.51c0.463,0,1.006-0.094,1.619-0.236l0.164-0.051
		c1.979-0.619,3.824-1.098,5.422-1.396c1.56-0.305,3.396-0.461,5.453-0.461c3.426,0,5.924,0.634,7.393,1.855
		c1.105,0.934,1.762,2.48,1.988,4.6h-8.271c-6.939,0-12.352,1.354-16.102,4.013c-3.959,2.793-5.979,6.631-5.979,11.385
		c0,2.875,0.758,5.463,2.286,7.709c1.476,2.193,3.536,3.904,6.047,5.053c2.431,1.099,5.104,1.652,7.956,1.652
		c5.543,0,10.411-1.396,14.514-4.144c0.297,0.779,0.775,1.466,1.424,2.088c1.139,1.074,2.604,1.64,4.254,1.64
		c1.608,0,3.086-0.541,4.252-1.603C5762.61,2643.809,5763.259,2642.348,5763.259,2640.709 M5746.283,2634.557
		c-2.063,1.025-4.202,1.543-6.418,1.543c-3.412,0-4.97-0.703-5.653-1.299c-0.935-0.771-1.345-1.75-1.345-3.072
		c0-0.94,0.226-2.021,2.049-2.899c1.877-0.923,4.858-1.404,8.854-1.404h7.289v3.846
		C5749.739,2632.539,5748.129,2633.656,5746.283,2634.557"/>
	<path fill="#FFFFFF" d="M5955.163,2682.836c-1.262-1.201-2.85-1.814-4.6-1.814h-0.524c-1.753,0-3.353,0.613-4.604,1.814
		c-1.291,1.221-1.979,2.781-1.979,4.514v0.313c0,1.754,0.688,3.311,1.979,4.53c1.252,1.179,2.852,1.808,4.604,1.808h0.524
		c1.75,0,3.338-0.629,4.6-1.808c1.294-1.221,1.971-2.776,1.971-4.53v-0.313C5957.133,2685.617,5956.457,2684.057,5955.163,2682.836"
		/>
	<path fill="#FFFFFF" d="M6022.896,2682.836c-1.263-1.201-2.84-1.814-4.604-1.814h-0.514c-1.761,0-3.353,0.613-4.6,1.814
		c-1.303,1.221-1.971,2.781-1.971,4.514v0.313c0,1.754,0.668,3.311,1.971,4.53c1.247,1.179,2.839,1.808,4.6,1.808h0.514
		c1.764,0,3.341-0.629,4.604-1.808c1.303-1.221,1.983-2.776,1.983-4.53v-0.313
		C6024.879,2685.617,6024.196,2684.057,6022.896,2682.836"/>
</g>
</svg>
