<?xml version="1.0" encoding="utf-8"?>
<!-- Generator: Adobe Illustrator 16.0.0, SVG Export Plug-In . SVG Version: 6.00 Build 0)  -->
<!DOCTYPE svg PUBLIC "-//W3C//DTD SVG 1.1//EN" "http://www.w3.org/Graphics/SVG/1.1/DTD/svg11.dtd">
<svg version="1.1" xmlns="http://www.w3.org/2000/svg" xmlns:xlink="http://www.w3.org/1999/xlink" x="0px" y="0px"
	 width="341.863px" height="116.802px" viewBox="0 0 341.863 116.802" enable-background="new 0 0 341.863 116.802"
	 xml:space="preserve">
<g id="Layer_1">
</g>
<g id="SomenteLogo">
	<g>
		<g>
			<linearGradient id="SVGID_1_" gradientUnits="userSpaceOnUse" x1="8.9316" y1="58.4004" x2="60.3428" y2="58.4004">
				<stop  offset="0" style="stop-color:#F58131"/>
				<stop  offset="1" style="stop-color:#F05123"/>
			</linearGradient>
			<path fill="url(#SVGID_1_)" d="M60.343,41.261v58.273c-11.357,0-20.567-9.213-20.567-20.57V47.946
				c0-5.586-4.521-10.111-10.107-10.111H19.216c-5.684,0-10.284-4.604-10.284-10.287c0-5.676,4.601-10.281,10.284-10.281h17.135
				C49.606,17.267,60.343,28.009,60.343,41.261"/>
			<g>
				<defs>
					<path id="SVGID_2_" d="M60.348,17.272L60.348,17.272c0,11.354,9.206,20.563,20.564,20.563c5.681,0,10.279-4.604,10.279-10.287
						c0-5.682-4.599-10.275-10.279-10.275H60.348z"/>
				</defs>
				<clipPath id="SVGID_3_">
					<use xlink:href="#SVGID_2_"  overflow="visible"/>
				</clipPath>
				
					<linearGradient id="SVGID_4_" gradientUnits="userSpaceOnUse" x1="-270.0972" y1="-26.8623" x2="-266.2715" y2="-26.8623" gradientTransform="matrix(9.4911 10.2971 -10.2971 9.4911 2344.4575 3043.9312)">
					<stop  offset="0" style="stop-color:#6CCDE5"/>
					<stop  offset="1" style="stop-color:#10B0D0"/>
				</linearGradient>
				<polygon clip-path="url(#SVGID_3_)" fill="url(#SVGID_4_)" points="50.102,26.72 74.514,53.206 101.444,28.394 77.024,1.903 
									"/>
			</g>
		</g>
		<g id="text">
			<path fill="#FFFFFF" d="M260.702,65.993c-0.532-0.508-1.205-0.77-1.942-0.77h-0.222c-0.747,0-1.417,0.262-1.948,0.77
				c-0.547,0.516-0.84,1.174-0.84,1.906v0.135c0,0.74,0.293,1.396,0.84,1.912c0.531,0.5,1.201,0.764,1.948,0.764h0.222
				c0.737,0,1.41-0.264,1.942-0.764c0.55-0.516,0.832-1.172,0.832-1.912v-0.135C261.534,67.167,261.252,66.509,260.702,65.993"/>
			<path fill="#FFFFFF" d="M289.345,65.993c-0.53-0.508-1.199-0.77-1.944-0.77h-0.217c-0.748,0-1.419,0.262-1.947,0.77
				c-0.553,0.516-0.833,1.174-0.833,1.906v0.135c0,0.74,0.28,1.396,0.833,1.912c0.528,0.5,1.199,0.764,1.947,0.764h0.217
				c0.745,0,1.414-0.264,1.944-0.764c0.55-0.516,0.842-1.172,0.842-1.912v-0.135C290.187,67.167,289.895,66.509,289.345,65.993"/>
			<g>
				<path fill="#33B9D7" d="M128.782,68.378c0-0.66-0.254-1.25-0.748-1.713c-0.47-0.441-1.074-0.682-1.734-0.682h-18.251
					c-0.669,0-1.276,0.24-1.74,0.697c-0.461,0.455-0.71,1.047-0.71,1.697c0,0.674,0.251,1.256,0.726,1.707
					c0.456,0.438,1.056,0.666,1.725,0.666h6.559v18.875c0,0.68,0.271,1.299,0.763,1.766c0.485,0.465,1.107,0.691,1.803,0.691
					c0.683,0,1.312-0.227,1.801-0.68c0.525-0.471,0.796-1.09,0.796-1.777V70.751h6.53c0.653,0,1.254-0.229,1.724-0.654
					C128.522,69.647,128.782,69.06,128.782,68.378"/>
				<path fill="#33B9D7" d="M145.415,83.503c0.479-0.465,0.729-1.076,0.729-1.756c0-1.707-0.376-3.307-1.125-4.75
					c-0.764-1.471-1.888-2.666-3.347-3.543c-1.454-0.881-3.189-1.32-5.156-1.32c-2.103,0-3.913,0.475-5.372,1.418
					c-1.46,0.951-2.557,2.205-3.266,3.736c-0.688,1.496-1.04,3.141-1.04,4.906c0,3.146,0.945,5.646,2.796,7.416
					c1.835,1.758,4.396,2.648,7.613,2.648c1.553,0,2.814-0.129,3.826-0.402c0.994-0.279,2.002-0.682,3.018-1.23
					c1.184-0.641,1.429-1.479,1.429-2.076c0-0.658-0.256-1.234-0.749-1.654c-0.463-0.402-1.024-0.611-1.624-0.611
					c-0.381,0-0.73,0.082-1.052,0.23c-0.67,0.316-1.376,0.57-2.076,0.725c-0.695,0.176-1.532,0.254-2.481,0.254
					c-1.697,0-3.021-0.379-3.916-1.137c-0.665-0.553-1.116-1.254-1.376-2.143h11.304C144.309,84.214,144.937,83.974,145.415,83.503
					 M132.186,79.833c0.118-0.537,0.329-1.002,0.606-1.393c0.439-0.629,0.979-1.078,1.641-1.367c1.365-0.607,2.791-0.607,4.167,0
					c0.662,0.289,1.203,0.748,1.66,1.375c0.283,0.389,0.486,0.852,0.615,1.385H132.186z"/>
				<path fill="#33B9D7" d="M151.274,64.708c-0.701,0-1.32,0.246-1.807,0.723c-0.498,0.479-0.757,1.1-0.757,1.771v22.424
					c0,0.68,0.271,1.299,0.765,1.766c0.484,0.465,1.105,0.691,1.799,0.691c0.687,0,1.311-0.227,1.807-0.68
					c0.521-0.471,0.793-1.09,0.793-1.777V67.202c0-0.701-0.267-1.322-0.768-1.803C152.629,64.946,151.991,64.708,151.274,64.708"/>
				<path fill="#33B9D7" d="M175.267,83.503c0.479-0.465,0.732-1.076,0.732-1.756c0-1.707-0.378-3.307-1.123-4.75
					c-0.759-1.471-1.887-2.666-3.35-3.543c-1.454-0.881-3.188-1.32-5.159-1.32c-2.097,0-3.906,0.475-5.368,1.418
					c-1.462,0.951-2.558,2.205-3.265,3.736c-0.688,1.496-1.039,3.141-1.039,4.906c0,3.146,0.947,5.646,2.792,7.416
					c1.842,1.758,4.403,2.648,7.618,2.648c1.555,0,2.811-0.129,3.826-0.402c0.988-0.279,2-0.682,3.015-1.23
					c1.181-0.641,1.435-1.479,1.435-2.076c0-0.658-0.262-1.234-0.753-1.654c-0.467-0.402-1.025-0.611-1.634-0.611
					c-0.372,0-0.728,0.082-1.047,0.23c-0.671,0.316-1.37,0.57-2.072,0.725c-0.692,0.176-1.533,0.254-2.484,0.254
					c-1.7,0-3.017-0.379-3.921-1.137c-0.657-0.553-1.114-1.254-1.371-2.143h11.305C174.161,84.214,174.791,83.974,175.267,83.503
					 M162.035,79.833c0.127-0.537,0.329-1.002,0.61-1.393c0.441-0.629,0.98-1.078,1.639-1.367c1.369-0.607,2.797-0.607,4.168,0
					c0.661,0.289,1.21,0.748,1.664,1.375c0.284,0.389,0.486,0.852,0.613,1.385H162.035z"/>
				<path fill="#33B9D7" d="M205.338,73.269c-1.065-0.756-2.393-1.135-3.947-1.135c-2.773,0-4.992,0.938-6.64,2.807
					c-0.449-0.594-0.997-1.133-1.661-1.605c-1.13-0.793-2.493-1.201-4.053-1.201c-1.695,0-3.122,0.35-4.229,1.037
					c-0.426,0.252-0.82,0.551-1.204,0.865c-0.117-0.371-0.348-0.717-0.659-1.016c-0.49-0.471-1.123-0.717-1.812-0.717
					c-0.705,0-1.332,0.254-1.813,0.725c-0.494,0.486-0.751,1.098-0.751,1.777v14.813c0,0.688,0.257,1.299,0.764,1.773
					c0.489,0.455,1.102,0.691,1.8,0.691c0.681,0,1.312-0.227,1.802-0.68c0.522-0.479,0.792-1.09,0.792-1.785V79.532
					c0.536-0.791,1.148-1.443,1.813-1.936c0.665-0.502,1.5-0.744,2.552-0.744c1.064,0,1.803,0.242,2.176,0.715
					c0.424,0.531,0.641,1.471,0.641,2.729v9.322c0,0.688,0.271,1.299,0.771,1.773c0.481,0.449,1.105,0.691,1.792,0.691
					c0.688,0,1.311-0.227,1.811-0.68c0.52-0.479,0.793-1.09,0.793-1.785V79.532c0.537-0.791,1.148-1.443,1.813-1.936
					c0.662-0.502,1.493-0.744,2.55-0.744c1.073,0,1.799,0.242,2.179,0.715c0.416,0.531,0.643,1.471,0.643,2.729v9.322
					c0,0.688,0.259,1.299,0.764,1.773c0.479,0.455,1.107,0.691,1.804,0.691c0.682,0,1.308-0.227,1.799-0.68
					c0.518-0.479,0.798-1.09,0.798-1.785v-9.945c0-1.225-0.25-2.42-0.736-3.543C207.178,74.97,206.385,74.009,205.338,73.269"/>
				<path fill="#33B9D7" d="M229.63,83.503c0.479-0.465,0.732-1.076,0.732-1.756c0-1.707-0.378-3.307-1.124-4.75
					c-0.759-1.471-1.889-2.666-3.352-3.543c-1.45-0.881-3.188-1.32-5.158-1.32c-2.097,0-3.904,0.475-5.368,1.418
					c-1.456,0.951-2.553,2.205-3.263,3.736c-0.688,1.496-1.039,3.141-1.039,4.906c0,3.146,0.945,5.646,2.796,7.416
					c1.838,1.758,4.396,2.648,7.611,2.648c1.554,0,2.813-0.129,3.827-0.402c0.987-0.279,2.003-0.682,3.021-1.23
					c1.178-0.641,1.429-1.479,1.429-2.076c0-0.658-0.263-1.234-0.756-1.654c-0.465-0.402-1.021-0.611-1.621-0.611
					c-0.384,0-0.735,0.082-1.057,0.23c-0.673,0.316-1.371,0.57-2.073,0.725c-0.691,0.176-1.531,0.254-2.477,0.254
					c-1.706,0-3.021-0.379-3.925-1.137c-0.659-0.553-1.116-1.254-1.37-2.143h11.299C228.521,84.214,229.15,83.974,229.63,83.503
					 M216.396,79.833c0.126-0.537,0.332-1.002,0.614-1.393c0.439-0.629,0.979-1.078,1.636-1.367c1.367-0.607,2.799-0.607,4.17,0
					c0.665,0.289,1.207,0.748,1.662,1.375c0.284,0.389,0.487,0.852,0.616,1.385H216.396z"/>
				<path fill="#33B9D7" d="M249.528,64.708c-0.697,0-1.31,0.229-1.809,0.686c-0.521,0.473-0.797,1.102-0.797,1.809v6.545
					c-1.592-1.076-3.387-1.623-5.346-1.623c-1.665,0-3.255,0.412-4.742,1.203c-1.495,0.799-2.72,1.98-3.642,3.506
					c-0.929,1.533-1.398,3.334-1.398,5.361c0,2.025,0.47,3.828,1.398,5.359c0.922,1.525,2.146,2.715,3.642,3.516
					c1.487,0.793,3.077,1.189,4.742,1.189c2.032,0,3.88-0.576,5.521-1.729c0.133,0.32,0.341,0.621,0.621,0.873
					c0.499,0.459,1.111,0.68,1.809,0.68c0.685,0,1.313-0.227,1.79-0.691c0.501-0.475,0.768-1.086,0.768-1.766V67.202
					c0-0.672-0.261-1.293-0.753-1.777C250.85,64.954,250.22,64.708,249.528,64.708 M244.821,86.872
					c-0.86,0.416-1.786,0.621-2.774,0.621c-1.569,0-2.781-0.441-3.715-1.35c-0.923-0.92-1.374-2.207-1.374-3.949
					c0-1.74,0.451-3.027,1.374-3.939c0.934-0.914,2.146-1.352,3.715-1.352c0.981,0,1.914,0.191,2.774,0.609
					c0.778,0.365,1.484,0.854,2.102,1.436v6.49C246.306,86.022,245.6,86.507,244.821,86.872"/>
				<path fill="#33B9D7" d="M258.608,72.304c-0.703,0-1.324,0.254-1.809,0.725c-0.497,0.486-0.757,1.098-0.757,1.777v14.813
					c0,0.688,0.263,1.299,0.765,1.773c0.486,0.455,1.105,0.691,1.801,0.691c0.684,0,1.311-0.227,1.806-0.68
					c0.517-0.479,0.793-1.09,0.793-1.785V74.806c0-0.709-0.266-1.328-0.767-1.801C259.961,72.542,259.321,72.304,258.608,72.304"/>
				<path fill="#33B9D7" d="M275.02,76.894c0.762,0,1.391,0.074,1.877,0.225c0.523,0.156,1.174,0.416,1.928,0.783
					c0.393,0.197,0.801,0.307,1.216,0.307c0.609,0,1.171-0.254,1.625-0.717c0.443-0.455,0.682-0.994,0.682-1.578
					c0-0.572-0.203-1.396-1.182-1.99c-0.856-0.516-1.799-0.947-2.805-1.273c-1.026-0.346-2.25-0.516-3.632-0.516
					c-1.896,0-3.674,0.402-5.279,1.193c-1.638,0.816-2.96,1.996-3.936,3.506c-0.984,1.525-1.484,3.328-1.484,5.361
					c0,2.035,0.5,3.842,1.484,5.367c0.976,1.518,2.298,2.693,3.936,3.5c1.605,0.795,3.383,1.203,5.279,1.203
					c1.382,0,2.605-0.172,3.632-0.516c1.006-0.33,1.948-0.756,2.813-1.279c0.971-0.59,1.174-1.406,1.174-1.984
					c0-0.586-0.238-1.133-0.688-1.598c-0.448-0.461-1.01-0.701-1.619-0.701c-0.415,0-0.823,0.098-1.216,0.307
					c-0.75,0.367-1.404,0.629-1.928,0.785c-0.486,0.145-1.115,0.215-1.877,0.215c-1.873,0-3.286-0.477-4.316-1.451
					c-1.021-0.967-1.51-2.229-1.51-3.848c0-1.623,0.489-2.871,1.51-3.842C271.733,77.362,273.146,76.894,275.02,76.894"/>
				<path fill="#33B9D7" d="M287.253,72.304c-0.702,0-1.324,0.254-1.812,0.725c-0.493,0.486-0.746,1.098-0.746,1.777v14.813
					c0,0.688,0.256,1.299,0.761,1.773c0.487,0.455,1.107,0.691,1.797,0.691c0.687,0,1.308-0.227,1.807-0.68
					c0.516-0.479,0.793-1.09,0.793-1.785V74.806c0-0.709-0.263-1.328-0.766-1.801C288.609,72.542,287.97,72.304,287.253,72.304"/>
				<path fill="#33B9D7" d="M308.841,73.163c-1.126-0.688-2.456-1.029-3.968-1.029c-1.607,0-3.035,0.328-4.243,0.969
					c-0.593,0.313-1.17,0.695-1.723,1.121c-0.114-0.455-0.352-0.859-0.715-1.203c-0.497-0.463-1.124-0.717-1.82-0.717
					c-0.691,0-1.325,0.254-1.806,0.732c-0.49,0.479-0.752,1.09-0.752,1.77v14.82c0,0.68,0.267,1.299,0.761,1.766
					c0.487,0.465,1.11,0.691,1.797,0.691c0.688,0,1.309-0.227,1.807-0.68c0.528-0.471,0.794-1.09,0.794-1.777V79.599
					c0.728-0.814,1.495-1.479,2.298-1.979c0.829-0.516,1.744-0.756,2.798-0.756c2.179,0,3.116,0.977,3.116,3.287v9.475
					c0,0.68,0.264,1.299,0.764,1.766c0.485,0.455,1.104,0.691,1.8,0.691c0.679,0,1.306-0.227,1.801-0.68
					c0.52-0.471,0.794-1.09,0.794-1.777V79.81c0-1.377-0.295-2.668-0.879-3.828C310.853,74.8,309.979,73.851,308.841,73.163"/>
				<path fill="#33B9D7" d="M332.002,76.089c-0.632-1.184-1.616-2.15-2.928-2.873c-1.294-0.719-2.88-1.082-4.709-1.082
					c-2.261,0-4.503,0.439-6.68,1.305c-0.984,0.398-1.533,1.166-1.533,2.17c0,0.611,0.246,1.164,0.7,1.59
					c0.431,0.406,0.976,0.629,1.574,0.629c0.2,0,0.419-0.027,0.69-0.096l0.058-0.023c0.846-0.262,1.624-0.465,2.303-0.59
					c0.66-0.121,1.432-0.188,2.296-0.188c1.459,0,2.511,0.264,3.134,0.777c0.469,0.406,0.746,1.057,0.836,1.951h-3.491
					c-2.938,0-5.233,0.566-6.811,1.689c-1.676,1.189-2.527,2.805-2.527,4.816c0,1.225,0.325,2.32,0.964,3.258
					c0.627,0.936,1.493,1.652,2.563,2.139c1.027,0.465,2.156,0.697,3.361,0.697c2.345,0,4.402-0.584,6.129-1.748
					c0.129,0.324,0.329,0.625,0.604,0.881c0.483,0.465,1.107,0.691,1.797,0.691c0.687,0,1.313-0.227,1.808-0.68
					c0.52-0.479,0.792-1.09,0.792-1.777v-9.779C332.932,78.501,332.622,77.237,332.002,76.089 M325.753,87.022
					c-0.872,0.428-1.786,0.643-2.712,0.643c-1.443,0-2.101-0.289-2.394-0.535c-0.395-0.336-0.571-0.748-0.571-1.311
					c0-0.395,0.104-0.844,0.87-1.223c0.792-0.393,2.051-0.584,3.748-0.584h3.07v1.615C327.21,86.165,326.532,86.636,325.753,87.022"
					/>
			</g>
			<g>
				<linearGradient id="SVGID_5_" gradientUnits="userSpaceOnUse" x1="105.5986" y1="37.5889" x2="128.7822" y2="37.5889">
					<stop  offset="0" style="stop-color:#F58131"/>
					<stop  offset="1" style="stop-color:#F05123"/>
				</linearGradient>
				<path fill="url(#SVGID_5_)" d="M108.049,29.298h6.559v18.879c0,0.689,0.271,1.303,0.763,1.771
					c0.485,0.457,1.107,0.693,1.803,0.693c0.687,0,1.312-0.229,1.801-0.686c0.525-0.473,0.8-1.082,0.8-1.779V29.298h6.526
					c0.653,0,1.254-0.223,1.724-0.652c0.499-0.447,0.759-1.037,0.759-1.711c0-0.666-0.254-1.252-0.748-1.719
					c-0.47-0.449-1.074-0.68-1.734-0.68h-18.251c-0.669,0-1.276,0.238-1.74,0.693c-0.461,0.465-0.71,1.045-0.71,1.705
					c0,0.666,0.251,1.248,0.726,1.697C106.78,29.069,107.38,29.298,108.049,29.298"/>
				<linearGradient id="SVGID_6_" gradientUnits="userSpaceOnUse" x1="126.8389" y1="40.7471" x2="146.1465" y2="40.7471">
					<stop  offset="0" style="stop-color:#F58131"/>
					<stop  offset="1" style="stop-color:#F05123"/>
				</linearGradient>
				<path fill="url(#SVGID_6_)" d="M141.673,32.005c-1.459-0.873-3.194-1.324-5.156-1.324c-2.102,0-3.91,0.479-5.372,1.43
					c-1.462,0.941-2.557,2.205-3.266,3.729c-0.686,1.504-1.04,3.148-1.04,4.912c0,3.148,0.942,5.637,2.796,7.418
					c1.839,1.756,4.401,2.645,7.613,2.645c1.553,0,2.812-0.133,3.83-0.4c0.99-0.277,1.998-0.689,3.017-1.227
					c1.178-0.645,1.43-1.48,1.43-2.078c0-0.658-0.26-1.236-0.753-1.66c-0.463-0.398-1.021-0.607-1.624-0.607
					c-0.385,0-0.735,0.078-1.054,0.225c-0.668,0.324-1.372,0.568-2.074,0.732c-0.695,0.172-1.532,0.254-2.481,0.254
					c-1.697,0-3.016-0.381-3.916-1.133c-0.663-0.555-1.12-1.26-1.376-2.148h11.304c0.759,0,1.387-0.236,1.867-0.709
					c0.479-0.473,0.729-1.078,0.729-1.756c0-1.707-0.38-3.307-1.127-4.756C144.258,34.077,143.136,32.886,141.673,32.005
					 M140.879,38.38h-8.693c0.123-0.529,0.329-0.992,0.606-1.381c0.441-0.627,0.981-1.078,1.634-1.369
					c1.375-0.611,2.803-0.611,4.174,0c0.659,0.291,1.203,0.742,1.66,1.379C140.543,37.396,140.75,37.858,140.879,38.38"/>
				<linearGradient id="SVGID_7_" gradientUnits="userSpaceOnUse" x1="148.7109" y1="40.665" x2="161.4229" y2="40.665">
					<stop  offset="0" style="stop-color:#F58131"/>
					<stop  offset="1" style="stop-color:#F05123"/>
				</linearGradient>
				<path fill="url(#SVGID_7_)" d="M158.819,35.55c0.718,0,1.324-0.219,1.817-0.637c0.508-0.459,0.786-1.053,0.786-1.766
					c0-0.678-0.255-1.285-0.733-1.758c-0.479-0.461-1.092-0.701-1.793-0.701h-0.185c-1.78,0-3.437,0.658-4.939,1.967
					c-0.119-0.404-0.352-0.777-0.681-1.084c-0.492-0.471-1.127-0.717-1.817-0.717c-0.699,0-1.32,0.254-1.811,0.73
					c-0.489,0.477-0.753,1.094-0.753,1.781v14.811c0,0.689,0.266,1.303,0.771,1.771c0.483,0.457,1.105,0.693,1.793,0.693
					c0.69,0,1.311-0.236,1.805-0.678c0.522-0.471,0.799-1.09,0.799-1.787V37.972c0.549-0.719,1.213-1.295,1.982-1.719
					c0.835-0.463,1.767-0.703,2.781-0.703H158.819z"/>
				<linearGradient id="SVGID_8_" gradientUnits="userSpaceOnUse" x1="161.5352" y1="40.7471" x2="179.5537" y2="40.7471">
					<stop  offset="0" style="stop-color:#F58131"/>
					<stop  offset="1" style="stop-color:#F05123"/>
				</linearGradient>
				<path fill="url(#SVGID_8_)" d="M179.554,48.177v-9.771c0-1.346-0.315-2.615-0.933-3.77c-0.634-1.174-1.616-2.145-2.927-2.871
					c-1.295-0.719-2.879-1.084-4.711-1.084c-2.257,0-4.498,0.451-6.674,1.309c-0.986,0.398-1.526,1.158-1.526,2.172
					c0,0.617,0.234,1.16,0.687,1.588c0.435,0.412,0.985,0.637,1.578,0.637c0.199,0,0.427-0.037,0.686-0.096l0.07-0.023
					c0.837-0.264,1.612-0.465,2.294-0.594c0.658-0.123,1.432-0.193,2.303-0.193c1.45,0,2.506,0.27,3.125,0.787
					c0.471,0.395,0.748,1.045,0.841,1.941h-3.493c-2.941,0-5.227,0.576-6.812,1.697c-1.675,1.182-2.526,2.803-2.526,4.818
					c0,1.219,0.32,2.309,0.963,3.258c0.628,0.928,1.494,1.65,2.562,2.139c1.028,0.465,2.155,0.693,3.36,0.693
					c2.349,0,4.403-0.59,6.138-1.75c0.128,0.33,0.329,0.623,0.603,0.885c0.482,0.457,1.101,0.693,1.797,0.693
					c0.681,0,1.309-0.229,1.802-0.678C179.28,49.483,179.554,48.874,179.554,48.177 M172.373,45.573
					c-0.869,0.436-1.777,0.65-2.711,0.65c-1.443,0-2.103-0.291-2.396-0.545c-0.392-0.328-0.567-0.74-0.567-1.299
					c0-0.4,0.101-0.852,0.867-1.229c0.792-0.389,2.057-0.59,3.747-0.59h3.079v1.621C173.833,44.724,173.152,45.192,172.373,45.573"
					/>
			</g>
			<g>
				<path fill="#33B9D7" d="M260.702,65.993c-0.532-0.508-1.205-0.77-1.942-0.77h-0.222c-0.747,0-1.417,0.262-1.948,0.77
					c-0.547,0.516-0.84,1.174-0.84,1.906v0.135c0,0.74,0.293,1.396,0.84,1.912c0.531,0.5,1.201,0.764,1.948,0.764h0.222
					c0.737,0,1.41-0.264,1.942-0.764c0.55-0.516,0.832-1.172,0.832-1.912v-0.135C261.534,67.167,261.252,66.509,260.702,65.993"/>
				<path fill="#33B9D7" d="M289.345,65.993c-0.53-0.508-1.199-0.77-1.944-0.77h-0.217c-0.748,0-1.419,0.262-1.947,0.77
					c-0.553,0.516-0.833,1.174-0.833,1.906v0.135c0,0.74,0.28,1.396,0.833,1.912c0.528,0.5,1.199,0.764,1.947,0.764h0.217
					c0.745,0,1.414-0.264,1.944-0.764c0.55-0.516,0.842-1.172,0.842-1.912v-0.135C290.187,67.167,289.895,66.509,289.345,65.993"/>
			</g>
		</g>
	</g>
</g>
</svg>
