<?xml version="1.0" encoding="utf-8"?>
<!-- Generator: Adobe Illustrator 16.0.0, SVG Export Plug-In . SVG Version: 6.00 Build 0)  -->
<!DOCTYPE svg PUBLIC "-//W3C//DTD SVG 1.1//EN" "http://www.w3.org/Graphics/SVG/1.1/DTD/svg11.dtd">
<svg version="1.1" xmlns="http://www.w3.org/2000/svg" xmlns:xlink="http://www.w3.org/1999/xlink" x="0px" y="0px" width="12px"
	 height="12px" viewBox="0 0 12 12" enable-background="new 0 0 12 12" xml:space="preserve">
<g id="Layer_1">
</g>
<g id="assinatura">
	<g>
		<g>
			<g>
				<path fill="#FFFFFF" d="M10.711,8.116c-0.037,0.76-0.211,1.433-0.766,1.987c-0.555,0.557-1.229,0.73-1.988,0.767
					c-0.783,0.044-3.129,0.044-3.912,0c-0.76-0.038-1.432-0.212-1.988-0.767s-0.73-1.228-0.766-1.987
					c-0.045-0.783-0.045-3.13,0-3.913C1.33,3.443,1.5,2.771,2.057,2.216s1.23-0.728,1.988-0.764c0.783-0.045,3.129-0.045,3.912,0
					c0.76,0.038,1.434,0.212,1.988,0.766c0.557,0.555,0.73,1.228,0.766,1.987C10.756,4.988,10.756,7.333,10.711,8.116z M9.891,6.161
					c0-0.69,0.057-2.172-0.191-2.796c-0.166-0.417-0.486-0.736-0.9-0.901c-0.623-0.246-2.107-0.19-2.797-0.19
					S3.83,2.216,3.207,2.464C2.789,2.631,2.471,2.95,2.305,3.365C2.059,3.987,2.115,5.471,2.115,6.161
					c0,0.689-0.059,2.171,0.189,2.796c0.168,0.417,0.486,0.736,0.902,0.901c0.621,0.245,2.105,0.19,2.795,0.19
					s2.172,0.057,2.797-0.19c0.416-0.167,0.736-0.487,0.9-0.901C9.947,8.335,9.891,6.851,9.891,6.161z M8.434,6.161
					c0,1.346-1.086,2.432-2.432,2.432S3.57,7.507,3.57,6.161c0-1.347,1.086-2.432,2.432-2.432S8.434,4.814,8.434,6.161z
					 M7.584,6.161c0-0.872-0.709-1.581-1.582-1.581c-0.871,0-1.58,0.709-1.58,1.581s0.711,1.581,1.58,1.581S7.584,7.033,7.584,6.161
					z M8.533,4.197c-0.314,0-0.566-0.254-0.566-0.567s0.254-0.567,0.566-0.567S9.1,3.316,9.1,3.63
					C9.1,3.945,8.846,4.197,8.533,4.197z"/>
			</g>
		</g>
	</g>
</g>
<g id="SomenteLogo">
</g>
</svg>
