<?xml version="1.0" encoding="utf-8"?>
<!-- Generator: Adobe Illustrator 16.0.0, SVG Export Plug-In . SVG Version: 6.00 Build 0)  -->
<!DOCTYPE svg PUBLIC "-//W3C//DTD SVG 1.1//EN" "http://www.w3.org/Graphics/SVG/1.1/DTD/svg11.dtd">
<svg version="1.1" xmlns="http://www.w3.org/2000/svg" xmlns:xlink="http://www.w3.org/1999/xlink" x="0px" y="0px" width="12px"
	 height="12px" viewBox="0 0 12 12" enable-background="new 0 0 12 12" xml:space="preserve">
<g id="Layer_1">
</g>
<g id="assinatura">
	<g>
		<g>
			<path fill="#FFFFFF" d="M10.742,6.123c0,2.59-2.154,4.698-4.744,4.698H5.996c-0.787,0-1.559-0.197-2.244-0.571L1.26,10.904
				L1.928,8.47C1.516,7.757,1.301,6.948,1.301,6.121c0-2.591,2.107-4.699,4.697-4.699c1.256,0,2.438,0.489,3.324,1.378
				C10.209,3.689,10.742,4.868,10.742,6.123z M9.947,6.123C9.949,5.079,9.498,4.1,8.762,3.361c-0.738-0.739-1.717-1.146-2.76-1.146
				c-2.156,0-3.908,1.753-3.908,3.905c0,0.738,0.205,1.456,0.598,2.078l0.092,0.148l-0.393,1.44l1.477-0.387L4.01,9.485
				c0.6,0.356,1.287,0.544,1.988,0.544C8.15,10.029,9.947,8.277,9.947,6.123z M8.363,7.244c0.029,0.049,0.029,0.284-0.068,0.56
				C8.197,8.078,7.73,8.328,7.504,8.362C7.131,8.417,6.84,8.39,6.094,8.067c-1.178-0.51-1.947-1.694-2.006-1.773
				C4.031,6.216,3.609,5.657,3.609,5.079c0-0.577,0.303-0.861,0.41-0.979c0.109-0.116,0.236-0.146,0.314-0.146s0.156,0,0.223,0.005
				c0.072,0.004,0.17-0.027,0.266,0.201C4.92,4.394,5.154,4.972,5.184,5.031C5.213,5.09,5.232,5.158,5.195,5.236
				C4.971,5.685,4.729,5.67,4.85,5.877C5.305,6.658,5.758,6.93,6.447,7.274c0.117,0.059,0.188,0.049,0.254-0.03
				c0.07-0.08,0.295-0.343,0.373-0.461s0.156-0.1,0.264-0.06c0.109,0.038,0.686,0.322,0.803,0.381
				C8.258,7.162,8.336,7.191,8.363,7.244z"/>
		</g>
	</g>
</g>
<g id="SomenteLogo">
</g>
</svg>
